<svg id="Ebene_1" data-name="Ebene 1" xmlns="http://www.w3.org/2000/svg" viewBox="0 0 75.1 75.1"><defs><style>.cls-1{fill:#d5111f;}.cls-2{fill:#246880;}.cls-3{fill:#f2f2f2;}</style></defs><g id="lg2"><g id="läufer"><path class="cls-1" d="M55.1,45.6a7,7,0,0,0-.5-2.5.2.2,0,0,1,0-.3h0s.1-.1.1-.6a4.1,4.1,0,0,0-.3-1.6,3,3,0,0,0-1.3-.9l-1.8-.4c-.1-.1-.1-.1-.1-.2V37.7c.2,0,.4-.3.4-.5a.9.9,0,0,0,0-.7h0c0-.2.1-2-1.6-2a1.8,1.8,0,0,0-1.9,1.7h0a3.4,3.4,0,0,0,.1,1l.5.7v1.2h-.6c-.9.1-2.6.4-3,1.2s-.6,2.7-.8,3a4.5,4.5,0,0,0,.3,1.6c0,.4.3,2.2.3,2.2s.3.4.2.5a3.4,3.4,0,0,0,.3,1.9c.3.3.8,1.9,1.1,1.8a2.9,2.9,0,0,0,0-1.3c-.1-.1,0-.1,0-.1a.3.3,0,0,0,.1-.2V49a1.4,1.4,0,0,0,0-.9c-.1-.3-.6-.3-.6-.7s.3-1.9.3-2.3a7.5,7.5,0,0,0-.4-1.5l.8-1a11,11,0,0,1,.2,1.8c0,.4.5.7.5,1.8s-.1.9-.1,1.5a7.4,7.4,0,0,0,0,2.1h-.1l-.3,1.3h0c.1.3.4,1.4.7,2.1a6.1,6.1,0,0,0,1.2,1.6l-.3,1.5a12.1,12.1,0,0,0,.5,1.8,8.8,8.8,0,0,1,.2,1.6c0,.5.4,1.4.5,2.1s-.3,1.1-.2,1.2a4.1,4.1,0,0,1-.1,1.1c-.1.2-.7,1.6-.5,2s.8.4,1.1.4-.3,1.9.8,2,1.1-1.5,1-1.9A5.7,5.7,0,0,1,52,64a14.2,14.2,0,0,1,.8-1.8,13.1,13.1,0,0,0,0-2.8l.3-1.3a11.6,11.6,0,0,0,.4-1.8c.1-.5.6-2.5.6-3a10.8,10.8,0,0,0-.1-3.1,23.2,23.2,0,0,1-.6-3.8h0c.2.7,1.3,1.4,1.8,1S55.1,46.1,55.1,45.6Zm-4,13.8a12.9,12.9,0,0,1-.4,1.9h-.1V59.6c.1-.3.2-1.4.3-1.8h0A8.8,8.8,0,0,1,51.1,59.4Z"/><path class="cls-1" d="M54.5,45.9a3.6,3.6,0,0,0-.4-.9,6,6,0,0,1-.9-1.5c-.2-.4-.2-1.7-.4-2.1a7.1,7.1,0,0,0-1-1.4c-.2,0-.1.2-.1.3s.3,1,.3,1.2-.3-.4-.3-.3.2.8.2.9.1.9.1,1a2.6,2.6,0,0,1,.5.9,14.6,14.6,0,0,1,.5,2l.3.8Z"/><path class="cls-1" d="M48.6,35.9s0-.1.1,0l1,.3a3.2,3.2,0,0,0,1.4-.3c.2-.3.2,1.7.1,1.8s-.7,1.2-1.2,1.2a2,2,0,0,1-1.3-.9c0-.2-.2-1.3-.2-1.6A.7.7,0,0,1,48.6,35.9Z"/></g><path class="cls-2" d="M11,11a37.6,37.6,0,0,0,0,53.2h0L64.1,11A37.7,37.7,0,0,0,11,11Z"/><path class="cls-1" d="M63.8,31.1c0-1.4.7-2.2,1.7-2.2s1.7.8,1.7,2.2-.7,2.2-1.7,2.2S63.8,32.5,63.8,31.1Zm2.4,0c0-.9-.2-1.4-.7-1.4s-.7.5-.7,1.4.3,1.4.7,1.4S66.2,32,66.2,31.1Z"/><path class="cls-1" d="M63.9,37.6a2,2,0,0,1,1.8-2.2H66a1.7,1.7,0,0,1,1.2.5l-.5.6a.9.9,0,0,0-.7-.3c-.6,0-1.1.5-1.1,1.4A1.2,1.2,0,0,0,66,38.9h0a1.1,1.1,0,0,0,.8-.3l.5.5a1.5,1.5,0,0,1-1.4.7,2,2,0,0,1-2-2Z"/><path class="cls-1" d="M64,41.9h1.5c.9,0,1.7.4,1.7,1.4a1.3,1.3,0,0,1-.8,1.2l1,1.7H66.3l-.8-1.6H65v1.6H64Zm1.5,2c.5,0,.7-.2.7-.6s-.2-.6-.7-.6H65v1.2Z"/><g id="text"><path class="cls-3" d="M7,33.4l-.5-.7a2.1,2.1,0,0,0,.6-1c.1-.4,0-.6-.2-.6s-.4.1-.7.5l-.3.5c-.3.4-.7.8-1.3.6a1.5,1.5,0,0,1-1-1.7,2,2,0,0,1,.9-1.3l.5.6a1.5,1.5,0,0,0-.6.9.7.7,0,0,0,.3.6c.3,0,.4-.2.6-.6l.3-.5a1.4,1.4,0,0,1,1.3-.6,1.3,1.3,0,0,1,1,1.7h0A2.4,2.4,0,0,1,7,33.4Z"/><path class="cls-3" d="M6.8,29.3a1.4,1.4,0,0,1-1.2-1.7c0-.2,0-.3.1-.4a1.6,1.6,0,0,1,2-1h.1a1.6,1.6,0,0,1,1.1,2.1,1.6,1.6,0,0,1-2,1Zm.7-2.2c-.5-.1-1,0-1.1.4s.1.7.7.9.9.1,1-.3A.8.8,0,0,0,7.5,27.1Z"/><path class="cls-3" d="M8.4,25.6l-1.8-.8.5-.9,1.6.8c.4.2.6.2.8-.1a.6.6,0,0,0-.1-.7l-1.9-1,.4-.8,2.9,1.4-.3.7-.4-.2H10a1.3,1.3,0,0,1,.1,1.2C9.7,25.9,9.2,26,8.4,25.6Z"/><path class="cls-3" d="M8.7,20.8l.4-.7.6.3h.1a1.4,1.4,0,0,1,0-1.5l.4-.5.6.6-.4.5a1.2,1.2,0,0,0,.1,1.3l1.4.9-.5.8Z"/><path class="cls-3" d="M12.1,18.6a1.5,1.5,0,0,1-.3-2.2l.2-.3a1.4,1.4,0,0,1,1.1-.6v.7a.7.7,0,0,0-.6.4.9.9,0,0,0,.1,1.3h0a.9.9,0,0,0,1.3-.2h0a1.1,1.1,0,0,0,.3-.8H15a2.1,2.1,0,0,1-.5,1.3,1.5,1.5,0,0,1-2.2.5Z"/><path class="cls-3" d="M14.6,15.7a1.6,1.6,0,0,1,0-2.3h.1a1.3,1.3,0,0,1,1.8-.2l.3.3c.1.1.2.3.3.3l-1.6,1.5c.4.3.7.2,1.1-.1a2.2,2.2,0,0,0,.5-.8l.6.2a2.4,2.4,0,0,1-.7,1.2,1.6,1.6,0,0,1-2.3.1A.1.1,0,0,1,14.6,15.7Zm.4-1,1-.9c-.3-.3-.6-.3-.8,0S14.8,14.4,15,14.7Z"/><path class="cls-3" d="M20.5,10.3a2.1,2.1,0,0,1,.7-2.9h0a1.7,1.7,0,0,1,1.4-.1l-.2.7h-.8a1.2,1.2,0,0,0-.2,1.7h0c.4.8,1,1,1.6.7a1.8,1.8,0,0,0,.5-.7l.7.3a1.6,1.6,0,0,1-.9,1.2A2.1,2.1,0,0,1,20.5,10.3Z"/><path class="cls-3" d="M24.2,8.9a1.7,1.7,0,0,1,1-2.2h0a1.7,1.7,0,0,1,2.1.9h0a1.4,1.4,0,0,1-.7,2h-.2a1.6,1.6,0,0,1-2.1-.7ZM26.4,8a.8.8,0,0,0-1-.6h0c-.4.2-.5.6-.2,1.1s.5.8.9.6S26.6,8.6,26.4,8Z"/><path class="cls-3" d="M28,7.5a1.5,1.5,0,0,1,.8-2h.1a1.1,1.1,0,0,1,.8.1h.1l-.2-.4-.3-1.1,1-.2,1.1,4.4h-.8V8.1h-.1a1.2,1.2,0,0,1-.7.7A1.4,1.4,0,0,1,28,7.5Zm2.2,0-.3-1.2a.7.7,0,0,0-.6-.1c-.3.1-.5.4-.4,1s.4.8.8.8A1.2,1.2,0,0,0,30.2,7.5Z"/><path class="cls-3" d="M31.8,6.5a1.6,1.6,0,0,1,1.4-1.8h.1a1.3,1.3,0,0,1,1.6.8A.9.9,0,0,1,35,6v.4l-2.2.3a1,1,0,0,0,1.1.5.9.9,0,0,0,.7-.3l.4.5a2.7,2.7,0,0,1-1.2.6,1.7,1.7,0,0,1-2-1.4Zm1-.4,1.3-.2c-.1-.4-.3-.6-.7-.5S32.8,5.6,32.8,6.1Z"/><path class="cls-3" d="M14,36.1c-1-1-1-2-.3-2.7s1.6-.6,2.7.4,1.1,2,.4,2.7S15.1,37.1,14,36.1Zm1.7-1.7c-.7-.8-1.2-.8-1.5-.5s-.3.8.5,1.6,1.2.8,1.5.5S16.5,35.2,15.7,34.4Zm-.9.9a.5.5,0,0,1,.1-.7.6.6,0,0,1,.6,0c.3.2.2.5,0,.7A.5.5,0,0,1,14.8,35.3Z"/><path class="cls-3" d="M18,34.1l.7-.8L17,31.6l-.6.6-.5-.4.6-1.1.5-.5,2.4,2.4.7-.7.6.6-2.2,2.2Z"/><path class="cls-3" d="M19.8,30.4c-1.1-1-1.1-2-.4-2.7s1.7-.6,2.7.4,1.1,2.1.4,2.7S20.8,31.4,19.8,30.4Zm1.7-1.7c-.8-.8-1.3-.7-1.6-.5s-.3.8.5,1.6,1.2.8,1.5.5S22.2,29.5,21.5,28.7Zm-1,.9a.5.5,0,0,1,0-.7.6.6,0,0,1,.8,0,.5.5,0,0,1,0,.7A.6.6,0,0,1,20.5,29.6Z"/><path class="cls-3" d="M23.7,28.4l.8-.8-1.8-1.7-.6.6-.4-.4a3.7,3.7,0,0,0,.5-1.1l.5-.5,2.5,2.4.6-.6.6.5L24.2,29Z"/><path class="cls-3" d="M26.5,25.6l.8-.8-1.7-1.7-.6.6-.5-.4.6-1.1.5-.5L28,24.1l.7-.7.6.6-2.2,2.1Z"/><path class="cls-3" d="M29.4,22.7l.8-.7-1.8-1.8-.6.6-.4-.4a3.7,3.7,0,0,0,.5-1.1l.5-.5,2.5,2.5.7-.7.5.6L30,23.3Z"/><path class="cls-3" d="M32.3,19.9l.7-.8-1.7-1.7-.6.6-.5-.4a2.4,2.4,0,0,0,.6-1.1l.5-.5,2.4,2.4.7-.6.6.5-2.2,2.2Z"/><path class="cls-3" d="M35.1,17.1l.8-.8-1.7-1.8-.7.7-.4-.5a3.1,3.1,0,0,0,.5-1l.6-.6,2.4,2.5.7-.7.5.6-2.1,2.1Z"/><path class="cls-3" d="M20.8,42.6l.8-.7-1.8-1.8-.6.6-.4-.4a3.7,3.7,0,0,0,.5-1.1l.5-.5,2.5,2.5.6-.7.6.6-2.2,2.1Z"/><path class="cls-3" d="M23.6,39.8l.8-.8-1.7-1.7-.6.6-.5-.4a2.4,2.4,0,0,0,.6-1.1l.5-.5,2.4,2.4.7-.6.6.5-2.2,2.2Z"/><path class="cls-3" d="M25.4,36.1c-1-1-1.1-2-.4-2.7s1.7-.6,2.8.4,1.1,2.1.4,2.8S26.4,37.2,25.4,36.1Zm1.7-1.7c-.8-.7-1.2-.7-1.5-.4s-.3.7.4,1.5,1.3.8,1.6.5S27.9,35.2,27.1,34.4Zm-.9.9a.5.5,0,0,1,.1-.7.6.6,0,0,1,.6,0c.3.2.2.5,0,.7A.5.5,0,0,1,26.2,35.3Z"/><path class="cls-3" d="M28.3,33.3c-1-1-1.1-2-.4-2.7s1.7-.6,2.7.4,1.1,2,.4,2.7S29.3,34.3,28.3,33.3ZM30,31.6c-.8-.8-1.3-.8-1.6-.5s-.3.8.5,1.6,1.3.8,1.6.5S30.8,32.4,30,31.6Zm-.9.9a.5.5,0,1,1,.7,0h0A.5.5,0,0,1,29.1,32.5Z"/><path class="cls-3" d="M32.2,31.3l.8-.8-1.7-1.7-.7.6-.4-.4a3.7,3.7,0,0,0,.5-1.1l.6-.5,2.4,2.4.7-.7.5.6-2.1,2.2Z"/><path class="cls-3" d="M35.1,28.5l.8-.8-1.8-1.8-.6.7-.4-.5a3.7,3.7,0,0,0,.5-1.1l.5-.5L36.6,27l.6-.7.6.6L35.6,29Z"/><path class="cls-3" d="M36.9,24.8c-1.1-1-1.1-2-.4-2.7s1.7-.7,2.7.4,1.1,2,.4,2.7S37.9,25.8,36.9,24.8Zm1.7-1.7c-.8-.8-1.3-.8-1.6-.5s-.3.8.5,1.6,1.3.8,1.5.5S39.3,23.9,38.6,23.1Zm-.9.9a.4.4,0,0,1-.2-.5c0-.1,0-.2.1-.2a.5.5,0,0,1,.7-.1h.1a.5.5,0,0,1-.1.7A.6.6,0,0,1,37.7,24Z"/><path class="cls-3" d="M39.7,21.9c-1-1-1.1-2-.4-2.7s1.7-.6,2.7.4,1.1,2.1.4,2.8S40.7,23,39.7,21.9Zm1.7-1.6c-.8-.8-1.2-.8-1.5-.5s-.3.7.4,1.5,1.3.8,1.6.5S42.2,21,41.4,20.3Zm-.9.8a.5.5,0,0,1,.1-.7h.6c.2.3.2.5,0,.7S40.7,21.4,40.5,21.1Z"/></g></g></svg>