<svg id="Ebene_1" data-name="Ebene 1" xmlns="http://www.w3.org/2000/svg" xmlns:xlink="http://www.w3.org/1999/xlink" viewBox="0 0 304.1 110.4"><defs><style>.cls-1{fill:none;}.cls-2{opacity:0;}.cls-3{clip-path:url(#clip-path);}.cls-4{fill:#1749b3;}.cls-5{fill:#ed3624;}</style><clipPath id="clip-path"><rect class="cls-1" x="-72.7" y="-70.1" width="419.5" height="297.64"/></clipPath></defs><g class="cls-2"><path d="M2.8,25.5H8.6V51.6c0,4.1.8,7.1,2.3,9s4,2.9,7.4,2.9,5.6-.9,6.9-2.7,2.1-4.8,2.1-9V25.5h5.1V51.7c0,5.6-1.1,9.7-3.5,12.3s-6,3.8-11,3.8-9-1.3-11.4-4S2.8,57.1,2.8,51.5ZM9.7,22V17.2h4.8V22Zm11,0V17.2h4.8V22Z"/></g><g class="cls-2"><path d="M168.2,21.1V19.2a4.2,4.2,0,0,1-3.5,2.1,2.9,2.9,0,0,1-2.1-.8,3,3,0,0,1-.8-2.3V11h1.8v6.6a3,3,0,0,0,.3,1.6,1.2,1.2,0,0,0,1.2.5c1.1,0,2.1-.7,3.1-2.2V11H170V21.1Z"/><path d="M173.3,21.1V11h1.8v1.9a4.2,4.2,0,0,1,3.6-2.2,2.7,2.7,0,0,1,2.1.9,3.1,3.1,0,0,1,.8,2.2v7.3h-1.9V14.4a3.2,3.2,0,0,0-.3-1.6,1.3,1.3,0,0,0-1.1-.5c-1.1,0-2.2.8-3.2,2.2v6.6Z"/><path d="M187.4,21.3a9.9,9.9,0,0,1-3.1-.6V19a7.1,7.1,0,0,0,3.1.9,1.7,1.7,0,0,0,1.3-.4,1.3,1.3,0,0,0,.6-1.1q0-.9-1.5-1.5l-1.1-.5a3.1,3.1,0,0,1-2.3-2.8,2.6,2.6,0,0,1,.9-2.1,4,4,0,0,1,2.6-.8l2.1.3h.3v1.6a9.3,9.3,0,0,0-2.4-.5c-1.2,0-1.8.4-1.8,1.3s.5,1,1.4,1.4l.9.4a5.1,5.1,0,0,1,2.1,1.3,2.8,2.8,0,0,1,.6,1.8,2.6,2.6,0,0,1-1.1,2.1A3.7,3.7,0,0,1,187.4,21.3Z"/><path d="M194.3,24.7l1.6-3.6L192,11h2l2.9,7.6L200,11h1.7l-5.5,13.7Z"/><path d="M203.2,21.1V11H205v1.9a4,4,0,0,1,3.5-2.2,2.8,2.8,0,0,1,2.8,2.2,3.7,3.7,0,0,1,3.3-2.2,2.9,2.9,0,0,1,2.1.8,3.1,3.1,0,0,1,.8,2.2v7.4h-1.9V14c0-1.2-.4-1.7-1.4-1.7s-1.9.6-2.9,2v6.8h-1.9V14c0-1.2-.5-1.7-1.4-1.7s-1.9.6-3,2v6.8Z"/><path d="M220.6,21.1V11h1.8v1.9a3.8,3.8,0,0,1,3.4-2.2,2.8,2.8,0,0,1,2.8,2.2,3.8,3.8,0,0,1,3.4-2.2,2.9,2.9,0,0,1,2.1.8,3.1,3.1,0,0,1,.7,2.2v7.4H233V14c0-1.2-.5-1.7-1.4-1.7s-1.9.6-3,2v6.8h-1.8V14c0-1.2-.5-1.7-1.4-1.7s-1.9.6-3,2v6.8Z"/><path d="M245.3,20.7a9.9,9.9,0,0,1-3.1.6,5,5,0,0,1-3.7-1.5,5.6,5.6,0,0,1-1.4-3.8,5.3,5.3,0,0,1,1.3-3.8,3.9,3.9,0,0,1,3.1-1.5,3.6,3.6,0,0,1,2.9,1.3,6.5,6.5,0,0,1,1,3.7v.6H239c.3,2.4,1.4,3.6,3.5,3.6a8.3,8.3,0,0,0,2.8-.6Zm-6.2-5.8h4.4c0-1.9-.7-2.8-2.1-2.8S239.2,13,239.1,14.9Z"/><path d="M251.1,21.3a2.9,2.9,0,0,1-2.1-.8,2.7,2.7,0,0,1-.8-2.2v-6h-1.3V11h1.3V9.1l1.8-.2V11h2.7v1.3H250v5.6c0,1.4.6,2,1.7,2h.9v1.3Z"/><path d="M254.8,21.1V11h1.8v1.9a3.5,3.5,0,0,1,3.2-2.2h.6v1.7l-.9-.2a3.5,3.5,0,0,0-2.9,2.1v6.7Z"/><path d="M262.2,9.1V7.3H264V9.1Zm0,12V11H264V21.1Z"/><path d="M269.9,21.3a9.9,9.9,0,0,1-3-.6V19a7.1,7.1,0,0,0,3.1.9,1.8,1.8,0,0,0,1.3-.4,1.4,1.4,0,0,0,.5-1.1c0-.6-.5-1.1-1.4-1.5l-1.1-.5c-1.6-.6-2.4-1.6-2.4-2.8a2.4,2.4,0,0,1,1-2.1,3.7,3.7,0,0,1,2.5-.8l2.1.3h.4v1.6a9.3,9.3,0,0,0-2.4-.5c-1.2,0-1.8.4-1.8,1.3s.4,1,1.3,1.4l.9.4a5.1,5.1,0,0,1,2.1,1.3,2.9,2.9,0,0,1,.7,1.8,2.6,2.6,0,0,1-1.1,2.1A4,4,0,0,1,269.9,21.3Z"/><path d="M279,21.3a9.9,9.9,0,0,1-3-.6V19a7.1,7.1,0,0,0,3.1.9,1.8,1.8,0,0,0,1.3-.4,1.2,1.2,0,0,0,.5-1.1c0-.6-.5-1.1-1.4-1.5l-1.1-.5c-1.6-.6-2.4-1.6-2.4-2.8a2.4,2.4,0,0,1,1-2.1,3.7,3.7,0,0,1,2.5-.8l2.1.3h.4v1.6a9.3,9.3,0,0,0-2.4-.5c-1.2,0-1.8.4-1.8,1.3s.4,1,1.3,1.4l.9.4a5.1,5.1,0,0,1,2.1,1.3,2.4,2.4,0,0,1,.7,1.8,2.6,2.6,0,0,1-1.1,2.1A4,4,0,0,1,279,21.3Z"/></g><g class="cls-2"><path d="M245,53.2v8.3h-1.8V53.2h-1.3V51.9h1.3V50.8c0-2.3,1.1-3.5,3.1-3.5l2,.3V49a9.3,9.3,0,0,0-1.9-.4,1.3,1.3,0,0,0-1.1.5,2.4,2.4,0,0,0-.3,1.5v1.3h2.4v1.3Z"/><path d="M249.1,61.5V47.6h1.7V61.5Z"/><path d="M258.8,60.3a4.6,4.6,0,0,1-3,1.4,2.5,2.5,0,0,1-1.9-.7,2.4,2.4,0,0,1-.8-1.9,2.5,2.5,0,0,1,1.3-2.4,6.7,6.7,0,0,1,3.8-.9h.4V54.7a1.5,1.5,0,0,0-1.7-1.7,7.5,7.5,0,0,0-3,.8V52.4a8.5,8.5,0,0,1,3.3-.7,3.3,3.3,0,0,1,2.4.7,3.2,3.2,0,0,1,.7,2.3V59q0,1.5.9,1.5h.4v.9a2.8,2.8,0,0,1-1.3.3C259.6,61.7,259.1,61.2,258.8,60.3Zm-.2-1V56.8H258a4.1,4.1,0,0,0-2.3.6,1.5,1.5,0,0,0-.9,1.4,1.6,1.6,0,0,0,.5,1.1,1.5,1.5,0,0,0,1,.4A3.4,3.4,0,0,0,258.6,59.3Z"/><path d="M267.2,61.7a4.2,4.2,0,0,1-3.2-1.4,5.2,5.2,0,0,1-1.3-3.7A4.8,4.8,0,0,1,264,53a4.5,4.5,0,0,1,3.5-1.3l2.5.3v1.5a9.3,9.3,0,0,0-2.4-.5,2.7,2.7,0,0,0-2.1,1,4,4,0,0,0-.9,2.7,3.7,3.7,0,0,0,.9,2.6,2.4,2.4,0,0,0,2.1,1,5.7,5.7,0,0,0,2.5-.6v1.5A11.8,11.8,0,0,1,267.2,61.7Z"/><path d="M272.3,61.5V47.6H274v6.1a4,4,0,0,1,3.4-2,2.8,2.8,0,0,1,2,.8,3.3,3.3,0,0,1,.7,2.1v6.9h-1.7V55.2a2.1,2.1,0,0,0-.4-1.5c-.2-.4-.5-.5-1-.5s-2.1.7-3,2.1v6.2Z"/></g><g class="cls-2"><path d="M194.6,93.1a34.3,34.3,0,0,1-9.7,1.6c-4.8,0-8.5-1.4-11.1-4.1s-3.9-6.7-3.9-11.9,1.3-8.9,4-11.8,6.2-4.2,11-4.2a36.5,36.5,0,0,1,9.6,1.4v4a32.8,32.8,0,0,0-9.6-2.1,9.6,9.6,0,0,0-7.7,3.3c-1.8,2.3-2.7,5.4-2.7,9.5s1,7.1,2.9,9.3a10.2,10.2,0,0,0,8.2,3.4,16.5,16.5,0,0,0,4.7-.8V80.8h4.3Z"/><path d="M222.5,94l-3.3-8.5H206.3L202.9,94h-4L211,63.5h4.3L227.2,94ZM207.2,60.9V57.4h3.6v3.5Zm10.7,21.4-5.2-13.1-5.2,13.1Zm-2.6-21.4V57.4h3.6v3.5Z"/><path d="M232,94V63.5h4.3V76.3h14.5V63.5h4.3V94h-4.3V79.6H236.3V94Z"/><path d="M263.3,94V63.5h4.2L282.9,87V63.5h3.7V94h-4.3L267,70.4V94Z"/></g><g class="cls-2"><path d="M148,95.4a3.7,3.7,0,0,1-2.5,1.2,2.3,2.3,0,0,1-1.6-.6,2.1,2.1,0,0,1-.7-1.6,2.2,2.2,0,0,1,1.1-2,5.6,5.6,0,0,1,3.2-.7h.3v-1a1.3,1.3,0,0,0-1.4-1.4,6.3,6.3,0,0,0-2.5.7V88.8a7.4,7.4,0,0,1,2.7-.6,2.8,2.8,0,0,1,2,.6,2.7,2.7,0,0,1,.7,1.9v3.6c0,.9.2,1.3.7,1.3h.3v.8a2,2,0,0,1-1.1.3C148.6,96.6,148.2,96.2,148,95.4Zm-.2-.8V92.5h-.5a3.6,3.6,0,0,0-1.9.5,1.3,1.3,0,0,0-.7,1.2,1.1,1.1,0,0,0,.3.8,1.2,1.2,0,0,0,.9.4A3.1,3.1,0,0,0,147.8,94.6Z"/><path d="M152,96.5V84.8h1.4v5.1a2.9,2.9,0,0,1,2.7-1.7,2.8,2.8,0,0,1,2.3,1.1,4.8,4.8,0,0,1,.8,2.9,5.3,5.3,0,0,1-.9,3.2,3.2,3.2,0,0,1-2.5,1.2,3.4,3.4,0,0,1-2.4-1.1v1Zm1.4-2a3.3,3.3,0,0,0,2.2,1c1.4,0,2.1-1.1,2.1-3.2s-.7-2.8-1.9-2.8a3.2,3.2,0,0,0-2.4,1.3Z"/><path d="M161.2,96.4V84.8h1.5V96.4Z"/><path d="M169.5,95.4a3.9,3.9,0,0,1-2.5,1.2,2.5,2.5,0,0,1-1.7-.6,2.5,2.5,0,0,1-.6-1.6,2,2,0,0,1,1.1-2,5.5,5.5,0,0,1,3.1-.7h.4v-1c0-.9-.5-1.4-1.5-1.4a6.4,6.4,0,0,0-2.4.7V88.8a7,7,0,0,1,2.7-.6,2.8,2.8,0,0,1,2,.6,2.7,2.7,0,0,1,.6,1.9v3.6c0,.9.3,1.3.8,1.3h.3v.8a2.3,2.3,0,0,1-1.1.3C170.1,96.6,169.7,96.2,169.5,95.4Zm-.2-.8V92.5h-.5a3.3,3.3,0,0,0-1.9.5,1.4,1.4,0,0,0-.8,1.2.9.9,0,0,0,.4.8,1,1,0,0,0,.9.4A3.4,3.4,0,0,0,169.3,94.6Z"/><path d="M178.4,96.4V94.9a3.3,3.3,0,0,1-2.8,1.7,1.9,1.9,0,0,1-1.6-.7,2.4,2.4,0,0,1-.6-1.8V88.4h1.4v5.3a2.3,2.3,0,0,0,.3,1.3c.1.2.4.3.8.3a3.1,3.1,0,0,0,2.5-1.7V88.4h1.5v8Z"/><path d="M184.5,89.5v6.9H183V89.5h-1.1V88.4H183v-.9c0-1.9.9-2.9,2.6-2.9l1.7.3V86l-1.6-.3c-.4,0-.8.1-.9.3a2.3,2.3,0,0,0-.3,1.3v1.1h2v1.1Z"/><path d="M193.6,96.1a9.2,9.2,0,0,1-2.5.5,3.8,3.8,0,0,1-2.9-1.2,4.4,4.4,0,0,1-1.1-3,4.4,4.4,0,0,1,1-3,3.2,3.2,0,0,1,2.5-1.2,2.5,2.5,0,0,1,2.2,1.1,4,4,0,0,1,.8,2.9v.4h-5c.2,1.9,1.1,2.9,2.8,2.9a7.4,7.4,0,0,0,2.2-.5Zm-4.9-4.6h3.5c0-1.4-.6-2.2-1.7-2.2S188.8,90.1,188.7,91.5Z"/><path d="M195.9,96.4v-8h1.5v1.5a3.3,3.3,0,0,1,2.8-1.7,2.2,2.2,0,0,1,1.6.7,2.4,2.4,0,0,1,.6,1.8v5.7H201V91.1a1.7,1.7,0,0,0-.3-1.2c-.1-.3-.4-.4-.8-.4a3.1,3.1,0,0,0-2.5,1.7v5.2Z"/><path d="M210.1,96.4V94.9a2.7,2.7,0,0,1-2.6,1.7,2.8,2.8,0,0,1-2.3-1.1,4.7,4.7,0,0,1-.8-2.8,5.1,5.1,0,0,1,.9-3.2,3,3,0,0,1,4.8-.2V84.8h1.5V96.4Zm0-6.1a3.4,3.4,0,0,0-2.1-1c-1.4,0-2.1,1.1-2.1,3.2s.7,2.8,1.9,2.8a2.9,2.9,0,0,0,2.3-1.3Z"/></g><g class="cls-3"><path d="M31.6,62.2A14.8,14.8,0,0,0,16.7,47.3a14.8,14.8,0,0,0-15,14.9,15.1,15.1,0,0,0,15,14.9,14.8,14.8,0,0,0,7.5-2,15,15,0,0,0,7.4-12.9m.8,0a15.6,15.6,0,0,1-7.8,13.6A15.1,15.1,0,0,1,16.7,78,15.7,15.7,0,0,1,3.1,70.1,15.1,15.1,0,0,1,.9,62.2a15.7,15.7,0,0,1,29.4-7.9,16,16,0,0,1,2.1,7.9"/><path d="M17.2,59.6c0,.2-.2.5-.4.5a.5.5,0,0,1-.5-.3v-.3s.1.1,0,.1.2.1.1,0H17v.6c-.1.6,0,1.5-.1,2.4s-.3,1.3-.4,1.9-.1.6-.1.8v.2h0c0,.1-.2-.1-.1-.1H16c.1,0,.2-.2.4-.6s.3-.2.5-.2a.5.5,0,0,1,.2.6,2.8,2.8,0,0,1-.5.8c0,.1-.1.2-.3.2a.4.4,0,0,1-.5-.2.8.8,0,0,1-.2-.7c0-.2.1-.5.1-.8s.3-1.3.4-1.9V60.1a2.5,2.5,0,0,1,.1-.9.1.1,0,0,1,.1-.1c0-.1.1-.2.3-.2H17v.2c.1.1.1.2.2.4"/><path d="M14,63.1c-.2.2-.5.2-.6,0a.4.4,0,0,1,0-.6,1.5,1.5,0,0,1,1.3-.3l1.7.3a6,6,0,0,0,3.5-.1.4.4,0,0,1,.5.2.5.5,0,0,1-.2.6,6.9,6.9,0,0,1-4,.1L14.7,63c-.4-.1-.6,0-.7.1"/><path d="M128.1,62.2a15,15,0,0,0-22.5-12.9,15,15,0,0,0-7.4,12.9,14.8,14.8,0,0,0,2.1,7.5,15,15,0,0,0,20.4,5.4,15,15,0,0,0,7.4-12.9m.8,0a15.6,15.6,0,0,1-7.8,13.6,15.1,15.1,0,0,1-7.9,2.2A15.8,15.8,0,0,1,97.4,62.2a15.9,15.9,0,0,1,15.8-15.8,15.8,15.8,0,0,1,13.6,7.9,16,16,0,0,1,2.1,7.9"/><path d="M113.6,59.6a.4.4,0,0,1-.3.5.5.5,0,0,1-.5-.3v-.3s.1.1,0,.1.2.1.1,0h.5c-.1.1,0-.1,0,0h.1a2.8,2.8,0,0,1-.1.6,19.1,19.1,0,0,1,0,2.4c-.1.7-.3,1.3-.4,1.9s-.1.6-.1.8v.2h0c0,.1-.2-.1-.1-.1h-.3c.1,0,.2-.2.4-.6s.3-.2.5-.2a.5.5,0,0,1,.2.6,2.8,2.8,0,0,1-.5.8c0,.1-.1.2-.3.2a.4.4,0,0,1-.5-.2.8.8,0,0,1-.2-.7c0-.2.1-.5.1-.8s.3-1.3.4-1.9V60.1a2.5,2.5,0,0,1,.1-.9.1.1,0,0,1,.1-.1c0-.1.1-.2.3-.2h.4v.2c.1.1.1.2.1.4"/><path d="M110.4,63.1a.3.3,0,0,1-.5,0,.4.4,0,0,1,0-.6,1.4,1.4,0,0,1,1.3-.3l1.7.3a6,6,0,0,0,3.5-.1.4.4,0,0,1,.5.2.5.5,0,0,1-.2.6,6.9,6.9,0,0,1-4,.1l-1.5-.3a.9.9,0,0,0-.8.1"/><path d="M224,62.2a14.8,14.8,0,1,0-7.4,12.9A14.8,14.8,0,0,0,224,62.2m.9,0A15.7,15.7,0,0,1,217,75.8a15.1,15.1,0,0,1-7.9,2.2,15.7,15.7,0,0,1-13.6-7.9,15.1,15.1,0,0,1-2.2-7.9,15.7,15.7,0,0,1,7.9-13.6,15.1,15.1,0,0,1,7.9-2.2,15.7,15.7,0,0,1,13.6,7.9,15.1,15.1,0,0,1,2.2,7.9"/><path d="M209.6,59.6c0,.2-.1.5-.3.5s-.5-.1-.5-.3a.8.8,0,0,1-.1-.3h.1c-.1-.1.1.1.1,0h.4c0,.1.1-.1.1,0h0v.6a21.8,21.8,0,0,1-.1,2.4l-.3,1.9a2.5,2.5,0,0,0-.1.8v.2h0s-.1-.1,0-.1-.3-.1-.2-.1h-.2a1.4,1.4,0,0,0,.3-.6c.1-.2.4-.2.6-.2s.2.4.2.6l-.5.8a.5.5,0,0,1-.4.2c-.1.1-.4,0-.5-.2a.6.6,0,0,1-.1-.7,2.5,2.5,0,0,1,.1-.8l.3-1.9a20.2,20.2,0,0,0,.1-2.3v-.9a.1.1,0,0,0,.1-.1l.3-.2h.4c0,.1.1.1.1.2s.1.2.1.4"/><path d="M206.4,63.1a.4.4,0,0,1-.6-.6,1.7,1.7,0,0,1,1.4-.3l1.6.3a5.9,5.9,0,0,0,3.5-.1.4.4,0,0,1,.5.2.5.5,0,0,1-.2.6,6.8,6.8,0,0,1-4,.1l-1.5-.3c-.4-.1-.6,0-.7.1"/><path d="M15.9,31.3a.5.5,0,0,1-.1.6.5.5,0,0,1-.6-.2.6.6,0,0,1-.1-.4.5.5,0,0,1,.2-.4,1,1,0,0,1,.7-.4,5.2,5.2,0,0,1,1.8-.3,2.2,2.2,0,0,1,1.6.4.6.6,0,0,1,.3.6.6.6,0,0,1,.1.6.5.5,0,0,1-.2.4l-.4.2-.7-.2-.5-.3a3.4,3.4,0,0,0-1.2-.6,2.3,2.3,0,0,0-1.8.3l-.3.3-.3.3-.4.3h-.3a.3.3,0,0,1-.3-.3c-.1-.2,0-.3,0-.4a.1.1,0,0,0,.1-.1l.3-.2.5-.3a5.2,5.2,0,0,1,2.2-.7h1.3l.6.3a6.3,6.3,0,0,1,1.2,1c.1.1.1.2.2.2h-.5c.1-.1-.1.1,0,.1s-.1.2-.1.1h0v-.2c-.1-.2-.1-.5.1-.6a.5.5,0,0,1,.6.2c0,.1.1.2.1.3a.1.1,0,0,1,0,.2.8.8,0,0,1-.2.4h-.3c-.3-.1-.3-.3-.5-.4l-1-.9-.3-.2H16.6a5.3,5.3,0,0,0-1.9.6l-.5.3h0c0,.1-.1-.1-.1-.1s-.1-.2,0-.1l-.2-.2c.1.1-.1,0-.1,0h0q.1,0,.3-.3l.5-.4a2.8,2.8,0,0,1,2.4-.4,4.6,4.6,0,0,1,1.4.7l.5.3a.1.1,0,0,1,.1.1h0v-.4L17.8,31l-1.6.2-.3.2h0"/><path d="M107.3,33.1c.2.1.4.3.3.5s-.2.4-.5.4,0,0-.1,0h-.6a.4.4,0,0,1-.2-.5.4.4,0,0,1,.5-.3c.3.1.3,0,.6,0"/><path d="M102.4,35.2c0-.2.3-.3.5-.3a.5.5,0,0,1,.3.5c0,.1,0,.1-.1.3h-.7a.8.8,0,0,1-.1-.4,2.1,2.1,0,0,1,0-.8,2.4,2.4,0,0,1,.9-1.5,9.5,9.5,0,0,1,1.7-1,28.3,28.3,0,0,1,4.4-1.2,17.1,17.1,0,0,1,4.5-.1h2.6a5.3,5.3,0,0,1,3.3,1.3,6.3,6.3,0,0,1,1.1,1.2,3.5,3.5,0,0,1,.7.9,1.4,1.4,0,0,1,.2,1.3.4.4,0,0,1-.5.2.5.5,0,0,1-.3-.5.5.5,0,0,0-.1-.6c-.1-.3-.4-.5-.6-.8l-1-1a4.3,4.3,0,0,0-2.8-1.2h-2.5a21.1,21.1,0,0,0-4.4.1,24.3,24.3,0,0,0-4.3,1.2,3.7,3.7,0,0,0-1.4.8,1.9,1.9,0,0,0-.7,1.1v.5H103c.1,0-.1-.1-.1-.1s-.2,0-.1,0h-.2c0-.1-.2.1-.2.1s0,.1,0,0h0"/><path d="M209,31.5a.4.4,0,0,1-.4-.4c0-.2.1-.4.3-.4a5.6,5.6,0,0,1,3.2.6,2.9,2.9,0,0,1,1.1,1.1,3.1,3.1,0,0,1,.2.8v.2c0,.1.1.2.1.4h-.8V34c0-.1.1,0,.1,0h-.1l-.2-.2-1.4-1.2-1-.5h-.3a.3.3,0,0,1-.1.2c-.1.2-.3.2-.5.2a.5.5,0,0,1-.2-.6.9.9,0,0,1,.6-.6h.7a2.3,2.3,0,0,1,1.2.6,11.1,11.1,0,0,1,1.6,1.2l.2.2h.1a.4.4,0,0,1,.1.3.4.4,0,0,1-.8,0h0l-.2-.5a.8.8,0,0,0-.2-.6,1.1,1.1,0,0,0-.6-.7,5.5,5.5,0,0,0-2.8-.6"/><path d="M193.7,58.7c0,.2-.1.5-.3.5a.4.4,0,0,1-.5-.2c-.1-.2,0-.2,0-.2v-.2c0-.2.1-.4.1-.7a45.4,45.4,0,0,0,1.2-5c.3-1.7.2-3.7.7-5.6a34.2,34.2,0,0,1,1.8-5.4,14.8,14.8,0,0,1,2.1-3.7,11.2,11.2,0,0,1,1.3-1.6l.7-.8.2-.3.8-.9.8-.7.6-.6a4.1,4.1,0,0,1,1.1-.7l1.5-.9.9-.4.7-.2h1.2a.6.6,0,0,1,.5.2,1.3,1.3,0,0,1,.1.6,2.1,2.1,0,0,1-.2.6c0,.3-.2.4-.5.3a.4.4,0,0,1-.2-.5,4.3,4.3,0,0,1,.1-.5h0s.1.1,0,.1h-.8l-.6.2-.8.4a5.5,5.5,0,0,0-1.5.8l-.9.6-.7.6-.7.6-.7.9-.3.4-.7.7-1.3,1.6a13.7,13.7,0,0,0-1.9,3.6,32,32,0,0,0-1.8,5.2c-.4,1.8-.4,3.7-.7,5.5a42.1,42.1,0,0,1-1.2,5.1c0,.2-.1.5-.1.6v.2h0s-.1-.1,0-.1m-.8,0a.4.4,0,1,1,.8.2c0,.1.1,0-.1.2a.5.5,0,0,1-.6.1c-.2-.2-.2-.5,0-.6s-.1.1-.1,0,0,.1,0,.1h0"/><path d="M212.2,32.7c.1-.2.4-.2.6-.1s.3.3.1.5.1,0,.1,0h0a.4.4,0,0,0,.1.3l.7,1.1c1,1.7,1.7,3.9,2.7,5.7a16.3,16.3,0,0,1,1.1,2.3,16.2,16.2,0,0,0,1,1.8c.6,1.1,1.1,2.3,1.7,3.5s.7,1.6,1.1,2.3a13.4,13.4,0,0,1,.9,2.6c.2.6.6,1.1.9,1.9l.5,1.2.3.4a3,3,0,0,0,.3.6H224a.5.5,0,0,1,.6-.2c.2.1.3.3.1.5s-.1.4-.3.5H224c-.2,0-.3-.1-.3-.2a2.1,2.1,0,0,1-.4-.6l-.3-.5a6.1,6.1,0,0,1-.5-1.2,20,20,0,0,1-1-2.1,12.5,12.5,0,0,0-.9-2.5l-1-2.2c-.7-1.2-1.2-2.5-1.7-3.5l-1.1-1.9a8.8,8.8,0,0,0-1-2.2c-1-1.9-1.7-4.1-2.7-5.7a8.6,8.6,0,0,0-.7-1,1.7,1.7,0,0,1-.2-.5.9.9,0,0,1,0-.7"/><path d="M193.9,56.3a.4.4,0,0,1,.4-.4.4.4,0,0,1,.4.4V57a8.6,8.6,0,0,1-.1,1.6,21.1,21.1,0,0,1-.2,2.5v1.1h0s-.1-.2-.1-.1-.1-.1,0-.1-.2-.1-.2,0-.2-.1-.1-.1h-.3c0-.1-.1.1-.1.1h0c0-.3.2-.4.5-.4s.4.2.3.4v.4l-.2.2a.4.4,0,0,1-.4-.2c-.1-.1-.1-.1-.1-.2V61a19.4,19.4,0,0,0,.2-2.4,9.2,9.2,0,0,0,.1-1.6v-.7m.8.4a.4.4,0,0,1-.8,0v-.4a.4.4,0,0,1,.8,0v.4"/><path d="M102.8,35.2c-.1.2-.3.2-.5.1a.4.4,0,0,1-.2-.5v-.2h.3c.2,0,.3.1.3.2h.1c.1.2,0,.3,0,.4a4.1,4.1,0,0,1-.2,1.5c-.2,1.4-.5,2.9-.7,4.1a65.7,65.7,0,0,1-1.6,6.7c-.4,1.4-.6,2.9-.9,4.6s-.6,2.3-.9,3.4a19.3,19.3,0,0,0-.4,2.7,20,20,0,0,0-.2,3.3.4.4,0,0,1-.4.4c-.3.1-.4-.1-.5-.3s.2-2.2.3-3.5a20.9,20.9,0,0,1,.4-2.8c.3-1.1.6-2.1.9-3.4a38.9,38.9,0,0,1,.9-4.7,61.7,61.7,0,0,0,1.6-6.5c.2-1.3.5-2.8.7-4.1a11.5,11.5,0,0,0,.2-1.4h.6c-.1,0,.1-.1.1-.1h0"/><path d="M121.6,34.1a.3.3,0,0,1,.5.1c.2.2.1.4,0,.6s.1-.2.1-.2,0-.1,0-.1h0a1.5,1.5,0,0,1,.1.7c.4,1.9,1.4,3.6,2,5.7l1.2,4.5a38.4,38.4,0,0,1,1.5,5.4,46.9,46.9,0,0,0,1.8,8.5c0,.2-.1.5-.3.5a.4.4,0,0,1-.5-.2,43.1,43.1,0,0,1-1.8-8.7,52.6,52.6,0,0,0-1.5-5.3l-1.2-4.5c-.5-2-1.5-3.7-2-5.8,0-.2-.1-.5-.1-.7v-.3h0c0-.1,0-.2.2-.3m.6.2c.1.3,0,.5-.3.5a.4.4,0,0,1-.5-.2h.1c0-.1.1,0,0,0h.2a.4.4,0,1,1,.2-.8c.3.1.3.2.3.3h0"/><path d="M.7,61.8c.2-.1.5-.1.6.1s.1.4-.1.6a.8.8,0,0,1-.5,0v-.8l.3-.8A65.7,65.7,0,0,1,3,54.6c.7-1.6,1.3-3.4,2.1-5a30.7,30.7,0,0,1,1.6-3.1l1-1.8.4-.5a11.9,11.9,0,0,1,.8-1.6c.3-.6.6-1,.7-1.3l.3-.6a14.5,14.5,0,0,1,.8-2.1c.5-1.3,1-2.6,1.5-3.6a5.9,5.9,0,0,0,.4-.8l.3-.7a3.8,3.8,0,0,1,.3-1l.3-.3a.3.3,0,0,1,.4,0,.6.6,0,0,1,.6.5c.2.1.1.4-.1.5s-.4.1-.5-.1h0a4.5,4.5,0,0,1-.2.8l-.3.9-.4.7c-.5,1-1.1,2.3-1.6,3.6s-.5,1.5-.7,2.1a4.3,4.3,0,0,1-.4.7c-.1.3-.4.7-.7,1.3a11.9,11.9,0,0,1-.8,1.6l-.4.5a18,18,0,0,1-1,1.8c-.6,1.1-1.2,2.1-1.6,3s-1.3,3.4-2,5-1.7,4.7-2.2,6.2a1.9,1.9,0,0,1-.2.8v.2h0s-.1-.2,0-.1H.7"/><path d="M20.2,32.2a.4.4,0,0,1-.6,0,.6.6,0,0,1,0-.6h.7l.2.3.3.5c.7,1.5,1.6,3,2.3,4.8s1.2,2.1,1.7,3.3,1.3,2.5,2,3.9a46.8,46.8,0,0,1,2.3,6c1.2,3.8,2.4,6.9,3.8,10.4.1.2,0,.5-.2.5a.4.4,0,0,1-.5-.2c-1.4-3.5-2.7-6.6-3.9-10.5a51.4,51.4,0,0,0-2.2-5.9c-.7-1.3-1.5-2.7-2-3.8s-1.3-2.1-1.8-3.4A34.2,34.2,0,0,0,20,32.8a1.7,1.7,0,0,1-.2-.5h.4"/><path class="cls-4" d="M5.4,11.8a.5.5,0,0,1-.6.1.5.5,0,0,1-.1-.6,2.6,2.6,0,0,0,.6-1.6A1.1,1.1,0,0,0,5,8.9a1.4,1.4,0,0,0-1.1,0c-.2,0-.4.2-.6.4s-.2.3-.2.6a2.7,2.7,0,0,0,.6,1l.8,1a1.6,1.6,0,0,1,.3,1.2,1.2,1.2,0,0,1-.7,1l-1.4.4a3.8,3.8,0,0,1-2.6-.4.6.6,0,0,1,0-.6c.1-.2.4-.2.6-.1s1.1.4,1.9.3l1.1-.3L4,13a1.1,1.1,0,0,0-.2-.7L3,11.4a3.3,3.3,0,0,1-.7-1.3,1.5,1.5,0,0,1,.5-1.5,1.9,1.9,0,0,1,.9-.5,1.9,1.9,0,0,1,1.8.2,1.8,1.8,0,0,1,.6,1.4,3.3,3.3,0,0,1-.7,2.1"/><path class="cls-4" d="M10.1,10c.1-.3.3-.4.5-.3s.4.2.3.4a2.2,2.2,0,0,1-.3,1,15.4,15.4,0,0,1-.5,1.7c-.2.6-.3,1.3-.5,2.1s-.5,3.3-.7,4.8-.1,1.1-.1,1.5a1.5,1.5,0,0,1-.1.7v.2h0c0,.1,0,.2-.3.3h.2c-.1.1.1-.1,0-.1h.1v.2c0,.2-.3.3-.5.3a.5.5,0,0,1-.2-.6h0c0-.2-.2-.9-.3-1.6l-.3-2.9a16.2,16.2,0,0,1,.4-5.9A4.7,4.7,0,0,1,9.6,9.4a5.1,5.1,0,0,1,2.2-.9h.7a.8.8,0,0,1,.6.4,1.9,1.9,0,0,1,.2,1.5,5.9,5.9,0,0,1-.4,1.7c-.3.5-.5,1.1-.8,1.5a2.3,2.3,0,0,1-1.1.9c-.3,0-.5-.1-.5-.4s.1-.4.3-.4l.6-.6a4,4,0,0,0,.7-1.3,4.2,4.2,0,0,0,.4-1.5,1.2,1.2,0,0,0-.1-.9h-.6a4.2,4.2,0,0,0-3.3,2.8,16.4,16.4,0,0,0-.4,5.6l.3,2.8a3.6,3.6,0,0,0,.2,1,1,1,0,0,1,0,.9l-.7-.3h0v-.2l.3-.2H8c.1,0-.1.2-.1.1s0,.1,0,.1h0v-.2a5.6,5.6,0,0,0,.1-.7c0-.4.1-.9.1-1.5s.4-3.3.7-4.9.3-1.5.5-2.1l.8-2.6"/><path class="cls-4" d="M18.8,10.4a.4.4,0,0,1,.5-.3.5.5,0,0,1,.3.5c-.4,1.3-.4,2.8-.7,3.8a.5.5,0,0,1-.5.3.5.5,0,0,1-.3-.5,26.3,26.3,0,0,1,.7-3.8"/><path class="cls-4" d="M20.5,6.2a.5.5,0,0,1-.9.1V6.1h0c0-.1.2.1.1,0h.8c.1,0-.2.1-.1,0h-.1a.3.3,0,0,1,.1-.2.1.1,0,0,0-.1-.1h-.1l-.3.2c-.1.1-.2.2-.1.3s-.1.5-.3.5a.3.3,0,0,1-.5-.3,1,1,0,0,1,.4-1.1.5.5,0,0,1,.5-.3h.6l.5.5a.7.7,0,0,1,.2.6c0,.2-.1.3-.1.4l-.2.3h-.4l-.6-.2-.3-.3c-.1,0-.2-.2-.2-.4s.1-.2.1-.3,0-.2.2-.3h.5l.2.2c0,.2,0,.3.1.4"/><path class="cls-4" d="M27.7,4c0-.2.3-.3.5-.3a.5.5,0,0,1,.3.5L28,5.8l-.8,2.6-.6,2.9a20,20,0,0,0-.5,2.7,1.1,1.1,0,0,0,0,.6h-.4c.1,0-.2.1-.1.1h-.2c.1,0,0,.1,0,.1h0c0-.2.1-.4.1-.8a3.9,3.9,0,0,0-.2-1.8,3.2,3.2,0,0,0-1.1-1.2l-.5-.3h-.2l-.3-.2.6-.6h.8a7.5,7.5,0,0,1,2.8.7.4.4,0,0,1,.2.5.5.5,0,0,1-.5.3,6.7,6.7,0,0,0-2.6-.7H23.4l-.2-.2c-.2-.1-.2-.4,0-.6h.9l.6.4a4,4,0,0,1,1.4,1.7,5,5,0,0,1,.2,2.1,2.2,2.2,0,0,1-.1.9v.3l-.3.2c-.1.1-.3,0-.4-.1v-.2a1.4,1.4,0,0,1,0-.9,11.9,11.9,0,0,1,.5-2.8l.6-2.9c.3-1,.6-1.9.8-2.7A12.6,12.6,0,0,0,27.7,4"/><path class="cls-4" d="M30.4,10.6a.4.4,0,0,1-.4-.8l1.5-.6a4.1,4.1,0,0,1,1.9,0,2.1,2.1,0,0,1,1,1.1,1.6,1.6,0,0,1-.4,1.3l-.9,1.1L32,14a4.4,4.4,0,0,0-.9,1.6,2,2,0,0,0,.2.9.6.6,0,0,0,.6.1,2,2,0,0,0,1-.9c.2-.2.4-.3.6-.1a.3.3,0,0,1,.1.5,3,3,0,0,1-1.5,1.3,1.4,1.4,0,0,1-1.4-.4,1.9,1.9,0,0,1-.4-1.5,4.5,4.5,0,0,1,1.1-2,6.9,6.9,0,0,1,1.1-1.3l.8-1.1a1.5,1.5,0,0,0,.3-.6l-.5-.5a3.9,3.9,0,0,0-2.7.6"/><path class="cls-4" d="M31.3,13.7a.5.5,0,0,1-.2.6.5.5,0,0,1-.5-.3h0l-.4-.4c-.2,0-.3-.2-.4-.3a.3.3,0,0,1-.1-.2v-.4c.2-.2.3-.3.5-.3H32a18.6,18.6,0,0,1,3.3.4.3.3,0,0,1,.3.5c0,.2-.2.3-.4.3l-3.3-.4H30.4c0,.1.1-.1.1,0h0v.2l.4.2.3.4"/><path class="cls-4" d="M97.8,9.7a.4.4,0,0,1-.2-.5.5.5,0,0,1,.5-.3h-.2l.2-.2a1.7,1.7,0,0,0,.1-1c0-.2-.1-.3-.3-.4a1.7,1.7,0,0,0-1.2.1,1.2,1.2,0,0,0-.7,1,1.1,1.1,0,0,0,.3.6l1,1a4.2,4.2,0,0,1,.9,1.4,2.6,2.6,0,0,1,0,1.5A2.3,2.3,0,0,1,97,14.1a4.3,4.3,0,0,1-1.6.5H93.9l-.7-.4a1.9,1.9,0,0,1-.2-.8.4.4,0,0,1,.4-.4.5.5,0,0,1,.4.5h.1l.2.2h1.2a3.3,3.3,0,0,0,1.4-.4,1.8,1.8,0,0,0,.7-.8,1.7,1.7,0,0,0,0-1,3,3,0,0,0-.7-1,9.4,9.4,0,0,0-1-1,1.7,1.7,0,0,1-.5-1.3,2,2,0,0,1,1.1-1.6,2.8,2.8,0,0,1,2-.2A1.4,1.4,0,0,1,99,7.6,2.2,2.2,0,0,1,98.8,9c0,.2-.1.3-.3.5l-.2.2c-.1,0-.3.1-.5,0"/><path class="cls-4" d="M101,13.1a.3.3,0,0,1-.3.5.5.5,0,0,1-.5-.4h0v-.3a9.2,9.2,0,0,0,.1-1.8c0-.5-.1-1-.1-1.4l-.3-.8a.7.7,0,0,1-.1-.5l.2-.3h.3a13.9,13.9,0,0,1,3.4.2c.2.1.4.3.3.5a.3.3,0,0,1-.5.3,12.1,12.1,0,0,0-3.1-.2h.1c-.1,0,.1-.3.1-.2h0a3.4,3.4,0,0,1,.4,1c0,.5.1,1,.1,1.5v1.8c0,.2-.1.2-.1.3h0m3.1-11a.4.4,0,0,1,.4-.4c.2.1.4.2.4.5h0l-.5,1.1a23.5,23.5,0,0,0-1,2.2c-.5,1-1,2-1.4,3a14.2,14.2,0,0,0-.8,3.5,4.1,4.1,0,0,0-.1,1H101a.4.4,0,0,1-.4.4.5.5,0,0,1-.4-.5h0a8.7,8.7,0,0,0,.2-1,12.3,12.3,0,0,1,.9-3.7c.4-1.1.9-2.1,1.3-3.1s1.4-2.9,1.5-3.1h0m.6.8c-.1.2-.3.4-.5.3a.3.3,0,0,1-.3-.5,4.3,4.3,0,0,1,.1-.5.3.3,0,0,1,.1-.2h0a.5.5,0,0,1,.6-.1c.2.1.2.4.1.6h0a4.3,4.3,0,0,0-.1.5"/><path class="cls-4" d="M109.7,7.8c.2.1.2.4.1.6a.7.7,0,0,1-.6.1h-.4a3.5,3.5,0,0,0-1,.8,4.1,4.1,0,0,0-1.2,1.8,1.7,1.7,0,0,0-.1,1.2,1.8,1.8,0,0,0,.5.7,3.1,3.1,0,0,0,1.4.1,5.6,5.6,0,0,0,2.1-.8.4.4,0,0,1,.5.2c.1.2.1.4-.1.5a7.2,7.2,0,0,1-2.4.9,3.5,3.5,0,0,1-1.8-.2,1.9,1.9,0,0,1-1-1.2,2.5,2.5,0,0,1,.1-1.7,7,7,0,0,1,1.4-2.1,4.7,4.7,0,0,1,1.2-.9l.6-.2.7.2"/><path class="cls-4" d="M110.1,9.9a.3.3,0,0,1-.5.3.5.5,0,0,1-.3-.5h0s.1.1,0,.1.2.2.1.1h.4l-.3.3-.7.6-.3.2H108c-.3,0-.3-.3-.3-.5a.5.5,0,0,1,.6-.2h.1l.5-.5.5-.4h.2a.4.4,0,0,1,.4.2c.3.2.2.4.1.5"/><path class="cls-4" d="M113.9,9a.3.3,0,0,1,.5,0c.2.1.2.4,0,.6a3,3,0,0,0-1,1.7,1.7,1.7,0,0,0-.1.7.5.5,0,0,0,.2.4c.2.1.2.4.1.6s-.4.2-.6,0a1.1,1.1,0,0,1-.5-.9,2.2,2.2,0,0,1,.1-1.1,4.4,4.4,0,0,1,1.3-2"/><path class="cls-4" d="M115.4,6.5a.4.4,0,0,1-.6.3c-.2,0-.3-.3-.2-.5a4.4,4.4,0,0,0-.3-.8,4.3,4.3,0,0,1-.1-.5c0-.2,0-.3.1-.4a.3.3,0,0,1,.3-.3.5.5,0,0,1,.6.2c0,.2-.1.5-.3.5h.1c0,.1.1.2.1.4a2.1,2.1,0,0,1,.3,1.2"/><path class="cls-4" d="M116.3,4.7a.5.5,0,0,1-.3.5c-.3,0-.5-.1-.5-.3s.1.1,0,.1h.2c-.1,0,.2.1.1.1h0l-.5.4a.8.8,0,0,0-.2.5h0V5.8c.1.1-.1,0,0,0h0V5.5c.1-.1.1-.1,0-.1h-.5l-.6.4-.2.3h.3a.4.4,0,0,1,.2.5c-.1.3-.3.4-.5.3l-.6-.4a.8.8,0,0,1-.2-.5,1.4,1.4,0,0,1,.5-1,1.9,1.9,0,0,1,.9-.5,1.2,1.2,0,0,1,1,0l.5.5a.6.6,0,0,1,0,.6c-.1.3-.2.7-.6.8h-.6l-.3-.2a.4.4,0,0,1-.1-.5,2.5,2.5,0,0,1,.5-.8l.6-.5h.5c.1,0,.4.1.4.3"/><path class="cls-4" d="M125.4,1.4c.1.2-.1.4-.3.5s-.4-.1-.5-.3h.1c-.1-.1.2.2.1.2h.1L124,3a29.8,29.8,0,0,0-2.4,3.5,14.8,14.8,0,0,0-1.5,3.5,5.1,5.1,0,0,0-.3,2,.7.7,0,0,0,.1.5h.7a2.7,2.7,0,0,0,1.2-.3,4.9,4.9,0,0,1,2.3-.4.3.3,0,0,1,.3.5c0,.2-.3.3-.5.3a7.7,7.7,0,0,0-1.9.4,2.8,2.8,0,0,1-1.3.3,1.7,1.7,0,0,1-1.2-.2.9.9,0,0,1-.4-.6,1.5,1.5,0,0,1-.1-.7,5,5,0,0,1,.3-2.3,15.9,15.9,0,0,1,1.6-3.6,22.4,22.4,0,0,1,2.5-3.6,13.5,13.5,0,0,1,.9-1.1l.4-.3h.3a.4.4,0,0,1,.4.3"/><path class="cls-4" d="M169.5,5.4a.4.4,0,0,1,.8,0h0a2.6,2.6,0,0,1-.4,1,9.8,9.8,0,0,0-.4,2.1,4.1,4.1,0,0,0,.1,1.2,1,1,0,0,0,.5.4,3,3,0,0,0,1.4-.6,16.6,16.6,0,0,0,1.8-1.9l.7-.8c.1-.1.1-.2.3-.2s.1-.1.2-.1h.3l.2.2V8.4a1.9,1.9,0,0,0,.4,1.2h.3c.1.1.2,0,.4,0a26,26,0,0,0,2.8-2.4,3.3,3.3,0,0,1,1-.6c.1,0,.3-.1.5,0a.7.7,0,0,1,.6.2,1.3,1.3,0,0,1,.2.8,1.9,1.9,0,0,1-.2.8,6.6,6.6,0,0,1-.4,1.1v.3h-.1c.1,0,0-.2,0-.1h.6c.7-.3,1.7-1.2,2.6-1.7l.8-.2a1.5,1.5,0,0,1,.6.4,1.3,1.3,0,0,1,.1.6,3.8,3.8,0,0,1-.1,1.5v.8a.4.4,0,0,1-.2.5c-.2.2-.4.1-.5-.1s-.1-.9-.1-1.4a2.6,2.6,0,0,0,.1-1.2.4.4,0,0,0-.1-.3h-.2a12.2,12.2,0,0,1-2.8,1.7l-.8.2h-.4l-.4-.4a1,1,0,0,1,.2-.7c.1-.4.3-.8.4-1.1s.1-.4.1-.6V7.5h-.3l-.7.5a17.6,17.6,0,0,1-3,2.4l-.8.2a2,2,0,0,1-.8-.4,2.6,2.6,0,0,1-.6-1.8V7.2h0s.1.1,0,.1h.1c0-.1.3,0,.2,0h0l-.6.7a12.9,12.9,0,0,1-2,2.1,3,3,0,0,1-1.9.7,1.4,1.4,0,0,1-1.1-.9,2.7,2.7,0,0,1-.2-1.6,7.8,7.8,0,0,1,.5-2.3c.1-.4.3-.8.3-.9h0m-4.8,8.5a.5.5,0,0,1-.6.2c-.2-.1-.2-.4-.1-.6l1.1-1.8L167.9,8l1.2-1.9a4.3,4.3,0,0,1,.4-.7V5.2h.1a.1.1,0,0,1,.1-.1c.1-.2.4-.1.5,0s.2.5,0,.6h.1c0,.1-.1.1-.1.2l-.4.7-1.3,2c-.9,1.4-2,2.7-2.7,3.7a11.1,11.1,0,0,0-1.1,1.7"/><path class="cls-4" d="M198.6,7.1c0,.2-.3.3-.5.2s-.3-.3-.2-.5a.6.6,0,0,0-.1-.6.9.9,0,0,0-.6-.3H196a1.2,1.2,0,0,0-.8.9c-.1.1,0,.4.2.7l1,1.1a1.4,1.4,0,0,1,.3,1.1,1.1,1.1,0,0,1-.6.9l-1.1.5a3.8,3.8,0,0,1-1.5.1.7.7,0,0,1-.6-.2.5.5,0,0,1-.2-.4c-.1-.1,0-.3,0-.4a.4.4,0,0,1,.5-.2.4.4,0,0,1,.3.5h.1a2.6,2.6,0,0,0,1.2-.1,2,2,0,0,0,.8-.4.7.7,0,0,0,.3-.3.6.6,0,0,0-.2-.5l-.9-1.1a1.6,1.6,0,0,1-.4-1.5,2,2,0,0,1,1.4-1.4,3.3,3.3,0,0,1,1.4-.1,1.6,1.6,0,0,1,1.3.6,1.4,1.4,0,0,1,.1,1.4"/><path class="cls-4" d="M200.7,6.1c-.1-.2-.1-.5.1-.6a.6.6,0,0,1,.6.1,2,2,0,0,1,.1.7l-.3.7c-.2.4-.4.9-.7,1.4a1.9,1.9,0,0,0-.2,1.2h0c.1.1.2.1.4,0a5.1,5.1,0,0,0,2.1-1.5c.1-.2.4-.2.6-.1a.6.6,0,0,1,0,.6,5.4,5.4,0,0,1-2.5,1.8H200a1,1,0,0,1-.5-.8,2.7,2.7,0,0,1,.3-1.7c.2-.5.5-1,.7-1.4l.2-.5h0"/><path class="cls-4" d="M204.9,7.5h-.6a.5.5,0,0,1,0-.6h.6c.1,0,.2.2.2.3s-.1.2-.1.3h-.1l-.6.7c-.5.8-1.4,1.8-2.3,3.1s-2.1,2.9-3,4.3-1.7,3.2-2.8,4a.5.5,0,0,1-.6-.1c-.1-.2-.1-.5.1-.6s1.5-2.1,2.6-3.7,2-3,3-4.4l2.4-3.1.6-.7h0c0-.1.1.2,0,.1l.2.2h.4"/><path class="cls-4" d="M205.5,12.3a.3.3,0,0,1-.5.3c-.2,0-.3-.2-.3-.4a2.6,2.6,0,0,1,.7-1.5l1.4-2L208.3,7l.6-.7.5-.2h.5c.3.2.3.4.4.5v.5c0,.4-.1.8-.1,1.1a5.3,5.3,0,0,0,.1,1.3h0l.8-.4,1.2-.9,1.2-1a.9.9,0,0,1,.6-.3h.4l.3.2a.7.7,0,0,1,.2.6l-.2.5a4.2,4.2,0,0,1-.4,1l-.2.6h.4l.9-.6,1.1-.5a.8.8,0,0,1,.8.1,1,1,0,0,1,.4.5,3.2,3.2,0,0,1-.2,2.2.4.4,0,0,1-.5.2.4.4,0,0,1-.3-.5,2.3,2.3,0,0,0,.2-1.6h-.2l-.9.5-.9.6-.5.2a.4.4,0,0,1-.5,0l-.4-.2a.8.8,0,0,1-.2-.5,3.2,3.2,0,0,1,.3-.9l.4-1a.4.4,0,0,1,.1-.3h.1l-.3.2-1.1.9-1.4,1a1.7,1.7,0,0,1-1.3.5.9.9,0,0,1-.5-.3c-.1-.2-.2-.3-.2-.5a6.6,6.6,0,0,1-.1-1.5c0-.3.1-.7.1-1V6.9h0s.1.1,0,.1h-.1l-.5.5-1.4,1.8a10.5,10.5,0,0,0-2,3"/><path class="cls-4" d="M220,13.4a.5.5,0,0,1-.1.6.5.5,0,0,1-.6-.2,1.1,1.1,0,0,1-.1-1l.5-1.1a11.4,11.4,0,0,1,1.5-2.3A6.2,6.2,0,0,1,222.6,8l.7-.2a.9.9,0,0,1,.7.1.9.9,0,0,1,.3.8v.7a2,2,0,0,1-.2.9.4.4,0,0,0,.1.3h-.1l.5-.3L226,9.2l1.2-1a1.1,1.1,0,0,1,.7-.3.3.3,0,0,1,.4,0c.2,0,.3.2.4.3v.4l-.2.3-.3.4-.6,1.1h-.1s-.1-.1,0-.1h.7l1.3-.9.7-.3a.9.9,0,0,1,.8.2,1.1,1.1,0,0,1,.3.7v.7a10.4,10.4,0,0,1-.1,1.1c0,.2-.1.4-.3.4a.3.3,0,0,1-.5-.3c0-.4.1-.8.1-1.2V9.6h-.6a7.3,7.3,0,0,1-1.3.9l-1,.2h-.5l-.2-.2c-.1-.1-.1-.2-.1-.4a4.6,4.6,0,0,1,.7-1.4l.3-.4V8.3h0v.2h.2c-.1,0,0,.1,0,.1l-.4.2-1.2.9-1.4,1.1-.6.4h-.8a1.2,1.2,0,0,1-.4-1.1,5.1,5.1,0,0,0,.2-.9V8.7h-.1l-.4.2c-.3.1-.7.6-1.1,1.1a14.3,14.3,0,0,0-1.5,2.2l-.4.9v.4"/><path class="cls-4" d="M239.9,8c-.1.2-.3.4-.5.3a.3.3,0,0,1-.3-.5h0l-.7.3a6.6,6.6,0,0,0-.9,1.5,1.9,1.9,0,0,0-.1.8V11l.5.4h1.2c.6,0,.8,0,1.1-.2a.4.4,0,0,1,.6,0,.5.5,0,0,1-.1.6,1.8,1.8,0,0,1-1.5.4,3.1,3.1,0,0,1-1.6-.2,1.6,1.6,0,0,1-.9-.6,2.2,2.2,0,0,1-.1-1.1,2,2,0,0,1,.2-1,4.9,4.9,0,0,1,1.1-1.8,3.4,3.4,0,0,1,1.2-.6.7.7,0,0,1,.6.3,1,1,0,0,1,.2.7"/><path class="cls-4" d="M241,8.3a.5.5,0,0,1-.4.5.4.4,0,0,1-.4-.4h0s.1.1,0,.1h.3L240,9a.3.3,0,0,1-.5,0c-.2-.1-.2-.4-.1-.6l.7-.6h.6a.9.9,0,0,1,.3.5"/><path class="cls-4" d="M246.4,12.8c0,.2-.3.3-.5.2a.4.4,0,0,1-.2-.5h0V7.7c.1-.2,0-.4.1-.7a1.4,1.4,0,0,1,1-.7H248a7,7,0,0,1,2.1-.1,2.7,2.7,0,0,1,1.3.7,3.5,3.5,0,0,1,.6,1.4,6.6,6.6,0,0,1-.1,1.4,3.7,3.7,0,0,1-.5,1.1l-.5.3h-.6v-.3a1.9,1.9,0,0,1,.5-1.1,6,6,0,0,1,3.1-2.1,2.5,2.5,0,0,1,1.2-.1.7.7,0,0,1,.4.5,1.3,1.3,0,0,1,.1.6c0,.3-.1.8-.1,1.1l-.3,1.1v.3h0v-.2a.4.4,0,0,1-.5.7c-.3-.2-.2-.4-.2-.6a.8.8,0,0,1,.1-.4l.3-1c0-.4.1-.8.1-1V8.1H254a4.8,4.8,0,0,0-2.6,1.8l-.3.4H251s-.2-.2-.2-.1h-.1a2,2,0,0,0,.4-.8,4.1,4.1,0,0,0,.1-1.1,2.5,2.5,0,0,0-.4-.9,1.3,1.3,0,0,0-.9-.5,5.7,5.7,0,0,0-1.8.1H247l-.4.2v.5a4.7,4.7,0,0,0,0,1.2,16.2,16.2,0,0,1-.1,2.2v1.5h-.1M251.2.7a.4.4,0,0,1,.1.6c-.1.1-.4.2-.5.1h.4a.1.1,0,0,0-.1.1,5.6,5.6,0,0,0-.5.8c-.4.8-.9,1.8-1.4,3a26.3,26.3,0,0,0-1.5,3.5c-.5,1.3-.9,2.3-1.1,3a2,2,0,0,0-.1.7h0c0,.3-.1.5-.4.5s-.4-.1-.4-.3h-.1v-.2a2.5,2.5,0,0,1,.1-.8,30.7,30.7,0,0,1,1.1-3.1c.5-1.1,1-2.4,1.5-3.6l1.4-3,.6-.9.2-.2c0-.1.1-.1.2-.2h.4"/><path class="cls-4" d="M257.7,5.3c0,.3-.2.4-.5.4s-.3-.2-.3-.5-.1-.1,0-.5.1-.2.2-.2h.4l.5.2c.2.2.3.4.2.6a.5.5,0,0,1-.6.1h0c-.1,0,.1-.1,0-.1h.1v.3"/><path class="cls-4" d="M264.3,6.7c.1.2-.1.4-.3.4s-.4-.1-.5-.3-.1-.3-.3-.4a1.4,1.4,0,0,0-1.1,0l-.8.2-.7.3h.1s.1-.2.1-.1h0v.2a.4.4,0,0,1-.1.3h-.1l-.3.2-.3.2c-.1,0,0-.1,0-.1h0v.3a1.7,1.7,0,0,0,.2.5,1,1,0,0,1,.1.7c0,.1-.1-.1,0-.1h.3l.2.3a.4.4,0,0,1,.1.3v.3h0l.2.2c.1.2.3.3.4.6a1.5,1.5,0,0,1-.2.9,1,1,0,0,1-.8.6l-.9.2a3.8,3.8,0,0,1-1.5.1,1,1,0,0,1-.7-.2.8.8,0,0,1-.2-.8.4.4,0,0,1,.4-.4.7.7,0,0,1,.4.5h1.4l.8-.2c.3-.1.4-.2.4-.3s.1-.1.1-.2l-.3-.3a.7.7,0,0,1-.3-.7V9.5h-.3a.3.3,0,0,1-.3-.3V8.8h0l-.3-.8V7.5a1,1,0,0,1,.2-.7l.5-.2h.1c0-.1,0-.2.2-.4l.8-.3.9-.2a2.9,2.9,0,0,1,1.6,0,1.5,1.5,0,0,1,.8,1.1"/><path class="cls-4" d="M266.1,8.7a.5.5,0,0,1,.6-.1c.2.2.2.5,0,.6a9.7,9.7,0,0,0-1,1.5.8.8,0,0,0-.1.4h-.1c.1,0-.1-.2,0-.1h.2A7.5,7.5,0,0,0,268,9a62.6,62.6,0,0,0,4.5-5.7l1-1.6c.2-.6.4-.9.4-1h0c0-.1.2.1.1.1h.1a3.7,3.7,0,0,0-1.3,1.1,7.1,7.1,0,0,0-1,1.4,5.3,5.3,0,0,0-.5,2.5c0,1.3,1,2.2,1.6,3.2a2.1,2.1,0,0,1,.5,1.2,6.2,6.2,0,0,1-.7,2.3l-.6.8-.3.4a.6.6,0,0,1-.6,0,.5.5,0,0,1,0-.6,6.5,6.5,0,0,0,1.4-2.8l-.3-.9L271.2,8a4.1,4.1,0,0,1-.7-2.2,5.1,5.1,0,0,1,.6-2.9,9.1,9.1,0,0,1,1.1-1.6A5.1,5.1,0,0,1,273.8.1a.6.6,0,0,1,.7,0c.1.1.2.2.2.3V.8c0,.4-.3.7-.5,1.2l-1,1.7a43.4,43.4,0,0,1-4.7,5.9,7.5,7.5,0,0,1-2.5,2.1h-.6l-.5-.3a.5.5,0,0,1-.1-.6c0-.2.1-.3.1-.5a6.6,6.6,0,0,1,1.2-1.7"/><path class="cls-5" d="M8,60.9c0-.2.3-.3.5-.3a.5.5,0,0,1,.3.5c-.1.2-.1.3-.3.4a.5.5,0,0,1-.5,0c-.1-.1-.1-.1-.1-.2s-.1-.4-.2-.6a7.6,7.6,0,0,1,1.2-3.8,12.2,12.2,0,0,1,4.2-4.8A9.8,9.8,0,0,1,17.8,51a3.9,3.9,0,0,1,3.1,1.6,3.5,3.5,0,0,1,.6,1.4,3.3,3.3,0,0,1-.3,1.5.5.5,0,0,1-.6.2c-.2-.2-.3-.4-.1-.6a3,3,0,0,0,.2-1,2.4,2.4,0,0,0-.5-1,3,3,0,0,0-2.4-1.3,8.4,8.4,0,0,0-4.2,1,12.5,12.5,0,0,0-4,4.5,6.4,6.4,0,0,0-1,3.3V61h0c0,.1-.1-.1-.1-.1s-.3,0-.2,0-.3.1-.2,0H8"/><path class="cls-5" d="M23.3,53c.1-.2.4-.2.6,0a.5.5,0,0,1-.1.6h.1c0,.1.1,0,.1,0h0c-.1.1-.1.1-.1.2v.7a25.9,25.9,0,0,0,.9,3.5,3.6,3.6,0,0,1,.2,1.7,1,1,0,0,1-.4.7l-.7.2a4.8,4.8,0,0,1-1.7,0l-1.6-.5-.6-.3a.9.9,0,0,1-.3-.6.3.3,0,0,1,.3-.5.7.7,0,0,1,.5.4h0l.4.3,1.5.4a3.3,3.3,0,0,0,1.4,0h.3a.1.1,0,0,0,.1-.1A4.2,4.2,0,0,0,24,58c-.2-1.3-.9-2.5-.9-3.7v-1h.1s-.1,0,.1-.2"/><path class="cls-5" d="M105,63.7a.4.4,0,0,1,.1.6c-.1.2-.3.2-.5.1a1,1,0,0,1-.4-.5,1.3,1.3,0,0,1-.1-.6l.6-1.2a31.9,31.9,0,0,1,2.4-3.5c.6-.7,1.1-1.4,1.7-2a8.5,8.5,0,0,1,4.2-2.5,6.6,6.6,0,0,1,3.7,0,3.8,3.8,0,0,1,2.4,2,3.2,3.2,0,0,1-.1,2.7.4.4,0,0,1-.8-.4,2,2,0,0,0,.1-2,2.6,2.6,0,0,0-1.8-1.5,6.1,6.1,0,0,0-3.3-.1,9.6,9.6,0,0,0-3.8,2.4l-1.7,1.9a29.2,29.2,0,0,0-2.3,3.4,1.9,1.9,0,0,0-.4,1c-.1.1,0,.1,0,.1h0"/><path class="cls-5" d="M121.1,57c0-.2.3-.3.5-.3a.4.4,0,0,1,.2.6,14.5,14.5,0,0,0-.4,2.5v.9a4.2,4.2,0,0,1,.2.6c0,.1.1.2.1.4a.6.6,0,0,1,.2.5.5.5,0,0,1-.2.4h-1.2a10.1,10.1,0,0,1-2.4-1l-1-.7-.3-.4c0-.1-.1-.3,0-.5s.2-.4.4-.3a.5.5,0,0,1,.4.5h.1l.8.6a9.5,9.5,0,0,0,2.1.9h.6a.1.1,0,0,0,.1-.1h-.2c.1-.1,0,.2,0,.1h0a2.5,2.5,0,0,1-.3-.7c-.1-.2-.1-.5-.2-.7v-1a11.6,11.6,0,0,1,.5-2.8"/><path class="cls-5" d="M201.1,63.4c.2.1.4.3.3.5s-.3.4-.5.3a.8.8,0,0,1-.5-.5,1.3,1.3,0,0,1-.1-.6,4.2,4.2,0,0,1,.4-1.5,20.2,20.2,0,0,1,2.1-3.7,10.7,10.7,0,0,1,4.9-4.1,3.8,3.8,0,0,1,2.8.3,6.9,6.9,0,0,1,1.8,1.6,5.9,5.9,0,0,1,1.4,3.6.4.4,0,0,1-.4.4c-.3,0-.4-.2-.4-.5a5.6,5.6,0,0,0-1.3-3,5,5,0,0,0-1.5-1.4,3,3,0,0,0-2.1-.2,9.5,9.5,0,0,0-4.5,3.8,14.1,14.1,0,0,0-2,3.5,2.4,2.4,0,0,0-.4,1.2v.3h0"/><path class="cls-5" d="M216.9,58.4a.3.3,0,0,1-.3.5.4.4,0,0,1-.5-.2h.2c-.1-.1.2,0,.2,0h.1c-.1,0,0-.1,0-.1h0a2.9,2.9,0,0,0-.4.8,12.7,12.7,0,0,0-.7,2.4c-.1.4-.1.9-.2,1.2s-.1.4-.3.6h-.7c-.5-.2-.7-.7-1-.9a8.7,8.7,0,0,0-1.4-.8l-.8-.3H211s.2-.1.1,0l.2-.2c-.1.2-.4.4-.6.3a.4.4,0,0,1-.2-.5c0-.2.1-.3.2-.3h.7l.9.4a5.5,5.5,0,0,1,1.5.8,5,5,0,0,1,.8.8h-.1c0-.2.1-.6.1-1.1a14.3,14.3,0,0,1,.9-2.7,2,2,0,0,1,.4-.8c.1-.1.1-.3.3-.3h.4c.2.1.2.2.3.3"/><path class="cls-5" d="M217.5,42.1a.5.5,0,0,1,.6-.1c.2.2.2.5,0,.6s.1-.1.1,0-.1-.3,0-.2-.2-.2-.1-.2h.3a11.9,11.9,0,0,0,2.4-1.3c1.1-.7,2.2-1.2,3.7-2a.4.4,0,0,1,.6.1.5.5,0,0,1-.2.6l-3.7,2a7,7,0,0,1-2.7,1.4,2.2,2.2,0,0,1-.8,0c-.1-.1-.3-.2-.3-.4s0-.2,0-.3v-.2"/><path class="cls-5" d="M236.7,35.2a.4.4,0,1,1,.5.7c-.1,0,.1-.2.1-.2h0v.7a2.9,2.9,0,0,0-.2.9c0,.1.1.1.1.2l.3.2a1,1,0,0,0,.6-.2l1-.6.7-.7.7-.2h.3a.5.5,0,0,1,.2.4.6.6,0,0,1-.1.6l-.3.5c0,.2-.1.3-.1.5h.3l.8-.3h.6a.8.8,0,0,1,.8.2,1,1,0,0,1,.2.7v.4a.1.1,0,0,0,.1.1h.2a.4.4,0,0,1,.3.7,1.8,1.8,0,0,1-1,.1,2.5,2.5,0,0,1-.4-.7v-.5h-.5a2.1,2.1,0,0,1-1.2.3l-.6-.2a.8.8,0,0,1-.4-.7,3.1,3.1,0,0,1,.2-.8.8.8,0,0,0,.2-.5.1.1,0,0,0,.1-.1h0s.2.2.1.2.2,0,.1,0h-.1l-.7.6-1.1.8a1.9,1.9,0,0,1-1.3.2,1.5,1.5,0,0,1-.6-.5,1.1,1.1,0,0,1-.3-.8,3.6,3.6,0,0,1,.2-1v-.6h0c0-.1,0-.1.2-.3m-.1.8a.5.5,0,0,1-.5.3.4.4,0,0,1-.3-.5,3.3,3.3,0,0,0,0-1h-.6a3.2,3.2,0,0,0-1.7,1.3,1.1,1.1,0,0,0-.3.8,4.1,4.1,0,0,0-.1,1h.2a.6.6,0,0,0,.6,0,6.2,6.2,0,0,0,1.9-1.5l.6-.7c.1-.1.1-.1.1-.2s0-.1.3-.2.4-.1.5.1a.5.5,0,0,1-.2.6s.2-.1.1-.1h0l-.2.2-.6.8a5.8,5.8,0,0,1-2.3,1.7,1.7,1.7,0,0,1-1,0,1,1,0,0,1-.8-.7,3.3,3.3,0,0,1,.1-1.4,2.2,2.2,0,0,1,.5-1.1,3.2,3.2,0,0,1,2.2-1.6h.8a1.5,1.5,0,0,1,.6.5,3,3,0,0,1,.1,1.6"/><path class="cls-5" d="M245.9,46.5c.2.1.4.3.3.5s-.2.4-.4.3h-.3a.3.3,0,0,1-.1-.2c-.1-.4-.2-1-.3-1.7s-.3-1.1-.5-1.6a2,2,0,0,0-.4-.8c-.1-.2-.3-.3-.5-.5s-.1-.2-.1-.4.2-.3.3-.4h.5l2.5-.5c.2-.1.4.1.5.3a.5.5,0,0,1-.3.5l-2.5.5h-.2V42c0,.1-.1-.1-.1-.1h0a1.7,1.7,0,0,1,.5.6,2.3,2.3,0,0,1,.5,1c.2.5.3,1.1.5,1.6a10.9,10.9,0,0,0,.3,1.7h0s-.1-.2,0-.1h-.3m6.3-17c-.1.3-.3.4-.5.3s-.4-.2-.3-.4v-.3h.1c-.1-.1.1.1.1,0s.2.1.1.1h-.1a15,15,0,0,0-1.6,2.8c-.5,1.1-1.1,2.5-1.6,3.9a38.6,38.6,0,0,0-1.7,5.5,24.1,24.1,0,0,0-.4,4.1v1.1c0,.1,0,.1-.1.3a.2.2,0,0,1-.2.2.4.4,0,0,1-.3-.7c0-.1-.2.1-.1.1s-.1,0-.1,0h0a4,4,0,0,1,0-1.1,18.4,18.4,0,0,1,.4-4.3c.5-1.8,1-3.7,1.7-5.6s1.1-2.8,1.7-4a13.8,13.8,0,0,1,1.7-2.9l.3-.3a.7.7,0,0,1,.6-.1.5.5,0,0,1,.3.5v.5"/><path class="cls-5" d="M259.6,28a.3.3,0,0,1,.5.1.3.3,0,0,1,0,.5,21,21,0,0,0-2.6,3.8l-1.4,2.7a5.2,5.2,0,0,0-.6,2.5.3.3,0,0,0,.3.3h.9a.4.4,0,0,1,.5.3.5.5,0,0,1-.4.5h-1.3a1.4,1.4,0,0,1-.8-.9,5,5,0,0,1,.7-3.1l1.4-2.7a25,25,0,0,1,1.6-2.4,5.5,5.5,0,0,1,1.2-1.6"/><path class="cls-5" d="M264.3,35.8a.5.5,0,0,1-.6.2.4.4,0,0,1-.2-.5,1.1,1.1,0,0,0,.1-.8l-.3-.2h-.7a2.1,2.1,0,0,0-1.5.8,4.1,4.1,0,0,0-1,1.6v.7h.6a7.9,7.9,0,0,0,2.2-.9l.7-.6.4-.3h.5c.1.1.2.2.2.3s0,.3-.1.4,0,.1-.1.2a.8.8,0,0,0-.2.4.9.9,0,0,0-.3.7l.2.4a1,1,0,0,0,.7-.1,2.9,2.9,0,0,0,1.2-.7l.8-.7.3-.4h.4q.3.1.3.3c.1.1.1.1.1.2s-.2.6-.2.8h.7c.5,0,.7.4.9.5s.2.5.8.2a.7.7,0,0,1,.6.3c.1.2,0,.4-.3.5a1.4,1.4,0,0,1-1.1.1l-.5-.4-.5-.4a1.5,1.5,0,0,1-.7,0,1,1,0,0,1-.5-.4.6.6,0,0,1-.2-.7c0-.2.1-.3.1-.4s.1-.1.1-.2h.1c-.1-.1.2.1.1,0s.2,0,.2.1.1-.1.1-.1h0l-.2.2-.9.9-1.4.8a1.6,1.6,0,0,1-1.5,0,1.3,1.3,0,0,1-.5-1.3,4.2,4.2,0,0,1,.4-1,.8.8,0,0,0,.2-.4.1.1,0,0,0,.1-.1h0c0-.1.1.2.1.1s.1.2.1.1.1.1.1.1h-.1l-.8.7a6.9,6.9,0,0,1-2.5,1,1.3,1.3,0,0,1-1.3-.3,1.4,1.4,0,0,1-.2-.6,1.6,1.6,0,0,1,0-.7,4.7,4.7,0,0,1,1.2-2,3.1,3.1,0,0,1,2.1-1.1l1,.2a1.1,1.1,0,0,1,.8.7,2.4,2.4,0,0,1-.1,1.3"/><path class="cls-5" d="M268,35.1a.4.4,0,0,1,.4.4.4.4,0,0,1-.4.4h.1c-.1,0-.2.2-.2.3a6.5,6.5,0,0,0-.4,1.3,7.4,7.4,0,0,0-.2,1.2v.4h0s-.1-.2-.1-.1h0l.6-.3.8-.7.4-.4h.3l.5.2a1.1,1.1,0,0,1,0,.6V39c-.1.1,0,.2,0,.3a.2.2,0,0,0,.2.2,2.2,2.2,0,0,0,1.5-.2.5.5,0,0,1,.5.3.4.4,0,0,1-.2.5,2.8,2.8,0,0,1-2.2.1c-.3-.1-.4-.3-.5-.6a1.4,1.4,0,0,1-.2-.7,4.3,4.3,0,0,1,.1-.5v-.2h0s.1.2.1.1.1.2.1.1h.2l-.3.2a3.6,3.6,0,0,1-.9.8l-.8.4h-.6l-.3-.3a2.1,2.1,0,0,1,0-.8,7.8,7.8,0,0,1,.2-1.4,7.4,7.4,0,0,1,.4-1.4l.3-.5a.7.7,0,0,1,.6-.4"/><path class="cls-5" d="M276,46.2a.4.4,0,0,1-.7.3h0l-.4-1.5-.8-1.7c-.4-.8-.9-1.3-1.2-1.9a2.5,2.5,0,0,1-.4-.7c0-.1-.1-.1-.1-.3a.7.7,0,0,1,.3-.6,2.2,2.2,0,0,1,1.4-.3,6.6,6.6,0,0,0,1.5-.3.7.7,0,0,1,.6.3.5.5,0,0,1-.3.5c-1.1.4-2.5.3-2.8.5s.1-.1,0-.1.1-.1.1-.1h0a.4.4,0,0,1,.1.3,1.7,1.7,0,0,0,.2.5,12.2,12.2,0,0,1,1.3,1.9,11.1,11.1,0,0,1,.9,1.9,7.4,7.4,0,0,1,.3,1.5h0m4.2-17.5a.5.5,0,0,1-.2.6.4.4,0,0,1-.5-.2h.2a6.4,6.4,0,0,0-.6,1.4c-.5,1.4-1.1,3.2-1.6,5.2s-.7,2.2-1,3.3A30.1,30.1,0,0,0,276,44v2.1h.1a.4.4,0,0,1-.4.4c-.3,0-.4-.1-.5-.4h.1V44a32.4,32.4,0,0,1,.5-5c.3-1.1.7-2.2,1-3.3s1.1-3.9,1.6-5.3l.7-1.5.4-.4a.7.7,0,0,1,.8.2"/><path class="cls-5" d="M283.7,34.4a.6.6,0,0,1,.3.6.5.5,0,0,1-.6.2h-.1c-.2,0-.3.2-.4.3L282,37a4.5,4.5,0,0,0-.3,1.6c0,.3-.1.5,0,.5s.1.3.3.4a1,1,0,0,0,.7.2,1.8,1.8,0,0,0,1.6-.9.4.4,0,0,1,.5-.2.5.5,0,0,1,.2.6,2.5,2.5,0,0,1-2.2,1.3,2.2,2.2,0,0,1-1.2-.2,1.4,1.4,0,0,1-.7-1,2,2,0,0,1-.1-.7,6.7,6.7,0,0,1,.5-1.9,5.4,5.4,0,0,1,.9-1.7l.7-.5a.8.8,0,0,1,.8-.1"/><path class="cls-5" d="M283.9,35.1a.5.5,0,0,1,.6-.1.4.4,0,0,1,0,.6c0,.1.1-.1.1-.1h0v.3c.1.2,0,.4,0,.6a1.2,1.2,0,0,1-.5.7.4.4,0,0,1-.5-.2.5.5,0,0,1,.2-.6h0v-.6c0-.1-.1-.1.1-.3m.8.3a.6.6,0,0,1-.3.6c-.2,0-.5-.1-.5-.3a.3.3,0,0,0-.1-.2h0s.1.1.1,0h0s.2.1.1.1a.4.4,0,0,1-.2-.5.5.5,0,0,1,.6-.2c.3.1.2.2.2.2h0v.2"/><path class="cls-5" d="M287.7,39.1a.4.4,0,0,1-.5.2.5.5,0,0,1-.2-.6h0l.9-1.1a7.5,7.5,0,0,1,1.6-1.5,1.2,1.2,0,0,1,1-.3c.3,0,.5.3.6.5a1.3,1.3,0,0,1-.1.6,8.9,8.9,0,0,1-.3,1.4,8.3,8.3,0,0,0-.2,1.3.1.1,0,0,0,.1.1h0a.5.5,0,0,1,.5.4.4.4,0,0,1-.4.4.6.6,0,0,1-.7-.2,1.1,1.1,0,0,1-.3-.7,10.4,10.4,0,0,1,.2-1.5,11.1,11.1,0,0,0,.3-1.3.8.8,0,0,0,.1-.3h.1l-.5.2L288.5,38l-.8,1.1h0m.3-2.2a.4.4,0,0,1,.6-.2c.2.1.2.4.1.6l-.6,1.1c-.1.2-.2.3-.2.5s-.1.2-.2.2,0,.1-.2.2a.4.4,0,0,1-.5-.2.5.5,0,0,1,.2-.6h-.1l.3-.4.6-1.2"/><path class="cls-5" d="M297.4,35.9a.5.5,0,0,1-.2.6c-.2,0-.5-.1-.5-.3h.2l-.4.4a11.4,11.4,0,0,0-1,1.9,3.9,3.9,0,0,0-.1.9c0,.2.1.2.2.2h.2l.7-.4a31.2,31.2,0,0,0,4.3-4.9l1.6-2.2.6-.8h0s.1.2.1.1.1.2.1.1h.3a7.9,7.9,0,0,0-1.3,1.5l-1.7,2.4a8.7,8.7,0,0,0-1.2,3.4c0,.4,0,.7.2.9a.9.9,0,0,0,.6.4,6.8,6.8,0,0,0,3.5-.4.4.4,0,0,1,.5.2.4.4,0,0,1-.2.6,7.4,7.4,0,0,1-4,.4,1.5,1.5,0,0,1-1.1-.8,2.2,2.2,0,0,1-.3-1.4,8.7,8.7,0,0,1,1.3-3.7,22.7,22.7,0,0,1,1.8-2.5c.6-.7,1-1.5,1.6-1.8s.2-.1.4.1a.4.4,0,0,1,.2.4.8.8,0,0,1-.1.4,3.5,3.5,0,0,1-.6.9c-.5.6-1,1.4-1.7,2.2a27.5,27.5,0,0,1-4.4,5l-.8.6a1.1,1.1,0,0,1-.8.1,1.1,1.1,0,0,1-.8-.8,2,2,0,0,1,.2-1.3,7.4,7.4,0,0,1,1-2.2c.2-.2.4-.5.7-.6a.4.4,0,0,1,.5-.1c.2.1.4.3.4.4"/><path class="cls-5" d="M254.7,46.3c.1.2-.1.4-.3.5a.5.5,0,0,1-.5-.3h.1c-.1,0,.1.1.1.1h.4l-.2.3a32.7,32.7,0,0,0-2.1,5c-.2.8-.5,1.6-.7,2.3l-.3,1.3a1.9,1.9,0,0,1-.1.8h-.8v-.8a3.7,3.7,0,0,0-.5-1.5,2.8,2.8,0,0,0-.7-.9l-.5-.4-.3-.2v-.2c-.1-.1,0-.2,0-.3s.2-.2.3-.2a8.7,8.7,0,0,1,2.2-.4l3-.5c.2-.1.4.1.5.3s-.1.4-.3.5c-2,.4-4.5.6-5.1.8h.1c0,.1.1-.1,0-.1s.1-.1.1-.1h0c0,.1-.1-.1-.1-.1h0a.1.1,0,0,1,.1.1,1.3,1.3,0,0,1,.6.5,3.5,3.5,0,0,1,.9,1.1,5.3,5.3,0,0,1,.5,1.8,1.4,1.4,0,0,1,0,.9c0,.2-.2.4-.4.3a.4.4,0,0,1-.4-.4,4.4,4.4,0,0,1,.1-.9,11.1,11.1,0,0,1,.3-1.3l.8-2.4a47.3,47.3,0,0,1,2.1-5.1l.3-.5h.4c.1,0,.3.1.3.2v.2"/><path class="cls-5" d="M260.7,47.6c0,.3-.1.5-.3.5a.3.3,0,0,1-.5-.3h.1s.2,0,.2.1h.1c-.1,0-.1.1-.2.2a4.5,4.5,0,0,0-.9,1,16.7,16.7,0,0,0-1.6,2.4c-.6,1-.9,1.7-.8,2.1l.2.2h.9c.2-.1.4.1.5.3a.5.5,0,0,1-.4.5,1.8,1.8,0,0,1-1.3-.1.9.9,0,0,1-.7-.8,4.3,4.3,0,0,1,.9-2.6l1.6-2.4,1-1.2a.9.9,0,0,1,.5-.3h.4c.1,0,.2.2.3.3"/><path class="cls-5" d="M263.7,51.7a.7.7,0,0,1-.4.5.4.4,0,0,1-.4-.4,1.6,1.6,0,0,1,0-.7v.2h0l-.6.3-1,.9a4.8,4.8,0,0,0-.8,1,.3.3,0,0,1-.1.2h1.6a1.3,1.3,0,0,1,.9.4c.2.1.1.3.1.4v.2a.1.1,0,0,1-.1.1h-.1c.1,0-.1-.1-.1-.1h.4a.4.4,0,0,1,.4.4.5.5,0,0,1-.5.4h-.3c-.1,0-.2.1-.4-.1a.6.6,0,0,1-.2-.5c0-.1.1-.1.1-.2h-2.1a.5.5,0,0,1-.4-.3,1.1,1.1,0,0,1-.1-.5l.2-.3a3.8,3.8,0,0,1,1-1.3l1-.9a1.4,1.4,0,0,1,1.1-.5h.4a.5.5,0,0,1,.3.5v.6"/><path class="cls-5" d="M269.9,52c.1.2,0,.5-.2.5s-.5,0-.5-.2h-.1a3.5,3.5,0,0,0-.9,1.1,3.8,3.8,0,0,0-.5,1.2v.4h.5c.8-.2,2.2-1.7,3.5-3.2s2.2-2.8,3-3.9l.6-1.3c0-.2.1-.3.1-.5h0s.1.1,0,.1.2.1.2.1h-.1l-.6.3a4.5,4.5,0,0,0-1.2,1.2,5.2,5.2,0,0,0-.8,1.9v.8l.3.3.5.3a1.4,1.4,0,0,1,1,.7,1.1,1.1,0,0,1,.1,1.1,6.1,6.1,0,0,1-.5,1.2c-.4.8-1,1.5-1.2,1.9s-.3.3-.5.2-.3-.3-.2-.5a15.1,15.1,0,0,1,1.2-2l.4-1c.1-.2.1-.4,0-.4s-.3-.3-.7-.5l-.6-.4a1.4,1.4,0,0,1-.6-.7V49.6a5.1,5.1,0,0,1,.9-2.2,5.7,5.7,0,0,1,1.5-1.6l.7-.3h.4c.1-.1.3,0,.5.2s.1.4.1.6a1.4,1.4,0,0,1-.2.6,7.3,7.3,0,0,1-.6,1.4,44,44,0,0,1-3.1,4c-1.3,1.5-2.6,3.1-3.9,3.5h-.7a.7.7,0,0,1-.8-.8v-.4a5.2,5.2,0,0,1,.6-1.6,3.1,3.1,0,0,1,1.1-1.4,1.5,1.5,0,0,1,.7-.3l.4.2a.8.8,0,0,1,.2.4"/><path class="cls-5" d="M253.8,42.6c0,.2-.1.4-.3.4a.3.3,0,0,1-.5-.3.1.1,0,0,0-.1-.1q-.2-.1-.6,0a4.1,4.1,0,0,0-1.6,1.1,16.7,16.7,0,0,0-2.8,4.4,18.6,18.6,0,0,0-1.6,6.9,6.7,6.7,0,0,0,.5,2.6,3.5,3.5,0,0,0,1.6,1.6.4.4,0,0,1,.2.5.5.5,0,0,1-.6.2,3.9,3.9,0,0,1-1.9-1.9,7.3,7.3,0,0,1-.6-3,18,18,0,0,1,1.7-7.2,14.5,14.5,0,0,1,2.9-4.7,5.2,5.2,0,0,1,2-1.3,1.7,1.7,0,0,1,1.2,0,1,1,0,0,1,.5.8"/><path class="cls-5" d="M280.6,44.2c-.2.1-.5,0-.5-.2a.5.5,0,0,1,.2-.6,1.1,1.1,0,0,1,.8.1l.6.5a4.8,4.8,0,0,1,.9,1.9,11.2,11.2,0,0,1,.1,3.7,23.4,23.4,0,0,1-1.6,5.9c-.6,1.7-1.2,3.2-1.3,3.8s-.3.4-.5.3-.4-.2-.3-.4a4.1,4.1,0,0,1,.5-1.6c.8-2.2,2.1-5.3,2.4-8.1a9.5,9.5,0,0,0-.1-3.4,8.4,8.4,0,0,0-.7-1.6l-.4-.3h-.1"/><path class="cls-5" d="M194.8,44.2a.3.3,0,0,1,.5,0,.4.4,0,0,1,0,.6h0c-.1,0-.2.2-.3.4l-1.3,1.4L183,58.7a.5.5,0,0,1-.6.1.4.4,0,0,1,0-.6l10.7-12.1a11.6,11.6,0,0,1,1.3-1.5.8.8,0,0,1,.4-.4h0m-.9,1.6a.4.4,0,1,1,0-.8l.3-.2.3-.2h.1s-.1.1-.1,0,.1-.2.2-.2h.1c.1-.2.4-.1.5,0s.2.5,0,.6h0l-.2.3c-.1.1-.2.3-.4.4a1.5,1.5,0,0,1-.8.3"/><path class="cls-5" d="M150,83.1a.4.4,0,0,1,0-.8h-.1s-.2.1-.1.1h-.1V82h-.6A2.3,2.3,0,0,0,148,83a3.7,3.7,0,0,0-.7,1.6.9.9,0,0,0-.1.5.1.1,0,0,0,.1.1h.3l.9-.2a7.9,7.9,0,0,0,1.5-1.2l.6-.5h.3c.2,0,.4,0,.5.2a.9.9,0,0,1,.3.6v.7a3.8,3.8,0,0,0,.1,1.2h.5a7.8,7.8,0,0,0,1.7-1.2,34.9,34.9,0,0,0,3.1-3.4,28.1,28.1,0,0,0,2.7-3.4l.3-.6h0v.2h0L159,79.5a12.9,12.9,0,0,0-1.7,3.3,9.3,9.3,0,0,0-.2,2.3A2.2,2.2,0,0,0,158,87h.6v-.9c-.1-.4-.1-.9-.2-1.4a.7.7,0,0,1-.1-.5.4.4,0,0,1,.1-.3.3.3,0,0,1,.3-.3,1.1,1.1,0,0,1,.8.1l1.1.6c.2.1.2.3.1.5a.5.5,0,0,1-.6.2l-.9-.6H159c0-.1.1-.1,0-.1s.2-.1.2-.1h0a.8.8,0,0,0,.1.4c.1.4.1.9.2,1.4v.9a1.4,1.4,0,0,1-.5.8,1.4,1.4,0,0,1-1.4,0,2.8,2.8,0,0,1-1.3-2.5,6,6,0,0,1,.3-2.6,10.2,10.2,0,0,1,1.8-3.6,7.6,7.6,0,0,1,1.3-1.7l.6-.4.5.2a.9.9,0,0,1,.1.5c0,.3-.2.5-.4,1s-1.6,2.1-2.7,3.4a38.1,38.1,0,0,1-3.2,3.5,6.9,6.9,0,0,1-2.1,1.4h-.9a1,1,0,0,1-.5-.6,3.6,3.6,0,0,1-.2-1.5v-.6c0-.1,0-.1-.1-.2h.3c-.1,0,0,0-.1.1l-.5.3a6.1,6.1,0,0,1-1.7,1.4l-1.2.2a1.1,1.1,0,0,1-.9-.3.9.9,0,0,1-.3-.7,2,2,0,0,1,.1-.7,5.2,5.2,0,0,1,.8-1.9,3.3,3.3,0,0,1,1.5-1.4h.9a1.2,1.2,0,0,1,.8.6.9.9,0,0,1,0,.7v.5a.4.4,0,0,1-.4.2"/><path class="cls-5" d="M168,78.7a.4.4,0,0,1-.5.2.3.3,0,0,1-.3-.5.3.3,0,0,1,.1-.2h.4l-1,1.3c-.5.7-1.2,1.6-1.8,2.6a14.8,14.8,0,0,0-2,4.4A1.6,1.6,0,0,0,163,88a1.3,1.3,0,0,0,.9.5.4.4,0,0,1,.4.4.4.4,0,0,1-.4.4,2.2,2.2,0,0,1-1.6-.9,2,2,0,0,1-.2-1.7,13.8,13.8,0,0,1,2.1-4.8l1.9-2.6,1.1-1.4.2-.2h.3c.2,0,.3.1.3.2s.1.5,0,.8"/><path class="cls-5" d="M171.1,85.5a.5.5,0,0,1-.6.2.4.4,0,0,1-.2-.6.4.4,0,0,0,0-.5l-.5-.5h-.3l-.5.3a2.8,2.8,0,0,0-1.1,1.3,2.5,2.5,0,0,0-.2.7v.4h.3a4,4,0,0,0,1.6-.7l.7-.4.6-.2a.9.9,0,0,1,.6.3,1.1,1.1,0,0,1,.1.5v.4a2.5,2.5,0,0,0-.2.7,1.1,1.1,0,0,0-.1.5l.2.2h.6l.9-.5.6-.6.6-.5.2-.2h.6l.2.3v.2a.4.4,0,0,0-.1.3,1.1,1.1,0,0,0-.1.5v.2h-.2l.3-.2c.3-.1.5-.4,1-.4a2.5,2.5,0,0,1,1.4,1c.2.2.2.5,0,.6s-.5.1-.6-.1-.7-.6-.8-.6l-.6.2-.3.2h-.3a.3.3,0,0,1-.4,0,.5.5,0,0,1-.3-.5.5.5,0,0,1,0-.5c0-.2.1-.5.1-.6v-.2h.3l-.4.4-.7.6a3,3,0,0,1-1.1.6,1.3,1.3,0,0,1-1.9-.7,2.5,2.5,0,0,1,.1-.8,1.9,1.9,0,0,1,.2-.7.4.4,0,0,1,.1-.3h-.1l-.7.4a3.9,3.9,0,0,1-2,.8h-.5a.9.9,0,0,1-.5-.3,1.1,1.1,0,0,1-.1-1,2.2,2.2,0,0,1,.3-1,3.7,3.7,0,0,1,1.3-1.5l.8-.5h.9a1.4,1.4,0,0,1,.8.9,1.3,1.3,0,0,1,.1,1.2"/><path class="cls-5" d="M183.7,80.7c.1.2,0,.4-.2.6a.4.4,0,0,1-.5-.2h.1c0,.1.1,0,.1,0v.2a8.8,8.8,0,0,0-.9,1.6l-1.4,3.4a27,27,0,0,0-.7,4.1,38,38,0,0,0-.1,4.7v2.1c-.1.3-.1.6-.3.8h-.5l-.4-.3a5.9,5.9,0,0,1-.6-1.6,12.1,12.1,0,0,1-.9-2,1.1,1.1,0,0,1,.3-1.1,1.9,1.9,0,0,1,1.4-.7c.2-.1.4,0,.5.3a.5.5,0,0,1-.3.5,1.9,1.9,0,0,0-1,.4c-.2.1-.2.2-.1.4s.6,1.1.9,2a7,7,0,0,0,.5,1.3h-.2s-.2.1-.2,0,0,.1,0,.1v-.3a10.4,10.4,0,0,0,.1-2,40,40,0,0,1,.1-4.8,14.9,14.9,0,0,1,.8-4.2,20.8,20.8,0,0,1,1.4-3.6,7.4,7.4,0,0,1,.9-1.8c.2-.1.3-.3.6-.4h.4l.3.3"/><path class="cls-5" d="M181.7,89.2c-.2-.2-.1-.4,0-.6s.5-.1.6.1h.4a3.7,3.7,0,0,0,1.2-.7,6.5,6.5,0,0,0,1.6-1.3l.5-.7v-.2h0c0-.1.1.1.1,0s.2.1.1.1h-.1c-.1.1-.2.3-.4.4a1.8,1.8,0,0,0-.4,1.3.8.8,0,0,0,.2.5h.2l.6-.2,1.4-.8,1.2-1,.7-.4h.4l.3.3a.6.6,0,0,1,.1.4,2.8,2.8,0,0,1-.1.9v.6h.2l1-.5.7-.3a.6.6,0,0,1,.7.1.5.5,0,0,1,.2.4.2.2,0,0,1,0,.3,1.7,1.7,0,0,1-.1.7c-.1.5-.3.9-.3,1.1s-.3.4-.5.4-.4-.3-.3-.5a7,7,0,0,1,.3-1.2,1.3,1.3,0,0,0,.1-.6h0c0-.1.1.1.1,0h0l-.5.2a3.2,3.2,0,0,1-1.3.6H190c-.3-.1-.4-.3-.5-.6v-.9a2.5,2.5,0,0,0,.1-.8h.4l-.6.4-1.3.9a7.8,7.8,0,0,1-1.5,1l-.7.2a1.1,1.1,0,0,1-.8-.1,1.4,1.4,0,0,1-.6-1.2,2,2,0,0,1,.7-1.9,1,1,0,0,1,.5-.4l.3-.2a.4.4,0,0,1,.5,0,.7.7,0,0,1,.3.6,1.3,1.3,0,0,1-.1.6c-.1.3-.4.5-.6.8a8,8,0,0,1-1.7,1.5l-1.4.8h-.7c-.2-.1-.5-.2-.6-.4"/><path class="cls-5" d="M200.9,87.7c0,.2-.1.4-.3.4a.3.3,0,0,1-.5-.3v-.2s.1.1,0,.1h.1a3.7,3.7,0,0,0-.9.9,4.1,4.1,0,0,0-.8,1.4.5.5,0,0,0-.1.3h.1l1.2-.5a15.9,15.9,0,0,0,3.4-3.1c.9-.8,1.6-1.7,2.2-2.3l.6-.8h.1s0,.3-.1.2h.1s.2.2.1.2h.2c-.1-.1.2-.1.2-.1h.1a15,15,0,0,0-1.7,2.1,5.9,5.9,0,0,0-1.3,3.5,1.2,1.2,0,0,0,.5,1,2.7,2.7,0,0,0,1.7.4.5.5,0,0,1-.1.9,5.8,5.8,0,0,1-2.1-.6,2.1,2.1,0,0,1-.8-1.6c-.2-1.2.5-2.7,1.4-4a18.6,18.6,0,0,1,1.8-2.3h.2a.2.2,0,0,1,.3,0,.3.3,0,0,1,.3.3c0,.3-.1.3-.1.3h-.1l-.7.9-2.2,2.4a20.7,20.7,0,0,1-3.6,3.2,2.9,2.9,0,0,1-1.6.6H198c-.1-.1-.3-.2-.3-.4a1,1,0,0,1,0-.9,7,7,0,0,1,1-1.6,2.9,2.9,0,0,1,1.1-1.1c.2-.1.5-.2.7,0a.3.3,0,0,1,.3.3c.1.1.1.2.1.4"/><path class="cls-5" d="M160.2,100.2a.5.5,0,0,1-.6.2.4.4,0,0,1-.2-.5c.1-.2,0-.3,0-.4l-.4-.2h-.7l-.3.2c-.1.1-.1.3-.2.5a2.2,2.2,0,0,0,.3,1,5.7,5.7,0,0,1,.8,1.3,1.9,1.9,0,0,1,.2,1.3,1.8,1.8,0,0,1-1.1,1,4.4,4.4,0,0,1-1.5.5,2.5,2.5,0,0,1-1.7,0,.8.8,0,0,1-.2-.5c-.1-.1,0-.3,0-.4a5.8,5.8,0,0,1,.8-1,.3.3,0,0,1,.5.1.3.3,0,0,1,0,.5,1.8,1.8,0,0,0-.5.7h0s-.1-.2-.1-.1h1l1.3-.4a1.4,1.4,0,0,0,.7-.6,2,2,0,0,0-.1-.7l-.8-1.2a2.7,2.7,0,0,1-.4-1.6,5.9,5.9,0,0,1,.4-.8,1.3,1.3,0,0,1,.7-.5h1.1a1.4,1.4,0,0,1,.8.5,1.3,1.3,0,0,1,.2,1.2"/><path class="cls-5" d="M166.2,95.3a.4.4,0,1,1-.8,0v-.5h0c0-.1.2,0,.1,0h.2l-.2.3a20.3,20.3,0,0,0-1.2,3c-.4,1-.8,2.1-1.1,3.1a11.5,11.5,0,0,0-.5,2c-.1.2-.1.4-.3.6a.4.4,0,0,1-.5.1c-.2,0-.3-.1-.3-.2a3,3,0,0,1-.4-1.1,3.5,3.5,0,0,1-.3-1.4v-.4a.6.6,0,0,1,.1-.4l.3-.3a2.9,2.9,0,0,1,1.6,0l1.7.2a.4.4,0,0,1,.4.4.5.5,0,0,1-.4.5l-1.8-.3h-1v.5a2.6,2.6,0,0,0,.3,1.1,1.7,1.7,0,0,0,.2.9h-.4c.1-.1.1-.1.1-.2a19.1,19.1,0,0,1,.5-2.1c.3-1,.7-2.1,1.1-3.1a26.5,26.5,0,0,1,1.3-3.1l.4-.5.6-.2c.2.1.3.4.4.5v.7"/><path class="cls-5" d="M170,99.8c.2.1.2.3.1.5a.5.5,0,0,1-.6.2H169a3.4,3.4,0,0,0-1.2.6,6.9,6.9,0,0,0-1.1,1.3,2.7,2.7,0,0,0-.4,1.3c.1.3.2.5.5.6a1.9,1.9,0,0,0,1.3,0,4.1,4.1,0,0,0,1.9-.9c.2-.1.5-.1.6.1s.1.5-.1.6a5.4,5.4,0,0,1-2.2,1,2.2,2.2,0,0,1-1.8-.1,1.5,1.5,0,0,1-1-1.2,2.9,2.9,0,0,1,.5-1.9,5.7,5.7,0,0,1,1.3-1.4,7,7,0,0,1,1.4-.8c.5-.1.9-.2,1.3.1"/><path class="cls-5" d="M170.5,101.5a.4.4,0,1,1-.5.7,2.6,2.6,0,0,0-.9,0h-.3c.2.1.2.4.1.6s-.4.2-.6,0l-.3-.4a1.3,1.3,0,0,1,.1-.6l.8-.4a2.2,2.2,0,0,1,1.6.1"/><path class="cls-5" d="M173.1,101.8a.5.5,0,0,1,.6-.2.4.4,0,0,1,.2.6,3.9,3.9,0,0,0-.6,1.1,3.9,3.9,0,0,0-.2.6c0,.2,0,.3.1.4a.4.4,0,1,1-.7.5,1,1,0,0,1-.2-.9,2.9,2.9,0,0,1,.2-.9,12.9,12.9,0,0,0,.6-1.2"/><path class="cls-5" d="M175,99.6c0,.2-.2.4-.4.3a.4.4,0,0,1-.4-.4c0-.1.1.1,0,.1a2.1,2.1,0,0,1-.2-.8c0-.3.2-.4.4-.5a.4.4,0,0,1,.4.4c0,.3.1.3.1.4s.2.3.1.5"/><path class="cls-5" d="M176.2,104.5c-.1.2-.3.4-.5.3a.4.4,0,0,1-.3-.5c.1-.3.3-.4.5-.7l.9-.8a34.8,34.8,0,0,0,3.9-3.8l.7-.8c.1-.1.1,0,.1-.1h0c0-.1.1.1,0,.1s.2.1.1,0h0l-.3.2a2.8,2.8,0,0,0-.9.7,6.6,6.6,0,0,0-1.4,1.8,5.6,5.6,0,0,0-.9,4.1,1.4,1.4,0,0,0,.8,1,4.3,4.3,0,0,0,1.9-.1.4.4,0,0,1,.5.2c0,.2-.1.5-.3.5a2.9,2.9,0,0,1-2.4.1,2,2,0,0,1-1.3-1.5,6.1,6.1,0,0,1,1-4.7,6.2,6.2,0,0,1,1.5-2l1.1-.8a1.2,1.2,0,0,1,1-.3l.3.2a.4.4,0,0,1,.1.3c0,.1-.1.3-.1.4l-.8,1.1c-1.2,1.3-2.9,2.8-4.1,3.9l-.9.7-.2.3h0"/><path class="cls-5" d="M156.5,92.6c.2.1.4.3.3.5s-.3.4-.5.3h-.5l-1,.9a10.5,10.5,0,0,0-1.2,1.9,15.4,15.4,0,0,0-1.1,3,9.9,9.9,0,0,0,0,4.2,9.5,9.5,0,0,0,2.6,4c.2.2.2.5,0,.6s-.4.2-.6,0a9.2,9.2,0,0,1-2.7-4.3,9.3,9.3,0,0,1-.1-4.7,17.5,17.5,0,0,1,1.2-3.2,7.7,7.7,0,0,1,1.3-2,4,4,0,0,1,1.2-1.1,1.5,1.5,0,0,1,1.1-.2"/><path class="cls-5" d="M186.3,97a.4.4,0,0,1-.6,0,.5.5,0,0,1,.1-.6c.1-.2.4-.2.6-.3l.8.2a2.4,2.4,0,0,1,1.2,1.4,5.4,5.4,0,0,1,.3,2.3,21.8,21.8,0,0,1-1.3,5.8,10.8,10.8,0,0,1-2.7,4.5.3.3,0,0,1-.5-.1.4.4,0,0,1,0-.6,10.3,10.3,0,0,0,2.4-4.1,20.7,20.7,0,0,0,1.3-5.5,5.3,5.3,0,0,0-.2-2,3,3,0,0,0-.9-1h-.5"/><path class="cls-5" d="M183.2,56.9c.1-.2.3-.4.5-.3a.5.5,0,0,1,.4.5,6.6,6.6,0,0,1-1.3,2.2,19.3,19.3,0,0,1-2.4,2.9L177.9,65l-.8,1-.3.3h-.1c.1.1-.1-.2,0-.2h-.5l.4-.4h.6a.6.6,0,0,1,0,.6l-.5.4-.2.2H176a1,1,0,0,1-.1-.4c.1-.2.2-.3.2-.4l.3-.4.9-.9,2.5-2.9a27.8,27.8,0,0,0,2.4-2.8,4.3,4.3,0,0,0,1-1.9"/></g></svg>