<svg id="Ebene_1" data-name="Ebene 1" xmlns="http://www.w3.org/2000/svg" xmlns:xlink="http://www.w3.org/1999/xlink" viewBox="0 0 250.5 250.5"><defs><style>.cls-1{fill:none;}.cls-2{opacity:0;}.cls-3{clip-path:url(#clip-path);}.cls-4{fill:#969696;}.cls-5{fill:#c7c3bd;}</style><clipPath id="clip-path"><rect class="cls-1" x="-75.1" y="-25.1" width="419.5" height="297.64"/></clipPath></defs><g class="cls-2"><path d="M44,155.2V144.3h1.5v1.5a2.7,2.7,0,0,1,2.6-1.7,2.8,2.8,0,0,1,2.3,1,5,5,0,0,1,.8,2.9,5.3,5.3,0,0,1-.9,3.2,3,3,0,0,1-2.5,1.2,2.7,2.7,0,0,1-2.3-1.1v3.9Zm1.5-4.9a2.9,2.9,0,0,0,2.1,1c1.4,0,2.1-1,2.1-3.1s-.6-2.8-1.9-2.8a2.9,2.9,0,0,0-2.3,1.3Z"/></g><g class="cls-2"><path d="M202.9,155.2V144.3h1.5v1.5a2.9,2.9,0,0,1,2.7-1.7,2.6,2.6,0,0,1,2.2,1,4.3,4.3,0,0,1,.8,2.9,5.3,5.3,0,0,1-.9,3.2,2.9,2.9,0,0,1-2.5,1.2,2.7,2.7,0,0,1-2.3-1.1v3.9Zm1.5-4.9a2.9,2.9,0,0,0,2.1,1c1.4,0,2.1-1,2.1-3.1s-.6-2.8-1.8-2.8a3.1,3.1,0,0,0-2.4,1.3Z"/></g><g class="cls-3"><path d="M249.7,125.2a124.4,124.4,0,1,0-61.8,107.6,124.2,124.2,0,0,0,61.8-107.6m.8,0a125.2,125.2,0,1,1-17-63,125.4,125.4,0,0,1,17,63"/><path d="M168.1,75.8a.4.4,0,0,1,.4.4.4.4,0,0,1-.4.4h-.8a.4.4,0,0,1-.4-.4.4.4,0,0,1,.4-.4Z"/><path d="M167.8,76.5c-.2-.1-.2-.4,0-.6a.5.5,0,0,1,.5,0c.2.2.2.5,0,.6a.3.3,0,0,1-.5,0"/><path d="M223.6,81.2a38.9,38.9,0,0,0-5.4-20,39.7,39.7,0,0,0-74.1,20,38.6,38.6,0,0,0,5.4,20,39.7,39.7,0,0,0,74.1-20m.9,0a40.8,40.8,0,1,1-5.6-20.4,40.6,40.6,0,0,1,5.6,20.4"/><path d="M180,188a51.8,51.8,0,1,0-25.8,45A51.9,51.9,0,0,0,180,188m.8,0a52.8,52.8,0,1,1-79.4-45.6A52.8,52.8,0,0,1,180.8,188"/><path d="M107.8,81.2a38.9,38.9,0,0,0-5.4-20,39.7,39.7,0,0,0-74.1,20,38.6,38.6,0,0,0,5.4,20A39.6,39.6,0,0,0,68,121a39.7,39.7,0,0,0,39.8-39.8m.8,0a40.6,40.6,0,1,1-5.5-20.4,40.2,40.2,0,0,1,5.5,20.4"/><path class="cls-4" d="M216.3,81.2a32.5,32.5,0,1,1-32.4-32.4,32.5,32.5,0,0,1,32.4,32.4"/><path class="cls-4" d="M215.9,81.2a31.3,31.3,0,0,0-4.4-16.1,31.9,31.9,0,0,0-27.6-15.9,32.9,32.9,0,0,0-16.2,4.3,32.1,32.1,0,0,0-15.9,27.7,31.3,31.3,0,0,0,4.4,16.1A32.1,32.1,0,0,0,200,108.9a32.1,32.1,0,0,0,15.9-27.7m.8,0a32.8,32.8,0,0,1-16.3,28.4,32.8,32.8,0,0,1-44.9-11.8,32.9,32.9,0,0,1,11.8-45,33.2,33.2,0,0,1,16.6-4.4,32.6,32.6,0,0,1,28.3,16.3,31.9,31.9,0,0,1,4.5,16.5"/><path class="cls-4" d="M100.5,81.2A32.5,32.5,0,1,1,68,48.8a32.5,32.5,0,0,1,32.5,32.4"/><path class="cls-4" d="M100.1,81.2a31.3,31.3,0,0,0-4.4-16.1A31.9,31.9,0,0,0,68,49.2a32.5,32.5,0,0,0-16.1,4.3A32.1,32.1,0,0,0,36,81.2a31.3,31.3,0,0,0,4.4,16.1,32.1,32.1,0,0,0,43.8,11.6,32.1,32.1,0,0,0,15.9-27.7m.8,0A32.8,32.8,0,0,1,39.7,97.8a32.9,32.9,0,0,1,11.8-45A33.1,33.1,0,0,1,68,48.4,32.6,32.6,0,0,1,96.4,64.7a31.9,31.9,0,0,1,4.5,16.5"/><path class="cls-5" d="M170.8,188A42.9,42.9,0,1,1,128,145.2,42.9,42.9,0,0,1,170.8,188"/><path class="cls-4" d="M170.4,188a42.4,42.4,0,0,0-84.8,0,43,43,0,0,0,5.7,21.4,42.4,42.4,0,0,0,36.7,21,43,43,0,0,0,21.4-5.7,42.4,42.4,0,0,0,21-36.7m.8,0a43,43,0,1,1-5.8-21.8,43.2,43.2,0,0,1,5.8,21.8"/><path d="M213.2,140.2a6.7,6.7,0,0,0-.9-3.4,6.8,6.8,0,0,0-5.8-3.3,6.2,6.2,0,0,0-3.4.9,6.5,6.5,0,0,0-3.4,5.8,6.7,6.7,0,0,0,.9,3.4,6.9,6.9,0,0,0,5.9,3.4,6.7,6.7,0,0,0,3.4-1,6.6,6.6,0,0,0,3.3-5.8m.8,0a7.5,7.5,0,0,1-14.1,3.8,8,8,0,0,1-1-3.8,7.5,7.5,0,0,1,3.7-6.5,7.7,7.7,0,0,1,3.9-1.1,7.5,7.5,0,0,1,6.5,3.8,8,8,0,0,1,1,3.8"/><path d="M205.7,139.1a.4.4,0,0,1,.4.4.4.4,0,0,1-.4.4h.1v.7c0,.1.1.1.2.1h.3l.3-.3c.1-.1.2-.1.2-.2s.1-.4,0-.5h-.5c0,.2-.3.3-.5.3a.4.4,0,0,1-.2-.6.7.7,0,0,1,.4-.5h.6l.6.2a.8.8,0,0,1,.4.6,2.7,2.7,0,0,1,0,.9,2.1,2.1,0,0,1-.4.6l-.5.4a1,1,0,0,1-.9.2.9.9,0,0,1-.7-.4c-.2-.2-.1-.5-.1-.6v-.8c.1-.2.1-.3.2-.4a.5.5,0,0,1,.5-.3"/><path d="M205,140.3a.4.4,0,0,1,.4-.4.4.4,0,0,1,.4.4,16.9,16.9,0,0,1-.3,3,9.2,9.2,0,0,0-.1,1.6,3.5,3.5,0,0,1,.1.6c.1.2,0,.4,0,.5v.4h0c.1.1-.1-.1,0-.1h-.3c.1,0-.1.1-.1.1H205l.2-.3a.5.5,0,0,1,.6-.2.4.4,0,0,1,.1.6l-.3.5-.4.2-.4-.3a1.5,1.5,0,0,1-.1-.9v-.3c0-.2-.1-.5-.1-.8a9.7,9.7,0,0,1,.1-1.7,15.9,15.9,0,0,0,.3-2.9"/><path d="M207,140.2a.5.5,0,0,1,.4.5.5.5,0,0,1-.5.3h.3v1a11.3,11.3,0,0,0,0,2.6c0,.4.1.8.1,1.2v1.6c0,.1.1.1-.1.3l-.2.2h-.4c-.2-.1-.1-.2-.1-.3h0v-.7a.7.7,0,0,1,.5-.4c.2.1.4.3.3.5v.6h-.8v-1.4c0-.4-.1-.8-.1-1.2a25.3,25.3,0,0,1-.1-2.7c0-.3.1-.7.1-1s.1-.3.2-.4v-.2h.4"/><path d="M206,141.8a.4.4,0,0,1-.2-.5.5.5,0,0,1,.5-.3c.3.1.3.3.3.3h0c0,.1.1.2.1.3a.4.4,0,1,1-.7.3c-.1-.1-.1-.3-.2-.4h.1s.2.1.1.1m-.2-.6a.4.4,0,0,1,.8,0h0v.5a.4.4,0,0,1-.8,0v-.2h0v-.2c.1-.2.4-.2.6-.1s.2.3.1.5h.1v.2a.4.4,0,0,1-.8,0v-.5h0m.4,1.7a.4.4,0,0,1-.3-.7c.1-.1-.2.1-.1.1s-.1.1-.1,0h0v-.5a2.3,2.3,0,0,0,.1-.7.4.4,0,0,1,.4-.4.4.4,0,0,1,.4.4v.8c-.1.2,0,.4-.2.7s0,.2-.2.2m-.6-1.4a.4.4,0,0,1,.8,0v.9h0s-.1-.1,0-.1h-.2a.4.4,0,1,1-.3.7c-.2-.1-.2-.1-.2-.2v-1.2m.8,1.6a.4.4,0,0,1-.4.4.4.4,0,0,1-.4-.4v-1.5h0a.4.4,0,0,1,.8,0h0v1.5m-.5-1.3a.5.5,0,0,1,.6.2.5.5,0,0,1-.3.5h.2s.1-.1,0-.1h.1c0,.1-.1.2-.1.4v.3h0a.4.4,0,1,1-.8,0h0v-.7c0-.1,0-.1.1-.2h0l.2-.2m0,1.9c-.1-.3.1-.5.4-.5a.4.4,0,0,1,.4.4h0v.6a3.8,3.8,0,0,0,.1,1v.4a1.3,1.3,0,0,1-.1.6c-.1.2-.4.2-.6.1s-.2-.4-.1-.6,0,.2,0,.2h-.1v-.2c-.1-.3-.1-.7-.2-1.1v-2.4h0a.4.4,0,0,1,.2-.5.5.5,0,0,1,.6.2h0v1.3a4.9,4.9,0,0,0,.1,1.2,3.1,3.1,0,0,0,.1,1v.2h.1c0,.1.1.2-.1.4l-.7-.5h0a1.1,1.1,0,0,0-.1-.5v-1a1.1,1.1,0,0,1,0-.6h0m-.4-1.2a.4.4,0,0,1,.5-.2c.3,0,.4.2.3.5h0v1a10.3,10.3,0,0,0,.1,1.8,1.3,1.3,0,0,0,.1.6v.2h0s-.1-.1,0-.1h-.3s-.2.1-.2,0-.1.2-.1.1,0,.1,0,.1h0v-.6a5.7,5.7,0,0,1,0-1.3v-.6h0c0-.3.1-.5.4-.5a.5.5,0,0,1,.4.5h0v2.7c0,.1,0,.2-.2.4h-.6v-.6a1.5,1.5,0,0,1-.1-.7,12.1,12.1,0,0,1-.1-1.9v-1h0m-.2-.2c.2-.1.5-.1.6.1s.1.4,0,.6.1-.2.1-.2h0v2.1c0,.3.1.6.1.9a1,1,0,0,1,.1.4h-.1s-.3,0-.2-.1-.2.2-.2.1h-.1V143a.8.8,0,0,1-.1-.3h.1c-.1-.2,0-.5.2-.5s.5,0,.5.2h0a.4.4,0,0,1,.1.3v.9a16.1,16.1,0,0,1,0,2.2v.5c0,.1,0,.2-.2.3s-.3.2-.4.1h-.2l-.2-.3a1.3,1.3,0,0,0-.1-.6c0-.2-.1-.6-.1-.9v-1.7a2.2,2.2,0,0,1,0-.8v-.2m.9,3.7a.4.4,0,0,1-.4.4.4.4,0,0,1-.4-.4v-1.4a3.4,3.4,0,0,1-.1-1c0-.2,0-.5-.1-.6v-.2h0s.1.1,0,.1h.2a.5.5,0,0,1-.2-.6.5.5,0,0,1,.6-.1h.1v1.2c0,.3.1.6.1.9V146m0-2.9a.4.4,0,1,1-.8,0h0v-.2h0a.4.4,0,1,1,.8,0v3.1h0a.4.4,0,0,1-.4.4.4.4,0,0,1-.4-.4h0v-3.1a.4.4,0,1,1,.8,0h0v.2h0m-.8,0a.4.4,0,1,1,.8,0,.4.4,0,1,1-.8,0"/><path d="M54.3,140.2a6.7,6.7,0,0,0-.9-3.4,6.8,6.8,0,0,0-5.9-3.3,6.7,6.7,0,0,0-3.4.9,6.6,6.6,0,0,0-3.3,5.8,6.7,6.7,0,0,0,.9,3.4,6.9,6.9,0,0,0,5.8,3.4,6.5,6.5,0,0,0,3.4-1,6.6,6.6,0,0,0,3.4-5.8m.8,0a7.5,7.5,0,0,1-3.7,6.5,7.7,7.7,0,0,1-3.9,1.1A7.5,7.5,0,0,1,41,144a7,7,0,0,1-1-3.8,7.5,7.5,0,0,1,3.7-6.5,7.3,7.3,0,0,1,3.8-1.1,7.6,7.6,0,0,1,6.6,3.8,8,8,0,0,1,1,3.8"/><path d="M46.8,139.1a.4.4,0,0,1,.4.4.4.4,0,0,1-.4.4h.1v.7c0,.1,0,.1.2.1h.2c.2,0,.3-.2.4-.3l.2-.2c0-.2.1-.4,0-.5h-.5c0,.2-.3.3-.5.3a.6.6,0,0,1-.3-.6,1.2,1.2,0,0,1,.5-.5h.6l.6.2a.8.8,0,0,1,.4.6,2.7,2.7,0,0,1,0,.9,2.1,2.1,0,0,1-.4.6l-.5.4a1,1,0,0,1-.9.2.9.9,0,0,1-.7-.4c-.2-.2-.1-.5-.1-.6a2.1,2.1,0,0,1,0-.8l.2-.4a.5.5,0,0,1,.5-.3"/><path d="M46.1,140.3a.4.4,0,0,1,.8,0,16.9,16.9,0,0,1-.3,3,9.2,9.2,0,0,0-.1,1.6,3.5,3.5,0,0,1,.1.6v.9h0c0,.1-.1-.1,0-.1h-.5l.2-.3a.5.5,0,0,1,.6-.2c.2.1.2.4.1.6l-.3.5-.4.2-.4-.3a1.5,1.5,0,0,1-.1-.9v-.3c0-.2-.1-.5-.1-.8a9.7,9.7,0,0,1,.1-1.7,15.9,15.9,0,0,0,.3-2.9"/><path d="M48.1,140.2a.5.5,0,0,1,.4.5.5.5,0,0,1-.5.3h.3v.2a2.5,2.5,0,0,1-.1.8,22.6,22.6,0,0,0,.1,2.6c0,.4.1.8.1,1.2v1.9l-.2.2h-.4c-.2-.1-.1-.2-.1-.3h-.1a1.5,1.5,0,0,0,.1-.7.5.5,0,0,1,.5-.4c.2.1.4.3.3.5v.6h-.8v-1.4a5,5,0,0,0-.2-1.2v-2.7c0-.3.1-.7.1-1l.2-.4v-.2h.4"/><path d="M47.1,141.8a.4.4,0,0,1-.2-.5.5.5,0,0,1,.5-.3c.3.1.3.3.3.3h0c0,.1.1.2.1.3a.4.4,0,1,1-.7.3.8.8,0,0,1-.2-.4H47s.2.1.1.1m-.2-.6c0-.3.1-.4.4-.4a.4.4,0,0,1,.4.4h0v.5a.4.4,0,0,1-.4.4c-.3,0-.4-.1-.4-.4v-.2h0v-.2c.1-.2.4-.2.6-.1s.2.3.1.5h.1v.2a.4.4,0,0,1-.4.4c-.3,0-.4-.1-.4-.4v-.5h0m.4,1.7c-.2.1-.5,0-.5-.2a.4.4,0,0,1,.2-.5h-.2c.1-.1,0,.1,0,0h0v-.5a2.3,2.3,0,0,0,.1-.7.4.4,0,0,1,.4-.4.4.4,0,0,1,.4.4,3.2,3.2,0,0,1-.1.8.9.9,0,0,1-.1.7c0,.1,0,.2-.2.2m-.6-1.4a.4.4,0,0,1,.8,0v.9h0s-.1-.1,0-.1h-.2a.4.4,0,0,1-.3.7c-.2-.1-.2-.1-.2-.2v-1.2m.8,1.6a.4.4,0,1,1-.8,0v-1.5h0a.4.4,0,0,1,.8,0h0v1.5m-.5-1.3a.5.5,0,0,1,.6.2.5.5,0,0,1-.3.5h.2v.7h0a.4.4,0,1,1-.8,0h0v-.9h.1a.2.2,0,0,1,.2-.2m-.1,1.9a.5.5,0,0,1,.9-.1h0v1.6c.1.1.1.2.1.4a1.3,1.3,0,0,1-.1.6c-.1.2-.4.2-.6.1s-.2-.4-.1-.6-.1.2,0,.2H47v-.2c-.1-.3-.1-.7-.2-1.1v-2.4h0a.4.4,0,0,1,.2-.5.5.5,0,0,1,.6.2h0v2.5c.1.4.1.7.2,1v.2h.1a.8.8,0,0,1-.1.4l-.7-.5h0a1.1,1.1,0,0,0-.1-.5,3.8,3.8,0,0,0-.1-1v-.6h0m-.3-1.2a.4.4,0,0,1,.5-.2c.3,0,.4.2.3.5h0v1a10.3,10.3,0,0,0,.1,1.8,1.3,1.3,0,0,0,.1.6v.2h0s-.1-.1,0-.1h-.3s-.2.1-.2,0-.1.2-.1.1h0a1.3,1.3,0,0,0-.1-.6v-1.9h0a.5.5,0,0,1,.5-.5.5.5,0,0,1,.4.5h0v2.7c0,.1,0,.2-.2.4H47v-.2a.6.6,0,0,1-.1-.4,1.5,1.5,0,0,1-.1-.7,12.1,12.1,0,0,1-.1-1.9v-1h0m-.2-.2c.2-.1.5-.1.6.1a.5.5,0,0,1-.1.6s.2-.2.1-.2h.1v2.1c0,.3.1.6.1.9a1,1,0,0,0,.1.4h-.1s-.3,0-.2-.1h-.3v-2.4a2.2,2.2,0,0,0-.1-.9v-.3h0s.1.1,0,.1.1-.5.3-.5a.4.4,0,0,1,.5.2h0a.4.4,0,0,1,.1.3v3.6c0,.1,0,.2-.2.3s-.3.2-.4.1h-.2l-.2-.3c0-.2-.1-.4-.1-.6s-.1-.6-.1-.9a9.6,9.6,0,0,1,0-1.7,2.2,2.2,0,0,1,0-.8v-.2m.9,3.7a.4.4,0,0,1-.4.4.5.5,0,0,1-.5-.4,6.3,6.3,0,0,0,0-1.4v-1a1.5,1.5,0,0,1-.1-.6v-.2h.2a.5.5,0,0,1-.2-.6.5.5,0,0,1,.6-.1H47v.2a.4.4,0,0,0,.1.3v.7c0,.3.1.6.1.9V146m0-2.9a.5.5,0,0,1-.4.5c-.3,0-.4-.2-.4-.5h0v-.2h0c0-.3.1-.4.4-.4a.4.4,0,0,1,.4.4v3.1h0a.4.4,0,0,1-.4.4.5.5,0,0,1-.5-.4h0v-.4a5.3,5.3,0,0,0,.1-1.3v-1.4c0-.3.1-.4.4-.4a.4.4,0,0,1,.4.4h0v.2h0m-.8,0a.4.4,0,0,1,.4-.4.4.4,0,0,1,.4.4.5.5,0,0,1-.4.5c-.3,0-.4-.2-.4-.5"/></g></svg>