<svg id="ziel" xmlns="http://www.w3.org/2000/svg" viewBox="0 0 669.5 323"><defs><style>.cls-1{fill:#c6dfec;}.cls-2,.cls-5{fill:none;stroke-miterlimit:10;}.cls-2{stroke:#1d1d1b;stroke-width:2px;}.cls-3{fill:#1d1d1b;}.cls-4{fill:#e62730;}.cls-5{stroke:#e62730;stroke-width:0.5px;}</style></defs><rect class="cls-1" x="331.3" y="66.7" width="159.6" height="202.83"/><line class="cls-2" x1="490.9" y1="66.7" x2="490.9" y2="269.5"/><line class="cls-2" x1="331.3" y1="66.7" x2="331.3" y2="269.5"/><line class="cls-2" x1="278.1" y1="66.7" x2="278.1" y2="269.5"/><line class="cls-2" x1="224.9" y1="66.7" x2="224.9" y2="269.5"/><rect class="cls-2" x="66.3" y="66.3" width="585.2" height="203.52"/><path class="cls-3" d="M63.4,295.4a2.5,2.5,0,0,1-2.2-1.2,6.4,6.4,0,0,1-.7-3.4,6.8,6.8,0,0,1,.7-3.5,2.7,2.7,0,0,1,2.2-1.1,2.5,2.5,0,0,1,2.1,1.1,6.8,6.8,0,0,1,.7,3.5,6.4,6.4,0,0,1-.7,3.4A2.4,2.4,0,0,1,63.4,295.4Zm0-.9.7-.2a1.3,1.3,0,0,0,.5-.7,3.6,3.6,0,0,0,.4-1.1,9.1,9.1,0,0,0,.1-1.7,8.6,8.6,0,0,0-.1-1.7,2.3,2.3,0,0,0-.4-1.1,1.3,1.3,0,0,0-.5-.7l-.7-.2-.8.2a1.3,1.3,0,0,0-.5.7,2.3,2.3,0,0,0-.4,1.1c0,.5-.1,1-.1,1.7a6.3,6.3,0,0,0,.5,2.8A1.4,1.4,0,0,0,63.4,294.5Z"/><path class="cls-3" d="M67.8,297.6l-.3-.6a2.2,2.2,0,0,0,.9-.7,1,1,0,0,0,.3-1h-.1l-.6-.2a1.4,1.4,0,0,1-.2-.6.8.8,0,0,1,.2-.6.7.7,0,0,1,.6-.2.8.8,0,0,1,.7.3,1.7,1.7,0,0,1,.3,1,2.8,2.8,0,0,1-.5,1.6A2.6,2.6,0,0,1,67.8,297.6Z"/><path class="cls-3" d="M73.6,295.4h-1l-.8-.2-.6-.4c-.2-.2-.4-.3-.5-.5l.5-.7,1,.7a2.5,2.5,0,0,0,1.3.3l.7-.2.7-.4.4-.6a2.8,2.8,0,0,0,.1-.9,1.6,1.6,0,0,0-.5-1.4,2,2,0,0,0-1.4-.5h-.8l-.7.4-.6-.4.3-4.3h4.5v1H72.7l-.2,2.7.6-.3h.7l1.1.2.9.5a3.5,3.5,0,0,1,.6.9,3.7,3.7,0,0,1,.2,1.2,2.8,2.8,0,0,1-.3,1.3,1.5,1.5,0,0,1-.6.9,2.1,2.1,0,0,1-1,.6A2,2,0,0,1,73.6,295.4Z"/><path class="cls-3" d="M221,295.4a2.6,2.6,0,0,1-2.2-1.2,6.4,6.4,0,0,1-.7-3.4,6.8,6.8,0,0,1,.7-3.5,2.8,2.8,0,0,1,2.2-1.1,2.5,2.5,0,0,1,2.1,1.1,6.8,6.8,0,0,1,.7,3.5,6.4,6.4,0,0,1-.7,3.4A2.4,2.4,0,0,1,221,295.4Zm0-.9.7-.2a1.3,1.3,0,0,0,.5-.7,3.6,3.6,0,0,0,.4-1.1,9.1,9.1,0,0,0,.1-1.7,8.6,8.6,0,0,0-.1-1.7,2.3,2.3,0,0,0-.4-1.1,1.3,1.3,0,0,0-.5-.7l-.7-.2-.8.2a1.3,1.3,0,0,0-.5.7,2.3,2.3,0,0,0-.4,1.1c0,.5-.1,1-.1,1.7a6.3,6.3,0,0,0,.5,2.8A1.4,1.4,0,0,0,221,294.5Z"/><path class="cls-3" d="M225.4,297.6l-.3-.6a2.2,2.2,0,0,0,.9-.7,1.4,1.4,0,0,0,.4-1h-.2l-.6-.2a1.4,1.4,0,0,1-.2-.6.8.8,0,0,1,.2-.6.7.7,0,0,1,.6-.2.8.8,0,0,1,.7.3,1.7,1.7,0,0,1,.3,1,2.8,2.8,0,0,1-.5,1.6A2.6,2.6,0,0,1,225.4,297.6Z"/><path class="cls-3" d="M231.4,295.4h-1.1a3.3,3.3,0,0,1-1-.6l-.6-.7a3.6,3.6,0,0,1-.2-1,1.9,1.9,0,0,1,.1-.8,4.3,4.3,0,0,1,.4-.7l.6-.5.6-.4h0a3.4,3.4,0,0,1-.9-.8,2.8,2.8,0,0,1-.4-1.2,3,3,0,0,1,.2-1,2,2,0,0,1,.6-.7,1.6,1.6,0,0,1,.8-.5h2l.8.5a2.2,2.2,0,0,1,.5.8,2.9,2.9,0,0,1,.2.9c0,.3-.1.5-.1.7l-.3.6-.4.5-.4.4h0l.5.3.5.5a1.6,1.6,0,0,1,.4.7,1.9,1.9,0,0,1,.1.8,2.9,2.9,0,0,1-.2.9,2.1,2.1,0,0,1-.6.8l-.9.5Zm0-.8a1.7,1.7,0,0,0,1.3-.5,1.3,1.3,0,0,0,.5-1.1,1.4,1.4,0,0,0-.2-.7l-.5-.6-.8-.4-.9-.4a3.8,3.8,0,0,0-.9.9,1.5,1.5,0,0,0-.4,1.1,1.9,1.9,0,0,0,.2.7l.4.5.6.4Zm.6-4.2a2.8,2.8,0,0,0,.7-.9,1.6,1.6,0,0,0,.3-.9,1.5,1.5,0,0,0-.4-1.1,1.7,1.7,0,0,0-1.2-.5,1.8,1.8,0,0,0-1,.4,1.4,1.4,0,0,0-.4,1.1,1,1,0,0,0,.2.7l.4.5.7.4Z"/><path class="cls-3" d="M276.8,295.4a2.4,2.4,0,0,1-2.1-1.2,6.4,6.4,0,0,1-.7-3.4,6.8,6.8,0,0,1,.7-3.5,2.6,2.6,0,0,1,4.2,0,6.7,6.7,0,0,1,.8,3.5,6.3,6.3,0,0,1-.8,3.4A2.4,2.4,0,0,1,276.8,295.4Zm0-.9.7-.2c.3-.1.4-.4.6-.7a3.5,3.5,0,0,0,.3-1.1,8.8,8.8,0,0,0,.2-1.7,7.9,7.9,0,0,0-.2-1.7,2.4,2.4,0,0,0-.3-1.1c-.2-.3-.3-.6-.6-.7l-.7-.2-.7.2a1.3,1.3,0,0,0-.5.7,2.3,2.3,0,0,0-.4,1.1,8.6,8.6,0,0,0-.1,1.7,5.2,5.2,0,0,0,.5,2.8A1.4,1.4,0,0,0,276.8,294.5Z"/><path class="cls-3" d="M281.2,297.6l-.2-.6a2.2,2.2,0,0,0,.9-.7,1.9,1.9,0,0,0,.3-1h-.1l-.6-.2a.7.7,0,0,1-.2-.6c0-.3,0-.5.2-.6a.7.7,0,0,1,.6-.2.9.9,0,0,1,.7.3,1.7,1.7,0,0,1,.3,1,2.8,2.8,0,0,1-.5,1.6A2.4,2.4,0,0,1,281.2,297.6Z"/><path class="cls-3" d="M286.7,295.4l-1.3-.2a2.2,2.2,0,0,1-.9-.7l.7-.7a1.5,1.5,0,0,0,.6.5l.8.2.9-.2c.3-.1.5-.4.8-.7a11.7,11.7,0,0,0,.5-1.1,9.2,9.2,0,0,0,.2-1.9,2.8,2.8,0,0,1-1,.9,2.3,2.3,0,0,1-1.1.3,2.5,2.5,0,0,1-1.9-.7,2.9,2.9,0,0,1-.6-2.1,2,2,0,0,1,.2-1.1,1.9,1.9,0,0,1,.5-.9,1.8,1.8,0,0,1,.9-.6,1.6,1.6,0,0,1,1-.2l1.2.2a3.9,3.9,0,0,1,1,.8,3,3,0,0,1,.6,1.4,5,5,0,0,1,.3,1.9,8,8,0,0,1-.3,2.3,5.3,5.3,0,0,1-.8,1.5,3.1,3.1,0,0,1-1.1.9Zm.4-4.5a1.6,1.6,0,0,0,.9-.3,1.7,1.7,0,0,0,1-.9,3.3,3.3,0,0,0-.7-1.9,1.4,1.4,0,0,0-1.3-.7h-.6a1,1,0,0,0-.5.4l-.4.6c0,.3-.1.5-.1.8a2.6,2.6,0,0,0,.4,1.4A1.4,1.4,0,0,0,287.1,290.9Z"/><path class="cls-4" d="M323.8,293.4l-6-2.3v-.9l6-2.4v1l-2.9,1.1-1.9.7h0l1.9.7,2.9,1.1Z"/><path class="cls-3" d="M328.2,295.3v-1h2v-6.6h-1.6V287l1.1-.3a2,2,0,0,0,.8-.4h.9v8h1.8v1Z"/><path class="cls-3" d="M335,297.6l-.3-.6a2.2,2.2,0,0,0,.9-.7,1.4,1.4,0,0,0,.4-1h-.2l-.6-.2a1.4,1.4,0,0,1-.2-.6.7.7,0,0,1,.9-.8,1.1,1.1,0,0,1,.7.3,3,3,0,0,1,.2,1,2.8,2.8,0,0,1-1.8,2.6Z"/><path class="cls-3" d="M341,295.4a2.4,2.4,0,0,1-2.1-1.2,6.3,6.3,0,0,1-.8-3.4,6.7,6.7,0,0,1,.8-3.5,2.6,2.6,0,0,1,4.2,0,6.7,6.7,0,0,1,.8,3.5,6.3,6.3,0,0,1-.8,3.4A2.4,2.4,0,0,1,341,295.4Zm0-.9.7-.2a2.2,2.2,0,0,0,.6-.7l.3-1.1a8.8,8.8,0,0,0,.2-1.7,7.9,7.9,0,0,0-.2-1.7,5.3,5.3,0,0,0-.3-1.1,2.2,2.2,0,0,0-.6-.7l-.7-.2-.7.2a1.3,1.3,0,0,0-.5.7,2.3,2.3,0,0,0-.4,1.1,8.6,8.6,0,0,0-.1,1.7,5.2,5.2,0,0,0,.5,2.8A1.4,1.4,0,0,0,341,294.5Z"/><path class="cls-4" d="M347.8,293.4v-1l2.9-1.1,1.9-.7h0l-1.9-.7-2.9-1.1v-1l6,2.4v.9Z"/><path class="cls-3" d="M645.6,295.3v-1h2v-6.6H646V287l1.1-.3.8-.4h.9v8h1.8v1Z"/><path class="cls-3" d="M652.4,297.6l-.3-.6a2.2,2.2,0,0,0,.9-.7,1.9,1.9,0,0,0,.3-1h-.1l-.6-.2a1.4,1.4,0,0,1-.2-.6.8.8,0,0,1,.2-.6.7.7,0,0,1,.6-.2.8.8,0,0,1,.7.3,1.7,1.7,0,0,1,.3,1,2.8,2.8,0,0,1-.5,1.6A2.6,2.6,0,0,1,652.4,297.6Z"/><path class="cls-3" d="M658.7,295.4l-1.3-.2a3.4,3.4,0,0,1-.9-.8,4.6,4.6,0,0,1-.7-1.4,9.2,9.2,0,0,1-.2-1.9,8,8,0,0,1,.3-2.3,3.5,3.5,0,0,1,.7-1.5,3.1,3.1,0,0,1,1.1-.9l1.3-.2,1.2.2a2.2,2.2,0,0,1,.9.7l-.6.7a1.8,1.8,0,0,0-.7-.5l-.8-.2-.9.2-.7.7a3.7,3.7,0,0,0-.5,1.1,9,9,0,0,0-.2,1.8,3.9,3.9,0,0,1,1-.8,2,2,0,0,1,1.1-.3,2.3,2.3,0,0,1,1.8.7,2.7,2.7,0,0,1,.7,2.1,3.6,3.6,0,0,1-.2,1.1,1.5,1.5,0,0,1-.6.9,1.6,1.6,0,0,1-.8.6A1.8,1.8,0,0,1,658.7,295.4Zm0-.9h.6l.5-.4.3-.6a2.2,2.2,0,0,0,.1-.8,2,2,0,0,0-.4-1.4,1.3,1.3,0,0,0-1.2-.5l-1,.2a3,3,0,0,0-.9,1,4.3,4.3,0,0,0,.6,1.9A1.5,1.5,0,0,0,658.7,294.5Z"/><path class="cls-3" d="M485,295.3v-1h2v-6.6h-1.6V287l1-.3.9-.4h.8v8H490v1Z"/><path class="cls-3" d="M491.7,297.6l-.2-.6a2.2,2.2,0,0,0,.9-.7,1.9,1.9,0,0,0,.3-1h-.1l-.6-.2a.7.7,0,0,1-.2-.6c0-.3,0-.5.2-.6a.7.7,0,0,1,.6-.2.9.9,0,0,1,.7.3,1.7,1.7,0,0,1,.3,1,2.8,2.8,0,0,1-.5,1.6A2.4,2.4,0,0,1,491.7,297.6Z"/><path class="cls-3" d="M497.6,295.4h-1l-.8-.2-.6-.4-.5-.5.5-.8,1,.8a2.5,2.5,0,0,0,1.3.3,2.2,2.2,0,0,0,1.4-.5,1.4,1.4,0,0,0,.5-1.2,1.9,1.9,0,0,0-.2-.7.8.8,0,0,0-.5-.5,2,2,0,0,0-.8-.4h-1.4v-.9h1.2l.8-.4a1,1,0,0,0,.4-.5,1.5,1.5,0,0,0,.1-.7,1.2,1.2,0,0,0-.4-1,1.2,1.2,0,0,0-1.1-.4,1.7,1.7,0,0,0-1,.3,2.4,2.4,0,0,0-.9.6l-.6-.7,1.1-.8a3.3,3.3,0,0,1,1.5-.3h1a2.6,2.6,0,0,1,.9.5,1.8,1.8,0,0,1,.5.7,1.5,1.5,0,0,1,.2.9,2.1,2.1,0,0,1-.4,1.4,3.6,3.6,0,0,1-1.2.8h0l.8.3.6.5.4.6a2.8,2.8,0,0,1,.1.9,2.2,2.2,0,0,1-.2,1.1l-.6.8-1,.5Z"/><path class="cls-3" d="M3.1,36.9V29.1H4.3l1.5,4.2.3.8a2.4,2.4,0,0,0,.2.8h.1l.3-.8a1.9,1.9,0,0,1,.2-.8l1.5-4.2H9.6v7.8H8.7V31.4a4.5,4.5,0,0,0,.1-1.1h0l-.7,1.8-1.4,4H6l-1.5-4-.6-1.8H3.8a3.7,3.7,0,0,1,.1,1.1c0,.5.1.9.1,1.2v4.3Z"/><path class="cls-3" d="M12.2,29.9l-.5-.2a.5.5,0,0,1-.2-.4.8.8,0,0,1,.2-.5l.5-.2.5.2a.8.8,0,0,1,.2.5.5.5,0,0,1-.2.4Zm-.5,7V31.1h1v5.8Z"/><path class="cls-3" d="M16.2,37.1,15,36.9l-1-.6.5-.7.8.5c.2.2.5.2.9.2l.9-.2a.9.9,0,0,0,.3-.7.8.8,0,0,0-.2-.4c0-.1-.2-.2-.3-.3l-.4-.2-.5-.2-.6-.2-.6-.4-.4-.4a1.5,1.5,0,0,1-.1-.7,1.3,1.3,0,0,1,.1-.6l.4-.6.6-.3h.9a1.6,1.6,0,0,1,1,.2,2,2,0,0,1,.8.4l-.5.6-.6-.3-.7-.2a1,1,0,0,0-.8.3.7.7,0,0,0-.3.6c0,.1.1.2.1.3l.3.3.4.2.5.2.7.2a1,1,0,0,1,.5.4c.2.1.3.3.4.4a1.9,1.9,0,0,1,.2.7,1.5,1.5,0,0,1-.1.7l-.4.6-.7.3Z"/><path class="cls-3" d="M22,37.1l-1.1-.2-.9-.6-.6-1a5.1,5.1,0,0,1-.2-1.3,2.8,2.8,0,0,1,.3-1.3,1.8,1.8,0,0,1,.6-.9,1.5,1.5,0,0,1,.9-.6,1.8,1.8,0,0,1,1-.2,1.5,1.5,0,0,1,1,.2l.7.4-.5.7a1,1,0,0,0-.5-.4H21.3l-.5.5a1.6,1.6,0,0,0-.4.7,2.8,2.8,0,0,0-.1.9,2.2,2.2,0,0,0,.1.9,2,2,0,0,0,.4.8l.5.4.8.2.7-.2.6-.4.5.6a2.4,2.4,0,0,1-.9.6Z"/><path class="cls-3" d="M25.1,36.9V28.4h1v3.5l.9-.7,1-.2a2,2,0,0,1,1.4.5,2.9,2.9,0,0,1,.4,1.7v3.7h-1V33.4a2.9,2.9,0,0,0-.2-1.2,1,1,0,0,0-.9-.4l-.8.2-.8.7v4.2Z"/><path class="cls-3" d="M33.4,37.1a1.6,1.6,0,0,1-1.4-.6,2.7,2.7,0,0,1-.4-1.7V31.1h1v3.6a3.7,3.7,0,0,0,.2,1.2,1.2,1.2,0,0,0,.9.3,1.2,1.2,0,0,0,.8-.2,2.9,2.9,0,0,0,.7-.8V31.1h1v5.8h-.8V36h0l-.9.8A1.7,1.7,0,0,1,33.4,37.1Z"/><path class="cls-3" d="M38.2,36.9V31.1H39v.8h0l.9-.7,1.1-.2a1.6,1.6,0,0,1,1.3.5,2.9,2.9,0,0,1,.5,1.7v3.7h-1V33.4a1.7,1.7,0,0,0-.3-1.2.8.8,0,0,0-.8-.4L40,32l-.8.7v4.2Z"/><path class="cls-3" d="M46.7,39.6h-1a.9.9,0,0,1-.7-.3,1.2,1.2,0,0,1-.5-.5,1.4,1.4,0,0,1-.2-.6,2.4,2.4,0,0,1,.2-.8l.7-.6h0a.8.8,0,0,1-.4-.4.8.8,0,0,1-.2-.6.9.9,0,0,1,.3-.6.8.8,0,0,1,.4-.4h0a1.5,1.5,0,0,1-.5-.6,1.7,1.7,0,0,1-.3-1,1.9,1.9,0,0,1,.2-.8,1.8,1.8,0,0,1,.5-.7l.7-.4h3.7v.8H48.4l.3.5a1.4,1.4,0,0,1,.2.7,1.9,1.9,0,0,1-.2.8,1,1,0,0,1-.5.6c-.2.2-.4.4-.6.4l-.9.2h-.9l-.2.3c-.1.1-.1.2-.1.4s0,.3.2.4.4.2.8.2h1.1a2.5,2.5,0,0,1,1.6.4,1.1,1.1,0,0,1,.5,1,2.4,2.4,0,0,1-.2.8l-.6.6-.9.5Zm.2-.7h.7l.6-.2.4-.4a.8.8,0,0,0-.2-1l-.9-.2H45.8l-.5.5a1.1,1.1,0,0,0-.1.5.9.9,0,0,0,.4.8A2.4,2.4,0,0,0,46.9,38.9Zm-.2-4.5h.5l.4-.2.3-.5A3.5,3.5,0,0,0,48,33a1.8,1.8,0,0,0-.4-1,1.2,1.2,0,0,0-.9-.3,1.6,1.6,0,0,0-.9.3,1.7,1.7,0,0,0-.3,1c0,.3,0,.5.1.6s.1.3.3.5l.4.2Z"/><path class="cls-3" d="M52.3,37.1l-1.2-.2-.9-.6.4-.7.8.5a1.6,1.6,0,0,0,1,.2l.8-.2a.9.9,0,0,0,.3-.7.6.6,0,0,0-.1-.4l-.3-.3-.4-.2-.5-.2-.6-.2-.6-.4c-.2-.1-.3-.3-.4-.4a1.4,1.4,0,0,1-.2-.7,1.4,1.4,0,0,1,.2-.6,2.1,2.1,0,0,1,.4-.6l.6-.3h.8a2,2,0,0,1,1.1.2l.8.4-.5.6-.6-.3-.7-.2c-.4,0-.7.1-.8.3a.7.7,0,0,0-.3.6.4.4,0,0,0,.1.3l.3.3.4.2.5.2.6.2.6.4c.2.1.3.3.4.4a1.9,1.9,0,0,1,.2.7,1.4,1.4,0,0,1-.2.7,2.1,2.1,0,0,1-.4.6,1.5,1.5,0,0,1-.7.3Z"/><path class="cls-3" d="M57.1,36.9,55,31.1h1l1.1,3.3.3.9.3.8h0l.3-.8.2-.9,1.1-3.3h1l-2.1,5.8Z"/><path class="cls-3" d="M63.8,37.1l-1.1-.2-.9-.6a2.1,2.1,0,0,1-.6-1A2.7,2.7,0,0,1,61,34a3,3,0,0,1,.2-1.3,1.8,1.8,0,0,1,.6-.9,1.6,1.6,0,0,1,.8-.6,1.6,1.6,0,0,1,1-.2,2.2,2.2,0,0,1,1.7.7,1.9,1.9,0,0,1,.4.9,3.6,3.6,0,0,1,.2,1.1v.6h-4a2.6,2.6,0,0,0,.6,1.4,1.8,1.8,0,0,0,1.4.6h.7l.7-.4.4.7-.9.4Zm-1.9-3.5H65a2.6,2.6,0,0,0-.3-1.4,1.4,1.4,0,0,0-1.1-.5l-.6.2a.9.9,0,0,0-.5.3,2.1,2.1,0,0,0-.4.6A1.9,1.9,0,0,0,61.9,33.6Z"/><path class="cls-3" d="M67.3,36.9V31.1h.9v1.1h.1a2.2,2.2,0,0,1,.7-.9,1.6,1.6,0,0,1,.9-.3h.7l-.2.8h-.6l-.8.3a2.9,2.9,0,0,0-.7,1v3.7Z"/><path class="cls-3" d="M71.5,36.9V28.4h1v3.5l.8-.7,1.1-.2a1.6,1.6,0,0,1,1.3.5,2.9,2.9,0,0,1,.5,1.7v3.7h-1V33.4a1.7,1.7,0,0,0-.3-1.2.8.8,0,0,0-.8-.4l-.8.2-.8.7v4.2Z"/><path class="cls-3" d="M79.4,37.1a2.1,2.1,0,0,1-1.2-.4,1.4,1.4,0,0,1-.5-1.3,1.6,1.6,0,0,1,.8-1.4,7.2,7.2,0,0,1,2.7-.8v-.5c0-.2-.1-.3-.2-.5l-.4-.3H80a1.5,1.5,0,0,0-.9.2l-.8.4-.4-.7,1-.5a2.7,2.7,0,0,1,1.3-.2,2.1,2.1,0,0,1,1.6.6,3.2,3.2,0,0,1,.4,1.8v3.5h-.8v-.7h0a2.4,2.4,0,0,1-.9.6A1.9,1.9,0,0,1,79.4,37.1ZM79,29.9l-.4-.2a.5.5,0,0,1,0-.8l.4-.2.5.2c.1.1.1.2.1.4s0,.3-.1.4Zm.7,6.4.8-.2a1.9,1.9,0,0,0,.7-.6V33.9l-1.2.2-.8.3-.4.4a1.4,1.4,0,0,0-.2.6.9.9,0,0,0,.3.7Zm1.6-6.4-.4-.2c-.1-.1-.1-.2-.1-.4s0-.3.1-.4l.4-.2.5.2c.1.1.1.2.1.4s0,.3-.1.4Z"/><path class="cls-3" d="M85.1,37.1a.8.8,0,0,1-.8-.4,2,2,0,0,1-.2-.9V28.4h1v7.8h.5V37c-.1,0-.2,0-.2.1Z"/><path class="cls-3" d="M89,37.1l-.8-.2a1,1,0,0,1-.5-.4.6.6,0,0,1-.3-.6,1.9,1.9,0,0,1-.1-.8V31.9h-.9v-.7h1V29.5h.8v1.6h1.6v.8H88.3v3.3a1.9,1.9,0,0,0,.2.8.8.8,0,0,0,.7.3h.7l.2.8H89Z"/><path class="cls-3" d="M91.2,36.9V31.1H92v.8h0l.9-.7,1.1-.2a1.6,1.6,0,0,1,1.3.5,2.9,2.9,0,0,1,.5,1.7v3.7h-1V33.4a1.7,1.7,0,0,0-.3-1.2.8.8,0,0,0-.8-.4L93,32l-.8.7v4.2Z"/><path class="cls-3" d="M98.3,29.9l-.5-.2c-.2-.1-.2-.2-.2-.4s0-.4.2-.5l.5-.2.5.2a.7.7,0,0,1,.1.5c0,.2,0,.3-.1.4Zm-.5,7V31.1h.9v5.8Z"/><path class="cls-3" d="M102.2,37.1l-1.2-.2-.9-.6.5-.7.7.5a1.6,1.6,0,0,0,1,.2,1.5,1.5,0,0,0,.8-.2.9.9,0,0,0,.3-.7.6.6,0,0,0-.1-.4l-.3-.3-.4-.2-.5-.2-.6-.2-.6-.4c-.2-.1-.3-.3-.4-.4a1.5,1.5,0,0,1-.1-.7,1.3,1.3,0,0,1,.1-.6l.4-.6.6-.3h.9a1.8,1.8,0,0,1,1,.2l.8.4-.5.6-.6-.3-.7-.2c-.4,0-.7.1-.8.3a.7.7,0,0,0-.3.6.4.4,0,0,0,.1.3l.3.3.4.2.5.2.6.2.6.4c.2.1.3.3.4.4a1.9,1.9,0,0,1,.2.7,1.4,1.4,0,0,1-.2.7,2.1,2.1,0,0,1-.4.6c-.2.1-.4.3-.6.3Z"/><path class="cls-3" d="M1.1,319.5v-7.8h1v7H5.5v.8Z"/><path class="cls-3" d="M8.4,319.7a1.7,1.7,0,0,1-1.4-.6,3.5,3.5,0,0,1-.4-1.7v-3.7h1v3.6a2.1,2.1,0,0,0,.3,1.2c.1.2.4.3.8.3a1.1,1.1,0,0,0,.8-.2l.8-.7v-4.2h1v5.8h-.9v-.9h-.1a3,3,0,0,1-.8.8A2,2,0,0,1,8.4,319.7Z"/><path class="cls-3" d="M13.4,319.5v-5h-.8v-.7h.8v-.9a2,2,0,0,1,.4-1.4,1.4,1.4,0,0,1,1.3-.5h1l-.2.8h-.7c-.6,0-.8.3-.8,1.1v.9h2.1v-1.6h.8v1.6H19v.8H17.4v3.3a1.1,1.1,0,0,0,.3.8c.1.2.3.3.7.3H19l.2.8H18.1l-.8-.2-.5-.4a1.6,1.6,0,0,1-.3-.6v-4H14.4v5Z"/><path class="cls-3" d="M21.6,319.5l-2.1-5.8h1l1.1,3.3.3.9.3.8h0l.3-.8.3-.9,1.1-3.3h.9l-2,5.8Z"/><path class="cls-3" d="M28.3,319.7l-1.1-.2-.9-.6a2.1,2.1,0,0,1-.6-1,2.7,2.7,0,0,1-.2-1.3,3,3,0,0,1,.2-1.3,1.8,1.8,0,0,1,.6-.9,1.6,1.6,0,0,1,.8-.6,1.8,1.8,0,0,1,1-.2,1.6,1.6,0,0,1,1,.2,1.8,1.8,0,0,1,.7.5,2.6,2.6,0,0,1,.5.9,3.7,3.7,0,0,1,.1,1.1v.6h-4a2.6,2.6,0,0,0,.6,1.4,1.8,1.8,0,0,0,1.4.6h.8l.6-.4.4.7-.9.4Zm-1.9-3.5h3.2a2.6,2.6,0,0,0-.4-1.4,1.4,1.4,0,0,0-1.1-.5l-.6.2c-.2,0-.3.2-.5.3l-.4.6C26.5,315.6,26.5,315.9,26.4,316.2Z"/><path class="cls-3" d="M31.9,319.5v-5.8h.8v1.1h0a2.2,2.2,0,0,1,.7-.9,1.7,1.7,0,0,1,1-.3h.6l-.2.9h-.6l-.8.3a2.9,2.9,0,0,0-.7,1v3.7Z"/><path class="cls-3" d="M36,319.5V311h1v3.5l.8-.7,1.1-.2a2,2,0,0,1,1.4.5,3.9,3.9,0,0,1,.4,1.7v3.7h-1V316a1.7,1.7,0,0,0-.3-1.2c-.1-.3-.4-.4-.8-.4l-.8.2-.8.7v4.2Z"/><path class="cls-3" d="M43.9,319.7a2.1,2.1,0,0,1-1.2-.4,1.7,1.7,0,0,1-.5-1.3,1.6,1.6,0,0,1,.8-1.4,7.2,7.2,0,0,1,2.8-.8,4.3,4.3,0,0,1-.1-.5c0-.2-.1-.3-.2-.5l-.3-.3h-.6a1.6,1.6,0,0,0-1,.2l-.8.4-.4-.7,1-.5,1.3-.2a2,2,0,0,1,1.6.6,3.2,3.2,0,0,1,.5,1.8v3.5h-.9v-.7h-.1a2.4,2.4,0,0,1-.9.6A1.7,1.7,0,0,1,43.9,319.7Zm-.3-7.2-.5-.2c-.1-.1-.1-.2-.1-.4s0-.3.1-.4l.5-.2.4.2c.1.1.1.2.1.4s0,.3-.1.4Zm.6,6.4.8-.2.8-.6v-1.6l-1.3.2-.8.3-.4.5a.7.7,0,0,0-.1.5.9.9,0,0,0,.3.7Zm1.7-6.4-.5-.2c-.1-.1-.1-.2-.1-.4s0-.3.1-.4l.5-.2.4.2a.5.5,0,0,1,0,.8Z"/><path class="cls-3" d="M49.6,319.7a1.1,1.1,0,0,1-.8-.3,3,3,0,0,1-.2-1V311h1v7.4c0,.2,0,.3.1.4h.4v.8h-.6Z"/><path class="cls-3" d="M53.5,319.7l-.8-.2a1,1,0,0,1-.5-.4,1.6,1.6,0,0,1-.3-.6c0-.2-.1-.5-.1-.8v-3.2H51v-.7h.9v-1.6h.8v1.6h1.6v.8H52.8v3.3a1.9,1.9,0,0,0,.2.8.9.9,0,0,0,.7.3h.7l.2.8H53.5Z"/><path class="cls-3" d="M55.7,319.5v-5.8h.8v.9h.1a3,3,0,0,1,.8-.8l1.1-.2a2,2,0,0,1,1.4.5,3.9,3.9,0,0,1,.4,1.7v3.7h-1V316a1.7,1.7,0,0,0-.3-1.2c-.1-.3-.4-.4-.8-.4l-.8.2-.8.7v4.2Z"/><path class="cls-3" d="M62.8,312.5c-.2,0-.4,0-.5-.2a.5.5,0,0,1-.2-.4.8.8,0,0,1,.2-.5l.5-.2.5.2a.8.8,0,0,1,.2.5.5.5,0,0,1-.2.4A.6.6,0,0,1,62.8,312.5Zm-.5,7v-5.8h1v5.8Z"/><path class="cls-3" d="M66.8,319.7l-1.2-.2-1-.6.5-.7.8.5c.2.2.5.2.9.2l.9-.2a1.4,1.4,0,0,0,.2-.7.6.6,0,0,0-.1-.4l-.3-.3-.4-.2-.5-.2-.6-.2-.6-.4-.4-.4a1.5,1.5,0,0,1-.1-.7,1.3,1.3,0,0,1,.1-.6,2.1,2.1,0,0,1,.4-.6l.6-.3h.9a1.8,1.8,0,0,1,1,.2l.8.4-.5.7-.6-.4-.7-.2c-.4,0-.7.1-.8.3a.9.9,0,0,0-.3.6c0,.1.1.2.1.3l.3.3.4.2.5.2.6.2a1.3,1.3,0,0,1,.6.4,1,1,0,0,1,.4.5,1.1,1.1,0,0,1,.2.6c0,.3-.1.5-.1.7l-.5.6a1.1,1.1,0,0,1-.6.3Z"/><path class="cls-3" d="M316.4,56.9V56h2V49.4h-1.6v-.7l1-.3.9-.4h.8v8h1.9v.9Z"/><path class="cls-3" d="M324,52c-.3,0-.5,0-.6-.2a.9.9,0,0,1-.3-.6.9.9,0,0,1,.3-.7.8.8,0,0,1,.6-.2l.5.2a.9.9,0,0,1,.3.7.9.9,0,0,1-.3.6C324.4,52,324.2,52,324,52Zm0,5.1a.8.8,0,0,1-.6-.2.9.9,0,0,1-.3-.7.7.7,0,0,1,.3-.6.6.6,0,0,1,.6-.3.5.5,0,0,1,.5.3.7.7,0,0,1,.3.6.9.9,0,0,1-.3.7Z"/><path class="cls-3" d="M326.8,56.9V56h2V49.4h-1.6v-.7l1.1-.3.8-.4h.9v8h1.8v.9Z"/><path class="cls-3" d="M336.9,56.9V54.5h-4v-.8l3.8-5.7H338v5.5h1.2v1H338v2.4Zm-2.8-3.4h2.8V50.1c0-.3.1-.6.1-.9h-.1l-.3.7a2.1,2.1,0,0,0-.4.6Z"/><path class="cls-3" d="M340.5,59.3l-.2-.7a1.6,1.6,0,0,0,.9-.7,1.7,1.7,0,0,0,.3-1,.1.1,0,0,1-.1.1.9.9,0,0,1-.6-.3c-.2-.1-.2-.3-.2-.5s0-.5.2-.6a.9.9,0,0,1,.6-.3,1,1,0,0,1,.7.4,1.5,1.5,0,0,1,.3,1,3,3,0,0,1-.5,1.6A3,3,0,0,1,340.5,59.3Z"/><path class="cls-3" d="M345.6,56.9a16.4,16.4,0,0,1,.2-2.3,14.6,14.6,0,0,1,.5-2,13.4,13.4,0,0,1,.7-1.8,9.4,9.4,0,0,1,1.2-1.8h-4.5V48h5.8v.7a9.2,9.2,0,0,0-1.3,1.9,9.7,9.7,0,0,0-.8,1.9,7.1,7.1,0,0,0-.4,2.1,16.4,16.4,0,0,0-.2,2.3Z"/><path class="cls-3" d="M570.8,13V5.1h1V8.4h3.6V5.1h1V13h-1V9.3h-3.6V13Z"/><path class="cls-3" d="M580.9,13.1l-1.1-.2a1.5,1.5,0,0,1-.9-.6,2.1,2.1,0,0,1-.6-1,4.3,4.3,0,0,1-.2-1.2,4.4,4.4,0,0,1,.2-1.3,3.3,3.3,0,0,1,.6-1,1.6,1.6,0,0,1,.8-.6l1-.2a1.6,1.6,0,0,1,1,.2,1.8,1.8,0,0,1,.7.5,4.1,4.1,0,0,1,.5.9,3.7,3.7,0,0,1,.1,1.1v.6h-3.9a2.5,2.5,0,0,0,.5,1.5,2.2,2.2,0,0,0,1.4.5h.8l.6-.3.4.6-.9.4ZM579,9.6h3.2a2.6,2.6,0,0,0-.4-1.4,1.4,1.4,0,0,0-1.1-.4h-.6l-.5.3-.4.6C579.1,9,579.1,9.3,579,9.6Z"/><path class="cls-3" d="M586.2,13.1h-.8l-.5-.4c-.2-.2-.2-.4-.3-.6a2.5,2.5,0,0,1-.1-.8V7.9h-.9V7.2h1V5.5h.8V7.1h1.6v.8h-1.6v3.3a1.9,1.9,0,0,0,.2.8.8.8,0,0,0,.7.3h.3l.4-.2.2.8h-1.1Z"/><path class="cls-3" d="M590.6,13.1l-1.1-.2a2.4,2.4,0,0,1-.9-.6l-.6-1a4.3,4.3,0,0,1-.2-1.2,4.4,4.4,0,0,1,.2-1.3l.6-1a2.1,2.1,0,0,1,.8-.6l1-.2a1.6,1.6,0,0,1,1,.2,1.8,1.8,0,0,1,.7.5,4.1,4.1,0,0,1,.5.9,3.7,3.7,0,0,1,.1,1.1v.6h-3.9a2,2,0,0,0,.6,1.5,1.9,1.9,0,0,0,1.3.5h.8l.7-.3.3.6-.8.4Zm-1.8-3.5h3.1a2,2,0,0,0-.4-1.4,1.4,1.4,0,0,0-1.1-.4h-.6l-.5.3-.3.6A1.9,1.9,0,0,0,588.8,9.6Z"/><path class="cls-3" d="M594.2,13V7.1h.8V8.2h0a3.5,3.5,0,0,1,.7-.9,1.7,1.7,0,0,1,1-.3h.6l-.2.9h-.6a1.1,1.1,0,0,0-.7.3,2,2,0,0,0-.7,1V13Z"/><path class="cls-3" d="M600.5,13.1l-1-.2a1.8,1.8,0,0,1-.9-.6l-.6-1a4.3,4.3,0,0,1-.2-1.2,4.4,4.4,0,0,1,.2-1.3l.6-1a1.8,1.8,0,0,1,.9-.6l1-.2,1,.2a2.4,2.4,0,0,1,.9.6l.6,1a4.4,4.4,0,0,1,.2,1.3,4.3,4.3,0,0,1-.2,1.2l-.6,1a2.4,2.4,0,0,1-.9.6Zm0-.8.7-.2a1,1,0,0,0,.5-.4,2.5,2.5,0,0,0,.4-.7c0-.3.1-.6.1-.9s-.1-.7-.1-1a2.5,2.5,0,0,0-.4-.7,1,1,0,0,0-.5-.4l-.7-.2-.7.2a1,1,0,0,0-.5.4,2.5,2.5,0,0,0-.4.7c0,.3-.1.6-.1,1s.1.6.1.9a2.5,2.5,0,0,0,.4.7,1,1,0,0,0,.5.4Z"/><path class="cls-3" d="M606.7,15.6h-1a.9.9,0,0,1-.7-.3.8.8,0,0,1-.5-.5c-.2-.1-.2-.4-.2-.6a1.4,1.4,0,0,1,.2-.7,1.7,1.7,0,0,1,.6-.6h0l-.3-.4a.8.8,0,0,1-.2-.5,1.4,1.4,0,0,1,.2-.7l.5-.4h0a1.7,1.7,0,0,1-.6-.6,2.9,2.9,0,0,1-.2-.9,2.4,2.4,0,0,1,.2-.9,1.8,1.8,0,0,1,.5-.7l.7-.4h3.7v.8h-1.2l.3.5a1.5,1.5,0,0,1,.1.7,1.9,1.9,0,0,1-.1.8,1.8,1.8,0,0,1-.5.7l-.7.4h-1.2l-.5-.2-.2.3c-.1.1-.1.2-.1.4a.6.6,0,0,0,.2.5h1.9a2.7,2.7,0,0,1,1.5.4,1,1,0,0,1,.6,1,1.1,1.1,0,0,1-.3.8,1.5,1.5,0,0,1-.5.6l-1,.5Zm.1-.6h.8l.6-.3.4-.4v-.4a.6.6,0,0,0-.3-.6h-2.6a1.1,1.1,0,0,0-.5.4,1.1,1.1,0,0,0-.1.5.8.8,0,0,0,.4.8A2.1,2.1,0,0,0,606.8,15Zm-.1-4.5h.5l.4-.3a.8.8,0,0,0,.2-.5.7.7,0,0,0,.1-.5,1.3,1.3,0,0,0-.3-1,1.2,1.2,0,0,0-1.8,0,1.3,1.3,0,0,0-.3,1,.7.7,0,0,0,.1.5.8.8,0,0,0,.2.5l.4.3Z"/><path class="cls-3" d="M613,13.1l-1.1-.2a1.5,1.5,0,0,1-.9-.6,2.1,2.1,0,0,1-.6-1,4.3,4.3,0,0,1-.2-1.2,4.4,4.4,0,0,1,.2-1.3,2.1,2.1,0,0,1,.6-1,1.6,1.6,0,0,1,.8-.6l1-.2a1.6,1.6,0,0,1,1,.2,1.8,1.8,0,0,1,.7.5,4.1,4.1,0,0,1,.5.9,3.7,3.7,0,0,1,.1,1.1v.6h-3.9a2.5,2.5,0,0,0,.5,1.5,2.2,2.2,0,0,0,1.4.5h.8l.6-.3.4.6-.9.4Zm-1.9-3.5h3.2a2.6,2.6,0,0,0-.4-1.4,1.4,1.4,0,0,0-1.1-.4h-.6l-.5.3-.4.6C611.2,9,611.2,9.3,611.1,9.6Z"/><path class="cls-3" d="M616.6,13V7.1h.8V8h0l.9-.7a1.8,1.8,0,0,1,1.1-.3,1.5,1.5,0,0,1,1.3.6,2.5,2.5,0,0,1,.4,1.7V13h-1V9.4c0-.6,0-1-.2-1.2a1.3,1.3,0,0,0-.9-.4,1.3,1.3,0,0,0-.8.3l-.8.6V13Z"/><path class="cls-3" d="M625.5,13.1l-1.1-.2a2.4,2.4,0,0,1-.9-.6l-.6-1a4.3,4.3,0,0,1-.2-1.2,4.4,4.4,0,0,1,.2-1.3l.6-1a1.6,1.6,0,0,1,.8-.6l1-.2a1.6,1.6,0,0,1,1,.2,1.8,1.8,0,0,1,.7.5,4.1,4.1,0,0,1,.5.9,3.7,3.7,0,0,1,.1,1.1v.6h-3.9a2.5,2.5,0,0,0,.5,1.5,2.4,2.4,0,0,0,1.4.5h.8l.7-.3.3.6a2,2,0,0,1-.8.4Zm-1.8-3.5h3.1a2.6,2.6,0,0,0-.4-1.4,1.4,1.4,0,0,0-1.1-.4h-.6l-.5.3-.3.6A1.9,1.9,0,0,0,623.7,9.6Z"/><path class="cls-3" d="M630.6,13.1l-1.2-.2-1-.6.5-.7.8.5a1.5,1.5,0,0,0,.9.2l.9-.2a.9.9,0,0,0,.3-.7.6.6,0,0,0-.1-.4l-.3-.3-.5-.2-.4-.2-.7-.2a1,1,0,0,1-.5-.4l-.4-.4a1.4,1.4,0,0,1-.2-.7,1.4,1.4,0,0,1,.2-.6.7.7,0,0,1,.4-.5.9.9,0,0,1,.6-.4h.8a1.6,1.6,0,0,1,1,.2l.8.4-.4.7-.7-.4h-.7a1.1,1.1,0,0,0-.8.2,1.4,1.4,0,0,0-.2.6.4.4,0,0,0,.1.3l.3.3a.5.5,0,0,0,.4.2l.5.2.6.3.6.3.4.5a1.5,1.5,0,0,1,.1.7,1.3,1.3,0,0,1-.1.6l-.4.6-.7.4Z"/><path class="cls-3" d="M573.9,27.5a4,4,0,0,1-1.5-.3,2.8,2.8,0,0,1-1.1-.8,3.2,3.2,0,0,1-.7-1.3,4.3,4.3,0,0,1-.3-1.7,4.7,4.7,0,0,1,.3-1.7,5.4,5.4,0,0,1,.7-1.3,5,5,0,0,1,1.2-.8,3.2,3.2,0,0,1,1.4-.3h.8l.6.2a1,1,0,0,1,.5.4l.4.3-.5.7-.7-.6-1-.2-1.1.2a2.7,2.7,0,0,0-.8.7,3.3,3.3,0,0,0-.6,1,5.3,5.3,0,0,0-.1,1.3,5.3,5.3,0,0,0,.1,1.3,11.7,11.7,0,0,0,.5,1.1l.9.6a2,2,0,0,0,1.1.2h.8l.6-.3V24.1h-1.7v-.8h2.6v3.3a2.1,2.1,0,0,1-1,.6A3.2,3.2,0,0,1,573.9,27.5Z"/><path class="cls-3" d="M580.5,27.5l-1.1-.2a1.5,1.5,0,0,1-.9-.6,2.1,2.1,0,0,1-.6-1,2.3,2.3,0,0,1-.2-1.2,2.5,2.5,0,0,1,.2-1.3,2.1,2.1,0,0,1,.6-1,1.6,1.6,0,0,1,.8-.6l1-.2a2.2,2.2,0,0,1,1.7.7,3.6,3.6,0,0,1,.4.9,2,2,0,0,1,.2,1.1v.6h-4a3.4,3.4,0,0,0,.6,1.5,2.2,2.2,0,0,0,1.4.5h.8l.6-.3.4.6-.9.4ZM578.6,24h3.1a2.6,2.6,0,0,0-.3-1.4,1.4,1.4,0,0,0-1.1-.4h-.6l-.5.3-.4.6C578.7,23.4,578.7,23.7,578.6,24Z"/><path class="cls-3" d="M584,27.4V21.5h.9v.9h.1a2.7,2.7,0,0,1,.8-.7,1.7,1.7,0,0,1,1-.3,1.5,1.5,0,0,1,1,.3,1.2,1.2,0,0,1,.6.8l.9-.8a1.9,1.9,0,0,1,1-.3,1.7,1.7,0,0,1,1.4.6,3.2,3.2,0,0,1,.4,1.7v3.7h-1V23.8a1.7,1.7,0,0,0-.3-1.2.9.9,0,0,0-.8-.4,2.1,2.1,0,0,0-1.4.9v4.3h-1V23.8a1.7,1.7,0,0,0-.3-1.2,1,1,0,0,0-.8-.4,2.5,2.5,0,0,0-1.5.9v4.3Z"/><path class="cls-3" d="M594.5,20.3c-.2,0-.4,0-.5-.2a.5.5,0,0,1-.2-.4.8.8,0,0,1,.2-.5h1a.8.8,0,0,1,.2.5.5.5,0,0,1-.2.4A.6.6,0,0,1,594.5,20.3Zm-.5,7.1V21.5h1v5.9Z"/><path class="cls-3" d="M598.5,27.5l-1.2-.2-1-.6.5-.7.8.5a1.3,1.3,0,0,0,.9.2l.9-.2a.9.9,0,0,0,.3-.7.8.8,0,0,0-.2-.4l-.3-.3-.4-.2-.5-.2-.6-.2-.6-.4c-.1-.1-.3-.2-.4-.4a1.5,1.5,0,0,1-.1-.7,1.3,1.3,0,0,1,.1-.6,1,1,0,0,1,.4-.5l.6-.4h.9a1.6,1.6,0,0,1,1,.2l.8.4-.5.7-.6-.4h-.7c-.4,0-.6,0-.8.2a.9.9,0,0,0-.3.6c0,.1.1.2.1.3l.3.3.4.2.5.2.7.3a.5.5,0,0,1,.5.3,1,1,0,0,1,.4.5,1.4,1.4,0,0,1,.2.7,1.3,1.3,0,0,1-.1.6l-.4.6-.7.4Z"/><path class="cls-3" d="M604.3,27.5l-1.1-.2a2.4,2.4,0,0,1-.9-.6l-.6-1a4.3,4.3,0,0,1-.2-1.2,2.5,2.5,0,0,1,.3-1.3,2.1,2.1,0,0,1,.6-1,1.5,1.5,0,0,1,.9-.6l1-.2,1,.2.8.5-.6.6-.5-.4h-.6l-.7.2a.9.9,0,0,0-.6.4,2.5,2.5,0,0,0-.4.7,3.1,3.1,0,0,0-.1,1,2.8,2.8,0,0,0,.1.9,2.5,2.5,0,0,0,.4.7,1,1,0,0,0,.5.4l.8.2.7-.2.6-.4.5.7-.9.5Z"/><path class="cls-3" d="M607.4,27.4V18.8h1v3.5l.9-.6a1.7,1.7,0,0,1,1-.3,1.6,1.6,0,0,1,1.4.6,2.5,2.5,0,0,1,.4,1.7v3.7h-1V23.8a2.9,2.9,0,0,0-.2-1.2,1.3,1.3,0,0,0-.9-.4,1.3,1.3,0,0,0-.8.3l-.8.6v4.3Z"/><path class="cls-3" d="M272.1,319.7v-7.9h1v7h3.4v.9Z"/><path class="cls-3" d="M279.4,319.8a2,2,0,0,1-1.4-.5,2.9,2.9,0,0,1-.4-1.7v-3.7h1v3.5a1.7,1.7,0,0,0,.3,1.2c.1.3.4.4.8.4a1.1,1.1,0,0,0,.8-.3l.8-.7v-4.1h.9v5.8h-.8v-.9h0c-.3.3-.5.6-.8.7A2,2,0,0,1,279.4,319.8Z"/><path class="cls-3" d="M284.4,319.7v-5h-.8v-.8h.8v-1a2.1,2.1,0,0,1,.4-1.4,1.7,1.7,0,0,1,1.3-.5h1l-.3.7h-.6c-.6,0-.8.4-.8,1.1v1h2.1v-1.7h.8v1.7H290v.8h-1.6v3.2a1.5,1.5,0,0,0,.2.8.9.9,0,0,0,.7.3h.7l.2.7-.5.2h-1.4l-.5-.4-.3-.6v-4h-2.1v5Z"/><path class="cls-3" d="M291.3,319.7v-5.8h.9v.8h.1a2.7,2.7,0,0,1,.8-.7,1.7,1.7,0,0,1,1-.3,1.5,1.5,0,0,1,1,.3,1.6,1.6,0,0,1,.6.8l.9-.8a1.9,1.9,0,0,1,1-.3,1.7,1.7,0,0,1,1.4.6,3.5,3.5,0,0,1,.4,1.7v3.7h-1v-3.6a2.1,2.1,0,0,0-.3-1.2c-.1-.2-.4-.3-.8-.3a2.1,2.1,0,0,0-1.4.9v4.2h-1v-3.6a2.1,2.1,0,0,0-.3-1.2,1,1,0,0,0-.8-.3c-.5,0-.9.3-1.5.9v4.2Z"/><path class="cls-3" d="M302.6,319.8a1.6,1.6,0,0,1-1.2-.4,1.7,1.7,0,0,1-.5-1.2,1.6,1.6,0,0,1,.9-1.5,6.9,6.9,0,0,1,2.7-.7v-.5c-.1-.2-.1-.4-.2-.5s-.2-.3-.4-.3l-.6-.2-.9.2-.8.5-.4-.7,1-.5a2.8,2.8,0,0,1,1.3-.3,1.6,1.6,0,0,1,1.5.7,2.9,2.9,0,0,1,.5,1.7v3.6h-.8V319h0l-.9.6Zm.3-.8a1.1,1.1,0,0,0,.8-.2l.8-.5v-1.7l-1.2.3-.8.3a1,1,0,0,0-.5.4.7.7,0,0,0-.1.5.8.8,0,0,0,.3.7A.8.8,0,0,0,302.9,319Z"/><path class="cls-3" d="M307.3,319.7v-5.8h.9v.8h.1a3.1,3.1,0,0,1,.9-.7,1.9,1.9,0,0,1,2.4.3,2.7,2.7,0,0,1,.4,1.7v3.7h-1v-3.6a3.7,3.7,0,0,0-.2-1.2,1.2,1.2,0,0,0-.9-.3,1.1,1.1,0,0,0-.8.2l-.8.7v4.2Z"/><path class="cls-3" d="M315.9,322.4h-1l-.8-.3c-.2-.2-.4-.3-.5-.5a1.5,1.5,0,0,1-.1-.7,1,1,0,0,1,.2-.7,1.7,1.7,0,0,1,.6-.6h0l-.4-.3a1.3,1.3,0,0,1-.1-.6,1.4,1.4,0,0,1,.2-.7l.4-.4h0l-.5-.7a2.9,2.9,0,0,1-.2-.9,2.8,2.8,0,0,1,.1-.9c.2-.2.3-.5.5-.6l.7-.4.9-.2h2.8v.7h-1.2a1,1,0,0,1,.4.5,1.7,1.7,0,0,1,.1.7,2.9,2.9,0,0,1-.2.9,2.1,2.1,0,0,1-.4.6l-.7.4h-1.3l-.4-.2-.3.3c0,.1-.1.3-.1.4a.8.8,0,0,0,.2.5l.9.2h1.1a2.8,2.8,0,0,1,1.5.3c.4.2.5.6.5,1.1a1,1,0,0,1-.2.7,1.3,1.3,0,0,1-.6.7,1.9,1.9,0,0,1-.9.4Zm.1-.7h.8l.6-.3.3-.4a.5.5,0,0,0,.2-.4.6.6,0,0,0-.3-.6h-2.7a1,1,0,0,0-.4.5.8.8,0,0,0-.2.5c0,.3.2.5.5.7A2.1,2.1,0,0,0,316,321.7Zm-.1-4.5h.4l.4-.3c.2-.1.2-.3.3-.4a1.3,1.3,0,0,0,.1-.6,1.2,1.2,0,0,0-.4-1,.9.9,0,0,0-.8-.4,1,1,0,0,0-.9.4,1.5,1.5,0,0,0-.4,1c0,.2.1.4.1.6l.3.4.4.3Z"/><path class="cls-3" d="M322.1,319.8a2.3,2.3,0,0,1-1.1-.2,1.6,1.6,0,0,1-.8-.6,1.8,1.8,0,0,1-.6-.9,3,3,0,0,1,0-2.6,2.1,2.1,0,0,1,.6-1l.8-.6,1-.2,1,.2a1.9,1.9,0,0,1,.7.6,2,2,0,0,1,.4.8,4.3,4.3,0,0,1,.2,1.1v.6h-4a3.4,3.4,0,0,0,.6,1.5,1.6,1.6,0,0,0,1.4.5h.7l.7-.3.4.6-.9.5Zm-1.8-3.5h3.1a1.7,1.7,0,0,0-.4-1.3,1,1,0,0,0-1-.5h-.6a2.9,2.9,0,0,0-.9.9A2.4,2.4,0,0,0,320.3,316.3Z"/><path class="cls-3" d="M326.8,319.8c-.4,0-.7-.1-.8-.3a1.5,1.5,0,0,1-.3-1v-7.4h1v7.5c0,.1,0,.3.1.3h.4v.7c0,.1-.1.1-.2.1Z"/><path class="cls-3" d="M252.2,36.9V29.1h4.5v.8h-3.5v2.7h3v.8h-3v3.5Z"/><path class="cls-3" d="M260.2,37.1l-1.1-.2-.9-.6a3.1,3.1,0,0,1-.5-1,2.8,2.8,0,0,1-.3-1.3,3.1,3.1,0,0,1,.3-1.3,2.6,2.6,0,0,1,.5-.9,2.4,2.4,0,0,1,.9-.6,1.6,1.6,0,0,1,1-.2,1.5,1.5,0,0,1,.9.2l.8.5a1.9,1.9,0,0,1,.4.9,3.6,3.6,0,0,1,.2,1.1V34a.4.4,0,0,1-.1.3h-3.9a2.1,2.1,0,0,0,2,2h.7l.7-.4.4.7-.9.4Zm-1.8-3.5h3.1a2,2,0,0,0-.4-1.4,1.2,1.2,0,0,0-1-.5l-.6.2a.9.9,0,0,0-.5.3,2.1,2.1,0,0,0-.4.6A1.9,1.9,0,0,0,258.4,33.6Z"/><path class="cls-3" d="M265.5,37.1l-.8-.2-.5-.4a.8.8,0,0,1-.2-.6,1.9,1.9,0,0,1-.1-.8V31.9H263v-.7h.9V29.5h.9v1.6h1.5v.8h-1.5v3.3a1.1,1.1,0,0,0,.2.8c.1.2.3.3.7.3h.6l.2.8h-1.1Z"/><path class="cls-3" d="M269.4,37.1a1.5,1.5,0,0,1-.8-.2l-.6-.4a.8.8,0,0,1-.2-.6,1.9,1.9,0,0,1-.1-.8V31.9h-.9v-.7h.9l.2-1.6h.8v1.6h1.6v.8h-1.6v3.3a1.1,1.1,0,0,0,.2.8c.1.2.3.3.7.3h.6l.2.8h-1Z"/><path class="cls-3" d="M273.8,37.1l-1.1-.2-.9-.6a2.1,2.1,0,0,1-.6-1A2.7,2.7,0,0,1,271,34a3,3,0,0,1,.2-1.3,1.8,1.8,0,0,1,.6-.9,1.6,1.6,0,0,1,.8-.6,1.8,1.8,0,0,1,1-.2,1.6,1.6,0,0,1,1,.2,1.8,1.8,0,0,1,.7.5,1.9,1.9,0,0,1,.5.9,3.7,3.7,0,0,1,.1,1.1v.6h-4a2.6,2.6,0,0,0,.6,1.4,1.8,1.8,0,0,0,1.4.6h.8l.6-.4.4.7-.9.4Zm-1.9-3.5h3.2a2.6,2.6,0,0,0-.4-1.4,1.4,1.4,0,0,0-1.1-.5l-.6.2c-.2,0-.3.2-.5.3l-.4.6C272,33,272,33.3,271.9,33.6Z"/><path class="cls-3" d="M278.9,37.1l-1.2-.2-1-.6.5-.7.8.5a1.5,1.5,0,0,0,.9.2l.9-.2a.9.9,0,0,0,.3-.7.8.8,0,0,0-.2-.4q0-.2-.3-.3l-.4-.2-.5-.2-.6-.2a1,1,0,0,1-.5-.4c-.2-.1-.3-.3-.4-.4a.8.8,0,0,1-.2-.7,1.3,1.3,0,0,1,.1-.6l.4-.6.7-.3h.8a1.6,1.6,0,0,1,1,.2,2,2,0,0,1,.8.4l-.5.6-.6-.3-.7-.2a1,1,0,0,0-.8.3.7.7,0,0,0-.3.6c0,.1.1.2.2.3s.1.2.2.3l.5.2.4.2.7.2a1,1,0,0,1,.5.4l.5.4a1.7,1.7,0,0,1,.1.7,1.5,1.5,0,0,1-.1.7l-.4.6a1.5,1.5,0,0,1-.7.3Z"/><path class="cls-3" d="M288,37.1a4,4,0,0,1-1.5-.3,2.8,2.8,0,0,1-1.1-.8,4,4,0,0,1-.7-1.3,5,5,0,0,1,0-3.4,5.4,5.4,0,0,1,.7-1.3,5,5,0,0,1,1.2-.8,3.2,3.2,0,0,1,1.4-.3h.8l.6.2.5.3.4.4-.5.6-.7-.5-1-.2L287,30a2.7,2.7,0,0,0-.8.7c-.3.2-.4.6-.6,1a5.3,5.3,0,0,0-.1,1.3,5.3,5.3,0,0,0,.1,1.3,2.3,2.3,0,0,0,.5,1l.8.7,1.2.2h.8l.6-.4v-2h-1.7v-.8h2.6v3.3a3.3,3.3,0,0,1-1,.6A3.2,3.2,0,0,1,288,37.1Z"/><path class="cls-3" d="M294.6,37.1l-1.1-.2-.9-.6a2.1,2.1,0,0,1-.6-1,2.7,2.7,0,0,1-.2-1.3,3,3,0,0,1,.2-1.3,1.8,1.8,0,0,1,.6-.9,1.6,1.6,0,0,1,.8-.6,1.6,1.6,0,0,1,1-.2,2.2,2.2,0,0,1,1.7.7,1.9,1.9,0,0,1,.4.9,3.6,3.6,0,0,1,.2,1.1v.6h-4a2.6,2.6,0,0,0,.6,1.4,1.8,1.8,0,0,0,1.4.6h.7l.7-.4.4.7-.9.4Zm-1.9-3.5h3.1a2.6,2.6,0,0,0-.3-1.4,1.4,1.4,0,0,0-1.1-.5l-.6.2a.9.9,0,0,0-.5.3l-.4.6A1.9,1.9,0,0,0,292.7,33.6Z"/><path class="cls-3" d="M298.1,36.9V31.1h.9v.8h.1l.8-.7,1-.2a1.5,1.5,0,0,1,1,.3,1.2,1.2,0,0,1,.6.8,3.2,3.2,0,0,1,.9-.8,1.9,1.9,0,0,1,1-.3,2,2,0,0,1,1.4.5,3.9,3.9,0,0,1,.4,1.7v3.7h-1V33.4a1.7,1.7,0,0,0-.3-1.2c-.1-.3-.4-.4-.8-.4a2.1,2.1,0,0,0-1.4.9v4.2h-1V33.4a1.7,1.7,0,0,0-.3-1.2.8.8,0,0,0-.8-.4c-.5,0-.9.3-1.5.9v4.2Z"/><path class="cls-3" d="M308.6,29.9l-.5-.2a.5.5,0,0,1-.2-.4.8.8,0,0,1,.2-.5l.5-.2.5.2a.8.8,0,0,1,.2.5.5.5,0,0,1-.2.4Zm-.5,7V31.1h1v5.8Z"/><path class="cls-3" d="M312.6,37.1l-1.2-.2-1-.6.5-.7.8.5c.2.2.5.2.9.2l.9-.2a.9.9,0,0,0,.3-.7.8.8,0,0,0-.2-.4c0-.1-.2-.2-.3-.3l-.4-.2-.5-.2-.6-.2-.6-.4-.4-.4a1.5,1.5,0,0,1-.1-.7,1.3,1.3,0,0,1,.1-.6l.4-.6.6-.3h.9a1.6,1.6,0,0,1,1,.2,2,2,0,0,1,.8.4l-.5.6-.6-.3-.7-.2a1,1,0,0,0-.8.3.7.7,0,0,0-.3.6c0,.1.1.2.1.3l.3.3.4.2.5.2.7.2a1,1,0,0,1,.5.4c.2.1.3.3.4.4a1.9,1.9,0,0,1,.2.7,1.5,1.5,0,0,1-.1.7l-.4.6-.7.3Z"/><path class="cls-3" d="M318.4,37.1l-1.1-.2-.9-.6-.6-1a5.1,5.1,0,0,1-.2-1.3,2.8,2.8,0,0,1,.3-1.3,1.8,1.8,0,0,1,.6-.9,1.5,1.5,0,0,1,.9-.6,1.8,1.8,0,0,1,1-.2,1.5,1.5,0,0,1,1,.2l.7.4-.5.7a1,1,0,0,0-.5-.4h-1.4l-.5.5a1.6,1.6,0,0,0-.4.7,2.8,2.8,0,0,0-.1.9,2.2,2.2,0,0,0,.1.9,2,2,0,0,0,.4.8l.5.4.8.2.7-.2.6-.4.5.6a2.4,2.4,0,0,1-.9.6Z"/><path class="cls-3" d="M321.5,36.9V28.4h1v3.5l.9-.7,1-.2a2,2,0,0,1,1.4.5,2.9,2.9,0,0,1,.4,1.7v3.7h-1V33.4a2.9,2.9,0,0,0-.2-1.2,1,1,0,0,0-.9-.4l-.8.2-.8.7v4.2Z"/><path class="cls-3" d="M341.8,319.7v-7.9h1v7h3.4v.9Z"/><path class="cls-3" d="M349.1,319.8a1.6,1.6,0,0,1-1.3-.5,2.9,2.9,0,0,1-.5-1.7v-3.7h1v3.5a1.7,1.7,0,0,0,.3,1.2.8.8,0,0,0,.8.4,1.1,1.1,0,0,0,.8-.3c.3-.1.5-.4.8-.7v-4.1h1v5.8h-.8v-.9H351a1.8,1.8,0,0,1-.8.7A2,2,0,0,1,349.1,319.8Z"/><path class="cls-3" d="M354.1,319.7v-5h-.8v-.8h.8v-1a2.1,2.1,0,0,1,.4-1.4,1.7,1.7,0,0,1,1.3-.5h1l-.2.7h-.7c-.5,0-.8.4-.8,1.1v1h2.1v-1.7h.9v1.7h1.5v.8h-1.5v3.2c0,.4,0,.6.2.8s.3.3.7.3h.6l.2.7-.5.2h-1.3a1.3,1.3,0,0,1-.6-.4,1.4,1.4,0,0,1-.2-.6,2.2,2.2,0,0,1-.1-.8v-3.2h-2.1v5Z"/><path class="cls-3" d="M362.8,319.8a1.8,1.8,0,0,1-1.4-.5,2.9,2.9,0,0,1-.4-1.7v-3.7h1v3.5a2.9,2.9,0,0,0,.2,1.2,1,1,0,0,0,.9.4,1.3,1.3,0,0,0,.8-.3,2.3,2.3,0,0,0,.7-.7v-4.1h1v5.8h-.8v-.9h0a2.8,2.8,0,0,1-.9.7A1.7,1.7,0,0,1,362.8,319.8Zm-.6-7.2h-.4a.6.6,0,0,1,0-.9.5.5,0,0,1,.8,0,.6.6,0,0,1,0,.9Zm2.3,0h-.4a.6.6,0,0,1,0-.9.5.5,0,0,1,.8,0,.6.6,0,0,1,0,.9Z"/><path class="cls-3" d="M370.2,319.8a1.5,1.5,0,0,1-.9-.2l-.8-.5h0v.6h-.8v-8.6h1v3.4l.8-.6,1-.2,1,.2.7.6a3,3,0,0,1,.4,1,3.7,3.7,0,0,1,.2,1.2,5.1,5.1,0,0,1-.2,1.3,2.1,2.1,0,0,1-.6,1,1.6,1.6,0,0,1-.8.6A1.5,1.5,0,0,1,370.2,319.8Zm-.2-.8.7-.2a1,1,0,0,0,.5-.4,2.1,2.1,0,0,0,.3-.7,3.6,3.6,0,0,0,.2-1c0-.3-.1-.6-.1-.9l-.3-.7a1,1,0,0,0-.5-.4l-.7-.2a2.5,2.5,0,0,0-1.5.8v3.1l.7.5Z"/><path class="cls-3" d="M376.6,319.8a2,2,0,0,1-1.1-.2,2.4,2.4,0,0,1-.9-.6,7,7,0,0,1-.6-.9,4.3,4.3,0,0,1,0-2.6l.6-1,.8-.6,1-.2,1,.2a1.3,1.3,0,0,1,.7.6,2.2,2.2,0,0,1,.5.8,4.1,4.1,0,0,1,.1,1.1v.6h-3.9a2,2,0,0,0,.6,1.5,1.5,1.5,0,0,0,1.3.5h.8l.7-.3.3.6-.8.5Zm-1.8-3.5h3.1a1.7,1.7,0,0,0-.4-1.3,1.2,1.2,0,0,0-1.1-.5h-.6l-.5.4-.3.5A2.4,2.4,0,0,0,374.8,316.3Z"/><path class="cls-3" d="M380.2,319.7v-5.8h.8v1h0a7.1,7.1,0,0,1,.7-.9,1.7,1.7,0,0,1,1-.3h.6l-.2.9h-.6a1.1,1.1,0,0,0-.7.3,2,2,0,0,0-.7,1v3.8Z"/><path class="cls-3" d="M385.8,319.8a2.5,2.5,0,0,1-1.2-.2,1.8,1.8,0,0,1-.9-.6l.4-.6.8.5,1,.2a1.1,1.1,0,0,0,.8-.3.9.9,0,0,0,.3-.6c0-.2,0-.3-.1-.4s-.2-.3-.3-.3l-.4-.3-.5-.2-.6-.2-.6-.3-.4-.5a1.4,1.4,0,0,1-.2-.6,1.4,1.4,0,0,1,.2-.7,1,1,0,0,1,.4-.5c.1-.2.4-.3.6-.4h.8l1.1.2.8.5-.5.6-.6-.4H386l-.9.2a1.4,1.4,0,0,0-.2.6c0,.2,0,.3.1.4l.3.2a.5.5,0,0,0,.4.2l.5.2.6.3.6.3a1,1,0,0,1,.4.5,1.4,1.4,0,0,1,.2.7,1.9,1.9,0,0,1-.2.7,1,1,0,0,1-.4.5l-.7.4Z"/><path class="cls-3" d="M391.6,319.8a1.6,1.6,0,0,1-1-.2,2.8,2.8,0,0,1-1.5-1.5,4.3,4.3,0,0,1,0-2.6l.6-1,.9-.6,1.1-.2,1,.2.7.5-.5.6-.5-.3-.7-.2-.7.2-.6.5a1.5,1.5,0,0,0-.3.7,2,2,0,0,0-.2.9c0,.3.1.6.1.9a4.3,4.3,0,0,0,.4.7l.6.5h.7a1.2,1.2,0,0,0,.8-.2l.6-.4.4.7a1.9,1.9,0,0,1-.9.5A1.6,1.6,0,0,1,391.6,319.8Z"/><path class="cls-3" d="M394.8,319.7v-8.6h1v3.6l.9-.7a2,2,0,0,1,1.1-.3,1.4,1.4,0,0,1,1.3.6,2.6,2.6,0,0,1,.5,1.7v3.7h-1v-3.6a2.1,2.1,0,0,0-.3-1.2,1,1,0,0,0-.8-.3,1.1,1.1,0,0,0-.8.2c-.3.1-.5.4-.8.7v4.2Z"/><path class="cls-3" d="M403,319.8a1.7,1.7,0,0,1-1.3-.5,2.9,2.9,0,0,1-.5-1.7v-3.7h1v3.5a1.7,1.7,0,0,0,.3,1.2.8.8,0,0,0,.8.4,1.1,1.1,0,0,0,.8-.3c.3-.1.5-.4.8-.7v-4.1h1v5.8h-.8v-.9h0a2.8,2.8,0,0,1-.9.7A2,2,0,0,1,403,319.8Z"/><path class="cls-3" d="M409.4,319.8a2.5,2.5,0,0,1-1.2-.2,2.1,2.1,0,0,1-1-.6l.5-.6.8.5.9.2a1.2,1.2,0,0,0,.9-.3.9.9,0,0,0,.3-.6.5.5,0,0,0-.2-.4.3.3,0,0,0-.3-.3l-.4-.3-.5-.2-.6-.2-.5-.3-.4-.5a.7.7,0,0,1-.2-.6,1.5,1.5,0,0,1,.1-.7l.4-.5.7-.4h.8l1,.2.8.5-.5.6-.6-.4h-.7l-.8.2a.9.9,0,0,0-.3.6.5.5,0,0,0,.2.4.2.2,0,0,0,.2.2l.5.2.4.2.7.3.5.3c.2.1.3.3.5.5a1.5,1.5,0,0,1,.1.7,1.7,1.7,0,0,1-.1.7l-.4.5-.7.4Z"/><path class="cls-3" d="M414.4,319.8a2.5,2.5,0,0,1-1.2-.2,2.1,2.1,0,0,1-1-.6l.5-.6.8.5.9.2a1.2,1.2,0,0,0,.9-.3.9.9,0,0,0,.3-.6c0-.2,0-.3-.1-.4s-.2-.3-.3-.3l-.5-.3-.4-.2-.7-.2-.5-.3-.4-.5a1.4,1.4,0,0,1-.2-.6,1.4,1.4,0,0,1,.2-.7,1,1,0,0,1,.4-.5.9.9,0,0,1,.6-.4h.8l1,.2.8.5-.4.6-.7-.4h-.7l-.8.2a1.4,1.4,0,0,0-.2.6c0,.2,0,.3.1.4s.1.2.3.2a.5.5,0,0,0,.4.2l.5.2.6.3.6.3.4.5a1.5,1.5,0,0,1,.1.7,1.7,1.7,0,0,1-.1.7,1,1,0,0,1-.4.5l-.7.4Z"/><path class="cls-3" d="M340.7,36.9V29.1h1.2l1.5,4.2.3.8.3.8h0l.3-.8.3-.8,1.5-4.2h1.2v7.8h-1V32.6c0-.3.1-.7.1-1.2s.1-.8.1-1.1h-.1l-.6,1.8-1.5,4h-.6l-1.5-4-.7-1.8h0a4.5,4.5,0,0,0,.1,1.1v5.5Z"/><path class="cls-3" d="M350.7,37.1a2.1,2.1,0,0,1-1.2-.4,1.4,1.4,0,0,1-.5-1.3,1.6,1.6,0,0,1,.8-1.4,7.2,7.2,0,0,1,2.8-.8,4.3,4.3,0,0,1-.1-.5c0-.2-.1-.3-.2-.5l-.3-.3h-.6a1.6,1.6,0,0,0-1,.2l-.8.4-.4-.7,1-.5a3,3,0,0,1,1.3-.2,2,2,0,0,1,1.6.6,3.2,3.2,0,0,1,.5,1.8v3.5h-.9v-.7h-.1a2.4,2.4,0,0,1-.9.6A1.7,1.7,0,0,1,350.7,37.1Zm.3-.8.8-.2.8-.6V33.9l-1.3.2-.8.3-.4.4a1.4,1.4,0,0,0-.2.6.9.9,0,0,0,.3.7Z"/><path class="cls-3" d="M357.4,39.6h-1a1.1,1.1,0,0,1-.8-.3,1.2,1.2,0,0,1-.5-.5,1.4,1.4,0,0,1-.2-.6,1.3,1.3,0,0,1,.3-.8,1.7,1.7,0,0,1,.6-.6h0l-.4-.4c-.1-.1-.1-.3-.1-.6a1.4,1.4,0,0,1,.2-.6l.4-.4h0c-.2-.1-.3-.4-.5-.6a1.6,1.6,0,0,1-.2-1,1.9,1.9,0,0,1,.1-.8l.5-.7.7-.4h3.7v.8H359a1,1,0,0,1,.4.5c0,.2.1.4.1.7a1.9,1.9,0,0,1-.2.8.9.9,0,0,1-.4.6,1,1,0,0,1-.7.4l-.8.2h-.9l-.3.3c-.1.1-.1.2-.1.4a.5.5,0,0,0,.2.4c.2.2.4.2.8.2h1.2a2.1,2.1,0,0,1,1.5.4,1.1,1.1,0,0,1,.5,1,2.4,2.4,0,0,1-.2.8l-.6.6a1.9,1.9,0,0,1-.9.5Zm.1-.7h.8l.5-.2.4-.4a.8.8,0,0,0,.2-.4.6.6,0,0,0-.3-.6l-.9-.2h-1.8l-.4.5a1.7,1.7,0,0,0-.2.5,1,1,0,0,0,.5.8A2.2,2.2,0,0,0,357.5,38.9Zm-.1-4.5h.4l.4-.2.3-.5c.1-.1.1-.3.1-.6a1.3,1.3,0,0,0-.4-1,1.1,1.1,0,0,0-.8-.3,1.2,1.2,0,0,0-.9.3,1.3,1.3,0,0,0-.4,1,3.5,3.5,0,0,0,.1.6l.3.5.4.2Z"/><path class="cls-3" d="M363.6,37.1l-1.1-.2-.8-.6a2.1,2.1,0,0,1-.6-1,2.8,2.8,0,0,1-.3-1.3,3.1,3.1,0,0,1,.3-1.3,1.8,1.8,0,0,1,.6-.9,1.6,1.6,0,0,1,.8-.6,1.6,1.6,0,0,1,1-.2,1.3,1.3,0,0,1,.9.2l.8.5a1.9,1.9,0,0,1,.4.9,3.6,3.6,0,0,1,.2,1.1V34a.4.4,0,0,1-.1.3h-3.9a2,2,0,0,0,.6,1.4,1.7,1.7,0,0,0,1.4.6h.7l.7-.4.4.7-.9.4Zm-1.8-3.5h3.1a2,2,0,0,0-.4-1.4,1.2,1.2,0,0,0-1-.5l-.6.2a.9.9,0,0,0-.5.3,2.1,2.1,0,0,0-.4.6A1.9,1.9,0,0,0,361.8,33.6Z"/><path class="cls-3" d="M367.2,36.9V31.1h.8v1.1h.1a2.2,2.2,0,0,1,.7-.9,1.6,1.6,0,0,1,.9-.3h.6l-.2.8h-.5a1.3,1.3,0,0,0-.8.3,2,2,0,0,0-.7,1v3.7Z"/><path class="cls-3" d="M373.6,37.1l-1.1-.2-.9-.6a3.1,3.1,0,0,1-.5-1,2.8,2.8,0,0,1-.3-1.3,3.1,3.1,0,0,1,.3-1.3,2.6,2.6,0,0,1,.5-.9,2.4,2.4,0,0,1,.9-.6,1.6,1.6,0,0,1,1-.2,1.5,1.5,0,0,1,.9.2l.8.5a1.9,1.9,0,0,1,.4.9,3.6,3.6,0,0,1,.2,1.1V34a.4.4,0,0,1-.1.3h-3.9a2.1,2.1,0,0,0,2,2h.7l.7-.4.4.7-.9.4Zm-1.8-3.5h3.1a2,2,0,0,0-.4-1.4,1.2,1.2,0,0,0-1-.5l-.6.2a.9.9,0,0,0-.5.3,2.1,2.1,0,0,0-.4.6A1.9,1.9,0,0,0,371.8,33.6Z"/><path class="cls-3" d="M378.7,37.1l-1.1-.2-1-.6.5-.7.7.5a1.6,1.6,0,0,0,1,.2l.8-.2a.9.9,0,0,0,.3-.7.6.6,0,0,0-.1-.4l-.3-.3-.4-.2-.5-.2-.6-.2-.6-.4-.4-.4a1.5,1.5,0,0,1-.1-.7,1.3,1.3,0,0,1,.1-.6l.4-.6.6-.3h.9a1.8,1.8,0,0,1,1,.2,2,2,0,0,1,.8.4l-.5.6-.6-.3-.7-.2c-.4,0-.7.1-.8.3a.7.7,0,0,0-.3.6.4.4,0,0,0,.1.3l.3.3.4.2.5.2.6.2.6.4c.2.1.3.3.4.4a1.9,1.9,0,0,1,.2.7,1.4,1.4,0,0,1-.2.7,2.1,2.1,0,0,1-.4.6l-.6.3Z"/><path class="cls-3" d="M387.8,37.1a3.2,3.2,0,0,1-1.4-.3,2.8,2.8,0,0,1-1.1-.8,2.7,2.7,0,0,1-.7-1.3,5,5,0,0,1,0-3.4,3.3,3.3,0,0,1,.7-1.3,3.6,3.6,0,0,1,1.2-.8,3.2,3.2,0,0,1,1.4-.3h.7l.7.2.5.3c.1.2.3.3.4.4l-.6.6-.7-.5-1-.2-1.1.2-.8.7a2.3,2.3,0,0,0-.5,1,4.3,4.3,0,0,0,0,2.6,2.3,2.3,0,0,0,.5,1,2.7,2.7,0,0,0,.8.7l1.1.2h.8l.7-.4v-2h-1.7v-.8h2.6v3.3a3.3,3.3,0,0,1-1,.6A3.7,3.7,0,0,1,387.8,37.1Z"/><path class="cls-3" d="M394.4,37.1l-1.1-.2-.9-.6-.6-1a5.1,5.1,0,0,1-.2-1.3,5.9,5.9,0,0,1,.2-1.3,7,7,0,0,1,.6-.9,2.4,2.4,0,0,1,.9-.6,1.5,1.5,0,0,1,.9-.2,1.6,1.6,0,0,1,1,.2l.8.5a1.9,1.9,0,0,1,.4.9,3.6,3.6,0,0,1,.2,1.1V34c0,.1-.1.2-.1.3h-3.9a1.7,1.7,0,0,0,.6,1.4,1.6,1.6,0,0,0,1.3.6h.8l.7-.4.3.7-.8.4Zm-1.8-3.5h3.1a2,2,0,0,0-.4-1.4,1.2,1.2,0,0,0-1-.5l-.6.2a.9.9,0,0,0-.5.3,2.1,2.1,0,0,0-.4.6A1.9,1.9,0,0,0,392.6,33.6Z"/><path class="cls-3" d="M398,36.9V31.1h.8v.8h0l.9-.7,1-.2a1.6,1.6,0,0,1,1.6,1.1,3.2,3.2,0,0,1,.9-.8,1.7,1.7,0,0,1,1-.3,1.7,1.7,0,0,1,1.3.5,2.9,2.9,0,0,1,.5,1.7v3.7h-1V33.4a1.7,1.7,0,0,0-.3-1.2.8.8,0,0,0-.8-.4,2.5,2.5,0,0,0-1.5.9v4.2h-1V33.4c0-.6,0-1-.2-1.2a.9.9,0,0,0-.8-.4,2,2,0,0,0-1.5.9v4.2Z"/><path class="cls-3" d="M408.5,29.9l-.5-.2c-.2-.1-.2-.2-.2-.4s0-.4.2-.5l.5-.2.4.2c.2.1.2.3.2.5s0,.3-.2.4Zm-.5,7V31.1h.9v5.8Z"/><path class="cls-3" d="M412.4,37.1l-1.2-.2-.9-.6.4-.7.8.5a1.6,1.6,0,0,0,1,.2l.8-.2a.9.9,0,0,0,.3-.7.6.6,0,0,0-.1-.4l-.3-.3-.4-.2-.5-.2-.6-.2-.6-.4c-.2-.1-.3-.3-.4-.4a1.4,1.4,0,0,1-.2-.7,1.4,1.4,0,0,1,.2-.6,2.1,2.1,0,0,1,.4-.6l.6-.3h.8a2,2,0,0,1,1.1.2l.8.4-.5.6-.6-.3-.7-.2a1.2,1.2,0,0,0-.9.3,1.1,1.1,0,0,0-.2.6.4.4,0,0,0,.1.3l.3.3.4.2.5.2.6.2.6.4c.2.1.3.3.4.4a1.9,1.9,0,0,1,.2.7,1.4,1.4,0,0,1-.2.7,2.1,2.1,0,0,1-.4.6,1.5,1.5,0,0,1-.7.3Z"/><path class="cls-3" d="M418.2,37.1l-1-.2-.9-.6a2.1,2.1,0,0,1-.6-1,4.3,4.3,0,0,1,0-2.6l.6-.9a2.4,2.4,0,0,1,.9-.6,2.2,2.2,0,0,1,1.1-.2,1.6,1.6,0,0,1,1,.2l.7.4-.5.7-.5-.4h-1.4l-.6.5a1.5,1.5,0,0,0-.3.7,2.9,2.9,0,0,0-.2.9,2,2,0,0,0,.2.9,1.9,1.9,0,0,0,.3.8l.6.4.7.2.8-.2.6-.4.4.6a1.5,1.5,0,0,1-.9.6Z"/><path class="cls-3" d="M421.4,36.9V28.4h1v3.5l.9-.7,1.1-.2a1.6,1.6,0,0,1,1.3.5,2.9,2.9,0,0,1,.5,1.7v3.7h-1V33.4a1.7,1.7,0,0,0-.3-1.2.8.8,0,0,0-.8-.4l-.8.2-.8.7v4.2Z"/><path class="cls-3" d="M84.7,199.5h-.6l-6.4-4.2v3.8h-.9v-5h.6l6.4,4.1v-4.1h.9Z"/><path class="cls-3" d="M77.6,189.4c0,.2,0,.3-.1.4s-.3.2-.5.2a.4.4,0,0,1-.4-.2.5.5,0,0,1,0-.8l.4-.2.5.2C77.6,189.1,77.6,189.2,77.6,189.4Zm0,2.3a.9.9,0,0,1-.1.5h-.9c-.1-.2-.2-.3-.2-.5l.2-.4.4-.2.5.2A.6.6,0,0,1,77.6,191.7Zm7.2-.6a1.8,1.8,0,0,1-.5,1.4,3,3,0,0,1-1.8.4H78.9v-1h3.5c.6,0,1,0,1.2-.2a1,1,0,0,0,.4-.9,1.3,1.3,0,0,0-.3-.8l-.7-.7H78.9v-1h5.8v.8h-.9l.7.9A1.7,1.7,0,0,1,84.8,191.1Z"/><path class="cls-3" d="M84.7,186.3H78.9v-.8h.8l-.7-.9a2,2,0,0,1-.3-1.1,1.5,1.5,0,0,1,.6-1.3,2.7,2.7,0,0,1,1.7-.4h3.7v.9H81.1a2.1,2.1,0,0,0-1.2.3,1.1,1.1,0,0,0-.3.8,1.1,1.1,0,0,0,.2.8c.1.3.4.5.7.8h4.2Z"/><path class="cls-3" d="M84.8,177.8a1.9,1.9,0,0,1-.8,1.7,2.9,2.9,0,0,1-2.2.7l-1.3-.2-1-.6-.6-.8a3,3,0,0,1-.2-1,1.9,1.9,0,0,1,.2-.8,3.5,3.5,0,0,1,.5-.8H76.1v-1h8.6v.8H84l.6.8A3,3,0,0,1,84.8,177.8Zm-.8-.3a1.9,1.9,0,0,0-.2-.7,1.3,1.3,0,0,0-.6-.7H80.1a1.6,1.6,0,0,0-.4.7,1.4,1.4,0,0,0-.2.7,1.4,1.4,0,0,0,.2.6l.5.6.7.3.9.2a2.5,2.5,0,0,0,1.6-.5A1.2,1.2,0,0,0,84,177.5Z"/><path class="cls-3" d="M87.4,171.1c0,.4-.1.7-.1,1l-.3.8c-.2.2-.3.4-.5.5h-.7a1,1,0,0,1-.7-.2l-.6-.6h-.1l-.3.4h-.6l-.7-.2-.4-.4h0l-.7.5-.9.2h-.9c-.2-.2-.5-.3-.6-.5a1.3,1.3,0,0,1-.4-.7,2.9,2.9,0,0,1-.2-.9.6.6,0,0,1,.1-.4c0-.2,0-.3.1-.4v-2h.7v1.2a1,1,0,0,1,.5-.4h.7l.9.2.6.4a1.6,1.6,0,0,1,.4.7,2.2,2.2,0,0,1,.1.8v.5c-.1.1-.1.3-.2.4l.3.3h.4l.5-.2a2,2,0,0,0,.2-.9v-1.1a2.8,2.8,0,0,1,.3-1.5c.2-.4.6-.5,1.1-.5a1,1,0,0,1,.7.2,1.3,1.3,0,0,1,.7.6,1.9,1.9,0,0,1,.4.9A5,5,0,0,1,87.4,171.1Zm-5.2,0c0-.1-.1-.3-.1-.4l-.3-.4c-.1-.2-.3-.2-.4-.3h-.6a1.2,1.2,0,0,0-1,.4.9.9,0,0,0-.4.8,1,1,0,0,0,.4.9,1.5,1.5,0,0,0,1,.4h.6l.4-.3.3-.4A4.3,4.3,0,0,0,82.2,171.1Zm4.5-.1a2.2,2.2,0,0,0-.1-.8l-.3-.6-.4-.3-.4-.2a.6.6,0,0,0-.6.3,2.2,2.2,0,0,0-.1.9v1.4c0,.1-.1.3-.1.4a1,1,0,0,0,.5.4l.5.2c.3,0,.5-.2.7-.5A2.1,2.1,0,0,0,86.7,171Z"/><path class="cls-3" d="M84.7,167.1H78.9v-.9h1a2.2,2.2,0,0,1-.9-.7,1.6,1.6,0,0,1-.3-.9,1.5,1.5,0,0,1,.1-.7l.9.2c0,.1-.1.2-.1.3v.3a1.6,1.6,0,0,0,.3.8,2.9,2.9,0,0,0,1,.7h3.8Z"/><path class="cls-3" d="M84.8,160.6a2,2,0,0,1-.2,1.1,1.5,1.5,0,0,1-.6.9,1.8,1.8,0,0,1-.9.6,4.3,4.3,0,0,1-2.6,0,2.1,2.1,0,0,1-1-.6l-.6-.8a3,3,0,0,1-.2-1,3.6,3.6,0,0,1,.2-1,1.3,1.3,0,0,1,.6-.7l.8-.4a2.2,2.2,0,0,1,1.1-.2H82v4a3.4,3.4,0,0,0,1.5-.6,1.7,1.7,0,0,0,.5-1.4,2.2,2.2,0,0,0-.1-.8l-.3-.6.6-.4a3.6,3.6,0,0,1,.4.9A1.6,1.6,0,0,1,84.8,160.6Zm-3.5,1.9v-3.1a2.3,2.3,0,0,0-1.3.3,1.2,1.2,0,0,0-.5,1.1,1.3,1.3,0,0,0,.1.6,2.9,2.9,0,0,0,.9.9Z"/><path class="cls-3" d="M84.7,157.1H78.9v-.9h.8l-.7-.9a1.7,1.7,0,0,1-.3-1,1.6,1.6,0,0,1,.6-1.4,2.7,2.7,0,0,1,1.7-.4h3.7v1H81.1l-1.2.2a1.2,1.2,0,0,0-.3.9,1.2,1.2,0,0,0,.2.8l.7.8h4.2Z"/><path class="cls-3" d="M84.7,151.1h-.5L79.7,148v2.8h-.8v-4h.5l4.5,3.1v-3.2h.8Z"/><path class="cls-3" d="M84.8,143.1a2,2,0,0,1-.2,1.1,1.5,1.5,0,0,1-.6.9,1.8,1.8,0,0,1-.9.6,4.3,4.3,0,0,1-2.6,0,2.1,2.1,0,0,1-1-.6l-.6-.8a3,3,0,0,1-.2-1,3.6,3.6,0,0,1,.2-1,1.3,1.3,0,0,1,.6-.7l.8-.4,1.1-.2H82v4a3.4,3.4,0,0,0,1.5-.6A1.7,1.7,0,0,0,84,143a1.5,1.5,0,0,0-.1-.7l-.3-.7.6-.4a3.6,3.6,0,0,1,.4.9A1.6,1.6,0,0,1,84.8,143.1ZM81.3,145v-3.1a2.3,2.3,0,0,0-1.3.3,1.2,1.2,0,0,0-.5,1.1,1.3,1.3,0,0,0,.1.6,2.9,2.9,0,0,0,.9.9Z"/><path class="cls-3" d="M84.7,137h-5v.8h-.8V137h-1a2.1,2.1,0,0,1-1.4-.4,1.7,1.7,0,0,1-.5-1.3.7.7,0,0,1,.1-.5.9.9,0,0,1,.1-.5l.7.2a1.7,1.7,0,0,0-.1.7c0,.5.4.8,1.1.8h1v-1.2h.8V136h5Z"/><path class="cls-3" d="M84.8,131.4a2,2,0,0,1-.2,1.1,2.4,2.4,0,0,1-.6.9l-.9.6-1.3.2-1.3-.2-1-.6-.6-.8a3.6,3.6,0,0,1-.2-1,3,3,0,0,1,.2-1,1.3,1.3,0,0,1,.6-.7l.8-.5H82v3.9a2.5,2.5,0,0,0,1.5-.5,1.7,1.7,0,0,0,.5-1.4,2.2,2.2,0,0,0-.1-.8l-.3-.7.6-.3a2,2,0,0,1,.4.8A2.2,2.2,0,0,1,84.8,131.4Zm-3.5,1.8v-3.1a2.2,2.2,0,0,0-1.3.4,1.2,1.2,0,0,0-.5,1.1,1.3,1.3,0,0,0,.1.6l.4.5a.9.9,0,0,0,.5.3Z"/><path class="cls-3" d="M84.8,126.1a1.9,1.9,0,0,1-.1.8,1,1,0,0,1-.4.5l-.6.3h-4v.8h-.8v-.9H77.2v-.8h1.7v-1.6h.8v1.6h3.2l.8-.2a.8.8,0,0,0,.3-.7v-.4a.4.4,0,0,1-.1-.3l.7-.2c.1.2.1.4.2.5Z"/><path class="cls-3" d="M84.8,122.3a1.9,1.9,0,0,1-.1.8,1,1,0,0,1-.4.5l-.6.3h-4v.8h-.8v-.9H77.2V123h1.7v-1.6h.8V123h3.2l.8-.2a.9.9,0,0,0,.3-.7v-.4a.4.4,0,0,1-.1-.3l.7-.2.2.5Z"/><path class="cls-3" d="M243.3,180.8h-7.9v-1h7.1v-3.4h.8Z"/><path class="cls-3" d="M243.5,172.9a2.6,2.6,0,0,1-.3,1.1,1.6,1.6,0,0,1-.6.8,1.5,1.5,0,0,1-.9.6,3,3,0,0,1-2.6,0,2.1,2.1,0,0,1-1-.6l-.6-.8a3,3,0,0,1-.2-1,3.6,3.6,0,0,1,.2-1c.2-.2.3-.5.6-.7l.8-.4,1.2-.2h.5v4a2.6,2.6,0,0,0,1.5-.6,1.7,1.7,0,0,0,.6-1.4,1.9,1.9,0,0,0-.2-.7l-.3-.7.7-.4.4.9A3.6,3.6,0,0,1,243.5,172.9Zm-3.6,1.8v-3.1a1.7,1.7,0,0,0-1.3.4,1.2,1.2,0,0,0-.5,1c0,.2.1.4.1.6a1,1,0,0,0,.4.5.9.9,0,0,0,.6.4Z"/><path class="cls-3" d="M243.5,166.9a2,2,0,0,1-.3,1.1,2.4,2.4,0,0,1-.6.9l-.9.6-1.3.2-1.3-.2-1-.6-.6-.8a4.4,4.4,0,0,1-.2-1,3,3,0,0,1,.2-1,2,2,0,0,1,.6-.7l.8-.5h1.7v3.9a1.8,1.8,0,0,0,1.5-.6,1.6,1.6,0,0,0,.6-1.3,1.9,1.9,0,0,0-.2-.8l-.3-.7.7-.3.4.8A4.3,4.3,0,0,1,243.5,166.9Zm-3.6,1.8v-3.1a1.7,1.7,0,0,0-1.3.4,1.4,1.4,0,0,0-.5,1.1c0,.2.1.4.1.6l.4.5.6.3Z"/><path class="cls-3" d="M243.3,163.3h-5.8v-.8h1l-.8-.7a1.3,1.3,0,0,1-.4-1,1.4,1.4,0,0,1,.2-.6l.8.2a.4.4,0,0,1-.1.3v.3a1.1,1.1,0,0,0,.3.7,2.3,2.3,0,0,0,1.1.7h3.7Z"/><path class="cls-3" d="M243.5,158.1a.9.9,0,0,1-.4.8,1.3,1.3,0,0,1-1,.3h-7.3v-1h7.7v-.2h0l.8-.2v.6Z"/><path class="cls-3" d="M243.5,154.8a2.1,2.1,0,0,1-.5,1.2,1.7,1.7,0,0,1-1.2.5,1.8,1.8,0,0,1-1.5-.9,7.4,7.4,0,0,1-.7-2.7h-.5l-.5.2-.3.4a.8.8,0,0,0-.2.6,2.9,2.9,0,0,0,.2.9,5.6,5.6,0,0,0,.5.8l-.7.4a3.1,3.1,0,0,1-.5-1,2.8,2.8,0,0,1-.3-1.3,1.6,1.6,0,0,1,.7-1.5,2.3,2.3,0,0,1,1.7-.5h3.6v.8h-.7l.6.9A2,2,0,0,1,243.5,154.8Zm-.8-.3a1.9,1.9,0,0,0-.2-.8l-.6-.8h-1.6a3.7,3.7,0,0,0,.2,1.2l.3.8.4.5h.5c.4,0,.6-.1.7-.3A.9.9,0,0,0,242.7,154.5Z"/><path class="cls-3" d="M243.5,148.3a1.6,1.6,0,0,1-.6,1.4,2.9,2.9,0,0,1-1.7.4h-3.7v-1H241l1.2-.2a1,1,0,0,0,.4-.9,2.4,2.4,0,0,0-.2-.8l-.8-.7h-4.1v-1h5.8v.8h-.9l.8.9A1.7,1.7,0,0,1,243.5,148.3Z"/><path class="cls-3" d="M243.3,143.3h-5v.8h-.8v-.8h-.9a2.4,2.4,0,0,1-1.5-.4,1.6,1.6,0,0,1-.5-1.3,1.1,1.1,0,0,1,.1-.5c0-.1.1-.3.1-.4l.8.2a1.4,1.4,0,0,0-.2.6q0,.9,1.2.9h.9v-1.3h.8v1.3h5Z"/><path class="cls-3" d="M299.2,177.1l-7.9,2.5v-1.1l4.3-1.3,1.3-.3,1.3-.4h0l-1.3-.4-1.3-.3-4.3-1.3v-1l7.9,2.5Z"/><path class="cls-3" d="M299.3,170.3a1.6,1.6,0,0,1-.2,1,1.5,1.5,0,0,1-.6.9,2,2,0,0,1-.9.6l-1.3.2-1.3-.2a3.3,3.3,0,0,1-1-.6l-.6-.9a3,3,0,0,1-.2-1,3.6,3.6,0,0,1,.2-1l.6-.9,1-.6,1.3-.2,1.3.2.9.6a2.4,2.4,0,0,1,.6.9A1.8,1.8,0,0,1,299.3,170.3Zm-.8,0a1.7,1.7,0,0,0-.1-.7,1.2,1.2,0,0,0-.5-.5,1.5,1.5,0,0,0-.7-.3l-.9-.2-.9.2a1.5,1.5,0,0,0-.7.3l-.5.5a1.9,1.9,0,0,0-.2.7,1.4,1.4,0,0,0,.2.7l.5.5.7.4h1.8l.7-.4a1.2,1.2,0,0,0,.5-.5A1.5,1.5,0,0,0,298.5,170.3Z"/><path class="cls-3" d="M299.3,165c0,.4-.1.7-.3.8a1.5,1.5,0,0,1-1,.3h-7.4v-1h7.8c.1,0,.1-.1.1-.2h.7c.1,0,.1.1.1.2Z"/><path class="cls-3" d="M299.3,162a1,1,0,0,1-.3.8l-1,.2h-7.4v-1h7.8v-.2h0v-.2h.7v.6Z"/><path class="cls-3" d="M299.3,158.9c0,.4-.1.7-.3.8a1.5,1.5,0,0,1-1,.3h-7.4v-1h7.8c.1-.1.1-.1.1-.2h.7c.1,0,.1.1.1.2Z"/><path class="cls-3" d="M299.3,155.6a1.7,1.7,0,0,1-.4,1.2,1.7,1.7,0,0,1-2.7-.4,7.4,7.4,0,0,1-.7-2.7H295l-.5.2c-.1.1-.3.2-.3.4a.8.8,0,0,0-.2.6,2.9,2.9,0,0,0,.2.9,5.6,5.6,0,0,0,.5.8l-.7.4a3.1,3.1,0,0,1-.5-1,2.8,2.8,0,0,1-.3-1.3,1.6,1.6,0,0,1,.7-1.5,2.9,2.9,0,0,1,1.7-.5h3.6v.8h-.7l.6.9A2,2,0,0,1,299.3,155.6Zm-.8-.3a1.1,1.1,0,0,0-.2-.8,3.5,3.5,0,0,0-.5-.8h-1.7a10.4,10.4,0,0,0,.3,1.2l.3.8a1,1,0,0,0,.4.5h.5a.8.8,0,0,0,.7-.3A.8.8,0,0,0,298.5,155.3Z"/><path class="cls-3" d="M299.3,149.3a2.5,2.5,0,0,1-.2,1.2,2.1,2.1,0,0,1-.6,1l-.6-.5a5.6,5.6,0,0,0,.5-.8,2.4,2.4,0,0,0,.2-.9,1.2,1.2,0,0,0-.3-.9.9.9,0,0,0-.6-.3l-.4.2c-.2,0-.2.1-.3.3l-.3.4c0,.2-.1.3-.1.5l-.3.6-.3.6-.5.4h-1.3a1,1,0,0,1-.5-.4,2.1,2.1,0,0,1-.4-.6c0-.3-.1-.6-.1-.9a3,3,0,0,1,.2-1,2.2,2.2,0,0,1,.5-.8l.6.5-.4.6a1.5,1.5,0,0,0-.1.7,1.5,1.5,0,0,0,.2.8l.6.3h.4l.2-.3a.8.8,0,0,0,.2-.4l.2-.5.3-.7.3-.5a1,1,0,0,1,.5-.4.8.8,0,0,1,.7-.2h.7l.5.4a1.6,1.6,0,0,1,.4.7A2.8,2.8,0,0,1,299.3,149.3Z"/><path class="cls-3" d="M299.3,144.2a1.9,1.9,0,0,1-.1.8,1,1,0,0,1-.4.5l-.6.3h-4v.9h-.8v-.9l-1.7-.2v-.8h1.7v-1.6h.8v1.6h3.2a1.5,1.5,0,0,0,.8-.2.8.8,0,0,0,.3-.7v-.3c0-.2-.1-.3-.1-.4h.7c.1.1.1.3.2.5Z"/><path class="cls-3" d="M423.2,178.9h-7v2.3h-.8v-5.7h.8v2.4h7Z"/><path class="cls-3" d="M423.4,172.6a4.3,4.3,0,0,1-.2,1.1l-.6.9-1,.6-1.3.2-1.3-.2-.9-.6a2.4,2.4,0,0,1-.6-.9,1.6,1.6,0,0,1-.3-.9,3,3,0,0,1,.2-1l.6-.8a1.9,1.9,0,0,1,.9-.4l1.1-.2h.5v3.9a1.8,1.8,0,0,0,1.5-.6,1.6,1.6,0,0,0,.6-1.3,1.9,1.9,0,0,0-.2-.8,1.1,1.1,0,0,0-.3-.7l.7-.3a5.9,5.9,0,0,1,.4.8A3.6,3.6,0,0,1,423.4,172.6Zm-3.6,1.8v-3.1a1.7,1.7,0,0,0-1.3.4,1.2,1.2,0,0,0-.5,1c0,.2.1.4.1.6a1,1,0,0,0,.4.5l.6.4Z"/><path class="cls-3" d="M416.2,168.5c0,.2-.1.3-.2.5l-.4.2-.5-.2c-.1-.2-.2-.3-.2-.5a.8.8,0,0,1,.2-.5l.5-.2.4.2A.8.8,0,0,1,416.2,168.5Zm7,.5h-5.8v-1h5.8Z"/><path class="cls-3" d="M423.4,165a.8.8,0,0,1-.4.8c-.2.2-.5.2-1,.2h-7.3v-.9h7.8v-.2h-.1l.8-.2v.3A.4.4,0,0,1,423.4,165Z"/><path class="cls-3" d="M423.4,161.9c0,.4-.1.7-.4.8a1.3,1.3,0,0,1-1,.3h-7.3v-1h7.8a.3.3,0,0,0,.1-.2h.7v.2A.4.4,0,0,1,423.4,161.9Z"/><path class="cls-3" d="M423.4,158.9a.8.8,0,0,1-.4.8l-1,.2h-7.3v-1h7.8v-.2h0v-.2h.8v.2C423.4,158.6,423.4,158.7,423.4,158.9Z"/><path class="cls-3" d="M423.4,155.5a1.7,1.7,0,0,1-.5,1.2,1.3,1.3,0,0,1-1.2.5,1.9,1.9,0,0,1-1.5-.8,10.2,10.2,0,0,1-.7-2.8H419l-.5.2-.3.4a.7.7,0,0,0-.1.5,1.6,1.6,0,0,0,.2,1,2,2,0,0,0,.4.8l-.7.4-.5-1a2.8,2.8,0,0,1-.3-1.3,2.2,2.2,0,0,1,.7-1.6,2.9,2.9,0,0,1,1.7-.4h3.6v.8h-.7a2.4,2.4,0,0,1,.6.9A1.9,1.9,0,0,1,423.4,155.5Zm-.8-.3a3.1,3.1,0,0,0-.2-.8c-.2-.2-.3-.5-.6-.8h-1.6a5.1,5.1,0,0,0,.2,1.3l.3.8.4.4.5.2a1,1,0,0,0,.8-.3A1.9,1.9,0,0,0,422.6,155.2Z"/><path class="cls-3" d="M423.4,149.3a2.7,2.7,0,0,1-.3,1.2,3.1,3.1,0,0,1-.5,1l-.7-.5a3.5,3.5,0,0,0,.5-.8,2.9,2.9,0,0,0,.2-.9,1.2,1.2,0,0,0-.3-.9.7.7,0,0,0-.6-.3h-.4l-.3.3c-.1.2-.2.3-.2.5a.8.8,0,0,0-.2.4l-.3.7-.3.5a1,1,0,0,1-.5.4l-.6.2-.7-.2-.5-.4-.3-.6a1.9,1.9,0,0,1-.2-.8,3,3,0,0,1,.2-1,2.8,2.8,0,0,1,.5-.8l.6.4-.3.7a1.4,1.4,0,0,0-.2.7,1.1,1.1,0,0,0,.3.8l.6.2h.3l.3-.3c0-.1.1-.2.2-.4l.2-.5a1.4,1.4,0,0,1,.2-.6l.3-.6.5-.4h1.4l.6.4.3.7A2,2,0,0,1,423.4,149.3Z"/><path class="cls-3" d="M423.4,144.2a1.9,1.9,0,0,1-.2.8,1,1,0,0,1-.4.5l-.6.3h-4v.8h-.7v-.9h-1.6v-.8h1.6v-1.6h.8v1.6h3.2l.9-.2a.9.9,0,0,0,.3-.7v-.7l.8-.2c0,.2.1.3.1.5S423.4,144,423.4,144.2Z"/><path class="cls-3" d="M353.2,227.3a4.1,4.1,0,0,1-.3,1.6,4.7,4.7,0,0,1-.9,1.2l-.6-.6a8.6,8.6,0,0,0,.7-1,5,5,0,0,0,.2-1.2,2.1,2.1,0,0,0-.3-1.2,1.2,1.2,0,0,0-.9-.4h-.6l-.3.2-.3.5a.8.8,0,0,0-.2.5l-.5,1.1-.3.6-.4.5-.6.4h-.8l-.8-.2-.7-.5-.4-.8a3.1,3.1,0,0,1-.1-1,3,3,0,0,1,.2-1.3,3.6,3.6,0,0,1,.7-1l.7.5a4.2,4.2,0,0,0-.6.8,3.6,3.6,0,0,0-.2,1,1.8,1.8,0,0,0,.3,1.1,1,1,0,0,0,.9.4h.5l.3-.3.3-.4c.1-.2.1-.4.2-.5l.5-1.1.3-.7.4-.5.6-.3.8-.2.8.2a2.4,2.4,0,0,1,.8.6,2,2,0,0,1,.4.8A2,2,0,0,1,353.2,227.3Z"/><path class="cls-3" d="M353.2,221.6a1.7,1.7,0,0,1-.1.8l-.4.6-.6.2H348v.9h-.7v-.9l-1.6-.2v-.8h1.6v-1.6h.8v1.6h3.3a1.1,1.1,0,0,0,.8-.2c.2-.1.3-.3.3-.7v-.3a.4.4,0,0,1-.1-.3l.7-.2a.7.7,0,0,1,.1.5A1.1,1.1,0,0,1,353.2,221.6Z"/><path class="cls-3" d="M346,216.2a.6.6,0,0,1-.1.4l-.5.2-.4-.2a.8.8,0,0,1-.2-.4c0-.2.1-.3.2-.5h.9A.9.9,0,0,1,346,216.2Zm0,2.3c0,.2,0,.3-.1.4l-.5.2-.4-.2a.5.5,0,0,1,0-.8.4.4,0,0,1,.4-.2.6.6,0,0,1,.5.2C346,218.2,346,218.3,346,218.5Zm7.2-1.2a4.3,4.3,0,0,1-.2,1.1,1.6,1.6,0,0,1-.6.8,1.8,1.8,0,0,1-.9.6,3,3,0,0,1-1.3.2,2.5,2.5,0,0,1-1.3-.2,2.1,2.1,0,0,1-1-.6,1.6,1.6,0,0,1-.6-.8,4.3,4.3,0,0,1-.2-1.1,3.6,3.6,0,0,1,.2-1,2.4,2.4,0,0,1,.6-.9l1-.5a2.5,2.5,0,0,1,1.3-.3,3.1,3.1,0,0,1,1.3.3l.9.5a2.4,2.4,0,0,1,.6.9A3.6,3.6,0,0,1,353.2,217.3Zm-.8,0a2.5,2.5,0,0,0-.2-.7l-.4-.5-.7-.3-.9-.2-1,.2-.7.3-.4.5a2.5,2.5,0,0,0-.2.7,1.4,1.4,0,0,0,.2.7,1,1,0,0,0,.4.5l.7.4h1.9l.7-.4a1,1,0,0,0,.4-.5A1.4,1.4,0,0,0,352.4,217.3Z"/><path class="cls-3" d="M353.2,210.8a4.3,4.3,0,0,1-.2,1.1,1.6,1.6,0,0,1-.6.8,1.8,1.8,0,0,1-.9.6,3,3,0,0,1-1.3.2l-1.3-.2-1-.6a2.4,2.4,0,0,1-.6-.9,3.6,3.6,0,0,1-.2-1.1,3,3,0,0,1,.2-1l.5-.7.6.5c-.1.2-.3.4-.3.6a.8.8,0,0,0-.2.6,1.9,1.9,0,0,0,.2.7,2.1,2.1,0,0,0,.4.6l.7.4h1.9l.7-.4a.9.9,0,0,0,.4-.6,1.3,1.3,0,0,0,0-1.4,1.6,1.6,0,0,0-.4-.7l.7-.4a4.1,4.1,0,0,1,.5.9A3,3,0,0,1,353.2,210.8Z"/><path class="cls-3" d="M353.1,207.6h-8.6v-1h3.6l-.7-.9a2,2,0,0,1-.3-1.1,1.5,1.5,0,0,1,.6-1.3,2.7,2.7,0,0,1,1.7-.4h3.7v.9h-3.6a2.1,2.1,0,0,0-1.2.3,1.2,1.2,0,0,0-.4.8,1.1,1.1,0,0,0,.3.8,2.1,2.1,0,0,0,.6.8h4.3Z"/><path class="cls-3" d="M346,200.6a.9.9,0,0,1-.1.5l-.5.2-.5-.2a.9.9,0,0,1-.1-.5.7.7,0,0,1,.1-.5l.5-.2.5.2A.7.7,0,0,1,346,200.6Zm7.1.5h-5.9v-1h5.9Z"/><path class="cls-3" d="M353.2,195.9a3.6,3.6,0,0,1-.2,1,2.4,2.4,0,0,1-.6.9l-.9.6-1.3.2-1.3-.2-1-.6a2.4,2.4,0,0,1-.6-.9,3.6,3.6,0,0,1-.2-1,4.3,4.3,0,0,1,.2-1.1,1.6,1.6,0,0,1,.6-.8,2.1,2.1,0,0,1,1-.6,2.5,2.5,0,0,1,1.3-.2,3,3,0,0,1,1.3.2,1.8,1.8,0,0,1,.9.6,1.6,1.6,0,0,1,.6.8A4.3,4.3,0,0,1,353.2,195.9Zm-.8,0a1.4,1.4,0,0,0-.2-.7,1,1,0,0,0-.4-.5l-.7-.4h-1.9l-.7.4a1,1,0,0,0-.4.5,1.4,1.4,0,0,0-.2.7,2.5,2.5,0,0,0,.2.7l.4.5.7.3,1,.2.9-.2.7-.3.4-.5A2.5,2.5,0,0,0,352.4,195.9Z"/><path class="cls-3" d="M353.1,191.6h-5.9v-.8h.9l-.7-.8a1.9,1.9,0,0,1-.3-1,1.8,1.8,0,0,1,.3-1.1l.8-.5-.8-.9a1.9,1.9,0,0,1-.3-1,1.7,1.7,0,0,1,.6-1.4,2.7,2.7,0,0,1,1.7-.4h3.7v1h-3.6l-1.2.2a1.2,1.2,0,0,0-.4.8,2,2,0,0,0,.9,1.5h4.3v1h-3.6a2.1,2.1,0,0,0-1.2.3.9.9,0,0,0-.4.8,2.5,2.5,0,0,0,.9,1.5h4.3Z"/><path class="cls-3" d="M353.2,179.3a3.6,3.6,0,0,1-.2,1.1,1.5,1.5,0,0,1-.6.9,2.1,2.1,0,0,1-1,.6l-1.2.2-1.3-.2a2.1,2.1,0,0,1-1-.6,1.6,1.6,0,0,1-.6-.8,3.6,3.6,0,0,1-.2-1,3,3,0,0,1,.2-1,1.8,1.8,0,0,1,.5-.7l.9-.5h1.7v3.9a2.5,2.5,0,0,0,1.5-.5,2.2,2.2,0,0,0,.5-1.4,2.2,2.2,0,0,0-.1-.8l-.3-.6.6-.4a2.5,2.5,0,0,1,.4.9A1.6,1.6,0,0,1,353.2,179.3Zm-3.5,1.9V178a2.6,2.6,0,0,0-1.4.4,1.4,1.4,0,0,0-.4,1.1,1.3,1.3,0,0,0,.1.6l.3.5.6.4Z"/><path class="cls-3" d="M353.2,174a1.9,1.9,0,0,1-.1.8l-.4.5-.6.3H348v.9h-.7v-1h-1.6v-.8h1.6v-1.6h.8v1.6h3.3l.8-.2a.8.8,0,0,0,.3-.7v-.3a.8.8,0,0,1-.1-.4l.7-.2a1.3,1.3,0,0,1,.1.6A.9.9,0,0,1,353.2,174Z"/><path class="cls-3" d="M353.1,171.8h-5.9V171h1.1a2.4,2.4,0,0,1-.9-.8,1.4,1.4,0,0,1-.3-.9,1.3,1.3,0,0,1,.1-.6l.9.2v.5a1.3,1.3,0,0,0,.3.8,2,2,0,0,0,1,.7h3.8Z"/><path class="cls-3" d="M346,167.1a.7.7,0,0,1-.1.5.7.7,0,0,1-1,0,.7.7,0,0,1-.1-.5.9.9,0,0,1,.1-.5l.5-.2.5.2A.9.9,0,0,1,346,167.1Zm7.1.5h-5.9v-.9h5.9Z"/><path class="cls-3" d="M353.2,163.2a3.6,3.6,0,0,1-.2,1.1,4.4,4.4,0,0,1-.6,1l-.7-.5c.3-.2.4-.5.6-.7a3.1,3.1,0,0,0,.1-1c0-.4,0-.6-.2-.8a.9.9,0,0,0-.7-.3h-.4l-.3.3-.2.4c0,.2-.1.3-.2.5a1.4,1.4,0,0,1-.2.6,2.1,2.1,0,0,1-.4.6.8.8,0,0,1-.4.4h-1.3a1,1,0,0,1-.5-.4,2.1,2.1,0,0,1-.4-.6,2.5,2.5,0,0,1-.1-.9,3.6,3.6,0,0,1,.2-1,3.5,3.5,0,0,1,.5-.8l.6.5-.4.6a1.7,1.7,0,0,0-.1.7c0,.4,0,.7.2.8l.6.3h.4l.2-.3.2-.4.2-.5.3-.6c0-.2.2-.4.3-.6a1,1,0,0,1,.5-.4l.7-.2.6.2.6.4.4.6A3.1,3.1,0,0,1,353.2,163.2Z"/><path class="cls-3" d="M353.2,157.4a3.6,3.6,0,0,1-.2,1,1.5,1.5,0,0,1-.6.9l-.9.6-1.3.2-1.3-.2-1-.7a1.6,1.6,0,0,1-.6-.8,4.3,4.3,0,0,1-.2-1.1,3,3,0,0,1,.2-1,1.8,1.8,0,0,1,.5-.7l.6.5a.9.9,0,0,0-.3.5,1.4,1.4,0,0,0-.2.6,1.9,1.9,0,0,0,.2.8l.4.6.7.3,1,.2.9-.2.7-.3.4-.6a1.9,1.9,0,0,0,.2-.7,1.9,1.9,0,0,0-.2-.8l-.4-.6.7-.4a2.2,2.2,0,0,1,.5.8A4.3,4.3,0,0,1,353.2,157.4Z"/><path class="cls-3" d="M353.1,154.2h-8.6v-1h3.6a2.7,2.7,0,0,1-.7-.8,2,2,0,0,1-.3-1.1,1.7,1.7,0,0,1,.6-1.4,3.5,3.5,0,0,1,1.7-.4h3.7v1h-3.6a2.1,2.1,0,0,0-1.2.3.9.9,0,0,0-.4.8,1.1,1.1,0,0,0,.3.8l.6.8h4.3Z"/><path class="cls-3" d="M353.2,145.3a3.6,3.6,0,0,1-.2,1.1,2.4,2.4,0,0,1-.6.9l-1,.6-1.2.2-1.3-.2-1-.6a1.8,1.8,0,0,1-.6-.9,2.9,2.9,0,0,1-.2-.9,3,3,0,0,1,.2-1,1.3,1.3,0,0,1,.5-.7l.9-.5,1.1-.2h.6v3.9a2,2,0,0,0,1.5-.6,1.9,1.9,0,0,0,.5-1.3,1.9,1.9,0,0,0-.1-.8l-.3-.7.6-.3a2,2,0,0,1,.4.8A2,2,0,0,1,353.2,145.3Zm-3.5,1.8V144a2,2,0,0,0-1.4.4,1.2,1.2,0,0,0-.4,1c0,.3,0,.5.1.6l.3.6.6.3Z"/><path class="cls-3" d="M353.2,140.2a5,5,0,0,1-.2,1.2l-.6,1-.7-.5.6-.8a3.1,3.1,0,0,0,.1-1,1.1,1.1,0,0,0-.2-.8.9.9,0,0,0-.7-.3h-.4l-.3.3-.2.4a.8.8,0,0,1-.2.5,2.5,2.5,0,0,1-.2.7l-.4.5a.8.8,0,0,1-.4.4l-.7.2-.6-.2a1,1,0,0,1-.5-.4.9.9,0,0,1-.4-.6,1.9,1.9,0,0,1-.1-.8,4.3,4.3,0,0,1,.2-1.1,3.5,3.5,0,0,1,.5-.8l.6.5-.4.6a2.2,2.2,0,0,0-.1.8,1.1,1.1,0,0,0,.2.8l.6.2h.4l.2-.3a.5.5,0,0,0,.2-.4c.1-.1.1-.3.2-.5l.3-.6c0-.2.2-.4.3-.6l.5-.4.7-.2.6.2.6.4a1.6,1.6,0,0,1,.4.7A2.2,2.2,0,0,1,353.2,140.2Z"/><path class="cls-3" d="M353.2,131.1a3.2,3.2,0,0,1-.3,1.4,1.8,1.8,0,0,1-.8,1.1,2.5,2.5,0,0,1-1.2.8,5.2,5.2,0,0,1-1.8.2l-1.7-.2a5.7,5.7,0,0,1-1.3-.8,4.4,4.4,0,0,1-.8-1.1,3.9,3.9,0,0,1-.2-1.5v-.7a1.6,1.6,0,0,1,.3-.6l.3-.6.3-.3.7.5-.6.7a3,3,0,0,0-.2,1,2,2,0,0,0,.3,1.1,1.6,1.6,0,0,0,.6.8,3.1,3.1,0,0,0,1,.5l1.3.2,1.3-.2,1.1-.5a2.4,2.4,0,0,0,.6-.8,2,2,0,0,0,.2-1.1,1.9,1.9,0,0,0-.1-.8,1.6,1.6,0,0,0-.3-.6h-2.1v1.6H349v-2.5h3.3a2.6,2.6,0,0,1,.7,1A5.9,5.9,0,0,1,353.2,131.1Z"/><path class="cls-3" d="M353.2,124.5a3.6,3.6,0,0,1-.2,1.1,2.4,2.4,0,0,1-.6.9l-1,.6-1.2.2-1.3-.2-1-.6a1.6,1.6,0,0,1-.6-.8,3.6,3.6,0,0,1-.2-1,3,3,0,0,1,.2-1,1.8,1.8,0,0,1,.5-.7l.9-.5h1.7v3.9a2.5,2.5,0,0,0,1.5-.5,2.2,2.2,0,0,0,.5-1.4,2.2,2.2,0,0,0-.1-.8l-.3-.7.6-.3a2,2,0,0,1,.4.8A2.2,2.2,0,0,1,353.2,124.5Zm-3.5,1.8v-3.1a2.6,2.6,0,0,0-1.4.4,1.4,1.4,0,0,0-.4,1.1,1.3,1.3,0,0,0,.1.6l.3.5.6.3Z"/><path class="cls-3" d="M353.1,120.9h-5.9v-.8h.9l-.7-.8a1.9,1.9,0,0,1-.3-1,1.8,1.8,0,0,1,.3-1.1l.8-.5a3.9,3.9,0,0,1-.8-1,1.7,1.7,0,0,1-.3-1,1.5,1.5,0,0,1,.6-1.3,2.7,2.7,0,0,1,1.7-.4h3.7v1h-3.6a2.2,2.2,0,0,0-1.2.2,1.2,1.2,0,0,0-.4.8,2,2,0,0,0,.9,1.5h4.3v1h-3.6l-1.2.2a1.3,1.3,0,0,0-.4.9,2.1,2.1,0,0,0,.9,1.4h4.3Z"/><path class="cls-3" d="M346,110.5a.9.9,0,0,1-.1.5l-.5.2-.5-.2a.9.9,0,0,1-.1-.5.7.7,0,0,1,.1-.5l.5-.2.5.2A.7.7,0,0,1,346,110.5Zm7.1.5h-5.9v-1h5.9Z"/><path class="cls-3" d="M353.2,106.5a5,5,0,0,1-.2,1.2l-.6,1-.7-.5.6-.8a2.8,2.8,0,0,0,.1-.9c0-.4,0-.7-.2-.9a.9.9,0,0,0-.7-.3h-.4l-.3.3c0,.2-.1.3-.2.5l-.2.4a1.4,1.4,0,0,1-.2.7,1,1,0,0,1-.4.5.8.8,0,0,1-.4.4l-.7.2-.6-.2a.7.7,0,0,1-.5-.4.9.9,0,0,1-.4-.6,1.9,1.9,0,0,1-.1-.8,3,3,0,0,1,.2-1,2.2,2.2,0,0,1,.5-.8l.6.4a1.6,1.6,0,0,0-.4.7,1.5,1.5,0,0,0-.1.7,1.1,1.1,0,0,0,.2.8l.6.2h.4c.1,0,.1-.1.2-.3a.5.5,0,0,0,.2-.4c.1-.1.1-.3.2-.5l.3-.6c0-.2.2-.4.3-.6l.5-.4h1.3l.6.4a1.6,1.6,0,0,1,.4.7A2.5,2.5,0,0,1,353.2,106.5Z"/><path class="cls-3" d="M353.2,100.7a4.3,4.3,0,0,1-.2,1.1,1.6,1.6,0,0,1-.6.8,1.8,1.8,0,0,1-.9.6,3,3,0,0,1-1.3.2,2.5,2.5,0,0,1-1.3-.2l-1-.6a2.4,2.4,0,0,1-.6-.9,3.6,3.6,0,0,1-.2-1.1,3,3,0,0,1,.2-1l.5-.7.6.5c-.1.2-.3.4-.3.6a1.1,1.1,0,0,0-.2.6,1.9,1.9,0,0,0,.2.7,2.1,2.1,0,0,0,.4.6l.7.4h1.9l.7-.4a.9.9,0,0,0,.4-.6,1.3,1.3,0,0,0,0-1.4,1.6,1.6,0,0,0-.4-.7l.7-.4a4.1,4.1,0,0,1,.5.9A3,3,0,0,1,353.2,100.7Z"/><path class="cls-3" d="M353.1,97.5h-8.6v-1h3.6l-.7-.9a2,2,0,0,1-.3-1.1,1.5,1.5,0,0,1,.6-1.3,2.7,2.7,0,0,1,1.7-.4h3.7v.9h-3.6a2.1,2.1,0,0,0-1.2.3,1.2,1.2,0,0,0-.4.8,1.1,1.1,0,0,0,.3.8,2.1,2.1,0,0,0,.6.8h4.3Z"/><path class="cls-3" d="M510.6,209.5H510l-6.5-4.2v3.8h-.8v-5h.6l6.4,4.1v-4.1h.9Z"/><path class="cls-3" d="M503.5,199.4c0,.2,0,.3-.2.4s-.2.2-.4.2-.3,0-.4-.2a.5.5,0,0,1,0-.8l.4-.2a.5.5,0,0,1,.4.2C503.5,199.1,503.5,199.2,503.5,199.4Zm0,2.3a.6.6,0,0,1-.2.5h-.8c-.1-.2-.2-.3-.2-.5a.8.8,0,0,1,.2-.4l.4-.2a.5.5,0,0,1,.4.2A.4.4,0,0,1,503.5,201.7Zm7.2-.6a1.6,1.6,0,0,1-.6,1.4,2.7,2.7,0,0,1-1.7.4h-3.7v-1h3.6a2.2,2.2,0,0,0,1.2-.2,1.2,1.2,0,0,0,.3-.9,1.2,1.2,0,0,0-.2-.8l-.7-.7h-4.2v-1h5.9v.8h-1a3.2,3.2,0,0,1,.8.9A1.7,1.7,0,0,1,510.7,201.1Z"/><path class="cls-3" d="M510.6,196.3h-5.9v-.8h.9l-.7-.9a2,2,0,0,1-.3-1.1,1.5,1.5,0,0,1,.6-1.3,2.5,2.5,0,0,1,1.7-.4h3.7v.9H507a1.7,1.7,0,0,0-1.2.3,1.2,1.2,0,0,0-.4.8,1.1,1.1,0,0,0,.3.8,2.1,2.1,0,0,0,.6.8h4.3Z"/><path class="cls-3" d="M510.7,187.8a2.1,2.1,0,0,1-.8,1.7,3.1,3.1,0,0,1-2.2.7l-1.3-.2-1-.6a1.6,1.6,0,0,1-.6-.8,3,3,0,0,1-.2-1,1.1,1.1,0,0,1,.2-.8,1.8,1.8,0,0,1,.5-.8H502v-1h8.6v.8h-.7l.6.8A3,3,0,0,1,510.7,187.8Zm-.8-.3a1.9,1.9,0,0,0-.2-.7l-.6-.7H506a1.8,1.8,0,0,0-.5.7c0,.2-.1.4-.1.7a1.4,1.4,0,0,0,.2.6,2.1,2.1,0,0,0,.4.6l.7.3.9.2a2.9,2.9,0,0,0,1.7-.5A1.2,1.2,0,0,0,509.9,187.5Z"/><path class="cls-3" d="M513.2,181.1a3.1,3.1,0,0,1-.1,1,1.1,1.1,0,0,1-.3.8,1.2,1.2,0,0,1-.5.5h-.6a.8.8,0,0,1-.7-.2.9.9,0,0,1-.6-.6h-.1c-.1.1-.2.3-.4.4h-.5l-.7-.2-.4-.4h-.1c-.1.2-.3.3-.6.5l-.9.2h-.9l-.7-.5-.4-.7a2.8,2.8,0,0,1-.1-.9v-.4a.8.8,0,0,0,.1-.4v-2h.8v1.2a1,1,0,0,1,.5-.4h.7l.8.2.7.4a4.3,4.3,0,0,1,.4.7,2.2,2.2,0,0,1,.1.8v.5c-.1.1-.1.3-.2.4l.3.3h.4l.5-.2a2.2,2.2,0,0,0,.1-.9v-1.1a2.1,2.1,0,0,1,.4-1.5c.2-.4.5-.5,1-.5a1.1,1.1,0,0,1,.8.2,1.2,1.2,0,0,1,.6.6,1.9,1.9,0,0,1,.5.9A4.9,4.9,0,0,1,513.2,181.1Zm-5.2,0v-.4l-.3-.4c-.1-.2-.3-.2-.5-.3h-.5a1.1,1.1,0,0,0-1,.4.9.9,0,0,0-.4.8,1,1,0,0,0,.4.9,1.3,1.3,0,0,0,1,.4h.5l.5-.3.3-.4Zm4.6-.1c0-.3-.1-.5-.1-.8l-.3-.6-.4-.3-.4-.2a.6.6,0,0,0-.6.3,2.2,2.2,0,0,0-.1.9v1.8c.1.2.3.3.4.4l.5.2a.9.9,0,0,0,.8-.5A2.1,2.1,0,0,0,512.6,181Z"/><path class="cls-3" d="M510.6,177.1h-5.9v-.9h1.1a2.2,2.2,0,0,1-.9-.7,1.6,1.6,0,0,1-.3-.9,1.5,1.5,0,0,1,.1-.7l.9.2a.4.4,0,0,0-.1.3v.3a1.6,1.6,0,0,0,.3.8,2.9,2.9,0,0,0,1,.7h3.8Z"/><path class="cls-3" d="M510.7,170.6a3.6,3.6,0,0,1-.2,1.1,1.5,1.5,0,0,1-.6.9,2.1,2.1,0,0,1-1,.6,2.3,2.3,0,0,1-1.2.2,2.5,2.5,0,0,1-1.3-.2,2.1,2.1,0,0,1-1-.6,1.6,1.6,0,0,1-.6-.8,3,3,0,0,1-.2-1,2.2,2.2,0,0,1,.7-1.7l.9-.4a2,2,0,0,1,1.1-.2h.6v4a3.4,3.4,0,0,0,1.5-.6,2.2,2.2,0,0,0,.5-1.4,2.2,2.2,0,0,0-.1-.8l-.3-.6.6-.4a3.6,3.6,0,0,1,.4.9A3,3,0,0,1,510.7,170.6Zm-3.5,1.9v-3.1a2.6,2.6,0,0,0-1.4.3,1.4,1.4,0,0,0-.4,1.1,1.3,1.3,0,0,0,.1.6l.3.5.6.4Z"/><path class="cls-3" d="M510.6,167.1h-5.9v-.9h.9l-.7-.9a1.7,1.7,0,0,1-.3-1,1.6,1.6,0,0,1,.6-1.4,2.5,2.5,0,0,1,1.7-.4h3.7v1H507l-1.2.2a1.3,1.3,0,0,0-.4.9,1.3,1.3,0,0,0,.3.8,3.3,3.3,0,0,0,.6.8h4.3Z"/><path class="cls-3" d="M510.6,161.1H510l-4.5-3.1v2.8h-.8v-4h.6l4.5,3.1v-3.2h.8Z"/><path class="cls-3" d="M510.7,153.1a3.6,3.6,0,0,1-.2,1.1,1.5,1.5,0,0,1-.6.9,2.1,2.1,0,0,1-1,.6,2.3,2.3,0,0,1-1.2.2,2.5,2.5,0,0,1-1.3-.2,2.1,2.1,0,0,1-1-.6,1.6,1.6,0,0,1-.6-.8,3,3,0,0,1-.2-1,2.2,2.2,0,0,1,.7-1.7l.9-.4,1.1-.2h.6v4a3.4,3.4,0,0,0,1.5-.6,2.2,2.2,0,0,0,.5-1.4,1.5,1.5,0,0,0-.1-.7l-.3-.7.6-.4a3.6,3.6,0,0,1,.4.9A3,3,0,0,1,510.7,153.1Zm-3.5,1.9v-3.1a2.6,2.6,0,0,0-1.4.3,1.4,1.4,0,0,0-.4,1.1,1.3,1.3,0,0,0,.1.6l.3.5.6.4Z"/><path class="cls-3" d="M510.6,147.2h-5.9v-.9h.9a2.7,2.7,0,0,1-.7-.8,1.7,1.7,0,0,1-.3-1,1.5,1.5,0,0,1,.3-1,1.2,1.2,0,0,1,.8-.6l-.8-.9a1.9,1.9,0,0,1-.3-1,1.7,1.7,0,0,1,.6-1.4,3.2,3.2,0,0,1,1.7-.4h3.7v1H507a1.7,1.7,0,0,0-1.2.3.9.9,0,0,0-.4.8,2.1,2.1,0,0,0,.9,1.4h4.3v1H507a1.7,1.7,0,0,0-1.2.3,1,1,0,0,0-.4.8c0,.5.3.9.9,1.5h4.3Z"/><path class="cls-3" d="M510.7,135.9a1.6,1.6,0,0,1-.4,1.2,1.7,1.7,0,0,1-1.3.5,1.5,1.5,0,0,1-1.4-.9,5.5,5.5,0,0,1-.7-2.7h-.6l-.4.2-.4.4a1.3,1.3,0,0,0-.1.6,2.9,2.9,0,0,0,.2.9,5.9,5.9,0,0,0,.4.8l-.7.4-.5-1a5.1,5.1,0,0,1-.2-1.3,1.8,1.8,0,0,1,.6-1.5,3.5,3.5,0,0,1,1.8-.5h3.6v.8h-.7l.6.9A4.3,4.3,0,0,1,510.7,135.9Zm-.8-.3a1.9,1.9,0,0,0-.2-.8,2.1,2.1,0,0,0-.6-.8h-1.6c.1.5.1.9.2,1.2a3.4,3.4,0,0,0,.3.8l.5.5h.5a.9.9,0,0,0,.7-.3A1.4,1.4,0,0,0,509.9,135.6Z"/><path class="cls-3" d="M513.2,129.2a3.1,3.1,0,0,1-.1,1,.9.9,0,0,1-.3.7.8.8,0,0,1-.5.5l-.6.2-.7-.2-.6-.6h-.1l-.4.3-.5.2-.7-.2-.4-.5h-.1a1.7,1.7,0,0,1-.6.6l-.9.2-.9-.2a1.8,1.8,0,0,1-.7-.5,4.3,4.3,0,0,1-.4-.7,1.9,1.9,0,0,1-.1-.8v-.5a.4.4,0,0,0,.1-.3v-2.1h.8v1.2l.5-.3h1.5a1.8,1.8,0,0,1,.7.5,4.3,4.3,0,0,1,.4.7,1.9,1.9,0,0,1,.1.8v.4l-.2.5.3.2h.4a.6.6,0,0,0,.5-.2c.1-.1.1-.4.1-.8v-1.1a2.1,2.1,0,0,1,.4-1.5,1,1,0,0,1,1-.6l.8.2.6.6a3.1,3.1,0,0,1,.5,1A4.1,4.1,0,0,1,513.2,129.2Zm-5.2,0v-.5l-.3-.4-.5-.2h-.5a1.3,1.3,0,0,0-1,.3,1.2,1.2,0,0,0,0,1.8,1.3,1.3,0,0,0,1,.3h.5l.5-.2.3-.4Zm4.6-.1c0-.3-.1-.6-.1-.8l-.3-.6-.4-.4h-.4a.6.6,0,0,0-.6.3,2.2,2.2,0,0,0-.1.9v1c0,.1-.1.2-.1.4v.3a1.1,1.1,0,0,0,.4.5h.5a.8.8,0,0,0,.8-.4A2.1,2.1,0,0,0,512.6,129.1Z"/><path class="cls-3" d="M510.7,122.9a3.6,3.6,0,0,1-.2,1.1,1.5,1.5,0,0,1-.6.9,2.1,2.1,0,0,1-1,.6l-1.2.2-1.3-.2-1-.6a1.6,1.6,0,0,1-.6-.8,3.6,3.6,0,0,1-.2-1,1.6,1.6,0,0,1,.2-1,1.8,1.8,0,0,1,.5-.7l.9-.5h1.7v3.9a2.5,2.5,0,0,0,1.5-.5,2.2,2.2,0,0,0,.5-1.4,2.2,2.2,0,0,0-.1-.8l-.3-.7.6-.3a2.5,2.5,0,0,1,.4.9A3,3,0,0,1,510.7,122.9Zm-3.5,1.9v-3.2a2.6,2.6,0,0,0-1.4.4,1.4,1.4,0,0,0-.4,1.1,1.3,1.3,0,0,0,.1.6l.3.5.6.4Z"/><path class="cls-3" d="M510.6,119.3h-5.9v-.8h1.1a2.2,2.2,0,0,1-.9-.7,1.7,1.7,0,0,1-.3-1,1.3,1.3,0,0,1,.1-.6l.9.2a.4.4,0,0,0-.1.3v.3a1.1,1.1,0,0,0,.3.7,2,2,0,0,0,1,.7h3.8Z"/><path class="cls-3" d="M666,222.5h-.6l-6.5-4.2v3.8h-.8v-5h.6l6.4,4.2v-4.2h.9Z"/><path class="cls-3" d="M658.9,212.4c0,.2,0,.3-.2.4s-.2.2-.4.2-.3,0-.4-.2a.5.5,0,0,1,0-.8l.4-.2.4.2C658.9,212.1,658.9,212.2,658.9,212.4Zm0,2.3a.6.6,0,0,1-.2.5h-.8c-.1-.2-.2-.3-.2-.5a.8.8,0,0,1,.2-.4l.4-.2.4.2A.4.4,0,0,1,658.9,214.7Zm7.2-.6a1.6,1.6,0,0,1-.6,1.4,2.7,2.7,0,0,1-1.7.4h-3.7v-1h3.6a2.2,2.2,0,0,0,1.2-.2,1.3,1.3,0,0,0,.4-.9,1.3,1.3,0,0,0-.3-.8l-.7-.7h-4.2v-1H666v.8h-1a3.2,3.2,0,0,1,.8.9A1.7,1.7,0,0,1,666.1,214.1Z"/><path class="cls-3" d="M666,209.3h-5.9v-.8h.9l-.7-.9a2,2,0,0,1-.3-1.1,1.5,1.5,0,0,1,.6-1.3,2.5,2.5,0,0,1,1.7-.4H666v.9h-3.6a1.7,1.7,0,0,0-1.2.3,1.2,1.2,0,0,0-.4.8,1.1,1.1,0,0,0,.3.8,2.1,2.1,0,0,0,.6.8H666Z"/><path class="cls-3" d="M666.1,200.8a2.1,2.1,0,0,1-.8,1.7,3.1,3.1,0,0,1-2.2.7l-1.3-.2-1-.6a1.6,1.6,0,0,1-.6-.8,3,3,0,0,1-.2-1,1.1,1.1,0,0,1,.2-.8,1.8,1.8,0,0,1,.5-.8h-3.3v-1H666v.8h-.7l.6.8A3,3,0,0,1,666.1,200.8Zm-.8-.2a1.9,1.9,0,0,0-.2-.8l-.6-.7h-3.1a1,1,0,0,0-.4.7,1.4,1.4,0,0,0-.2.7,1.4,1.4,0,0,0,.2.6l.4.6.7.3.9.2a2.9,2.9,0,0,0,1.7-.5A1.1,1.1,0,0,0,665.3,200.6Z"/><path class="cls-3" d="M668.6,194.1a3.1,3.1,0,0,1-.1,1,1.1,1.1,0,0,1-.3.8l-.5.5h-.6a.8.8,0,0,1-.7-.2.9.9,0,0,1-.6-.6h-.1c-.1.1-.2.3-.4.4h-.5l-.7-.2c-.2-.1-.3-.3-.4-.4h-.1c-.1.2-.3.3-.6.5a1.5,1.5,0,0,1-.9.2h-.9l-.7-.5-.4-.7a2.8,2.8,0,0,1-.1-.9v-.4a.8.8,0,0,0,.1-.4v-2h.8v1.2a1,1,0,0,1,.5-.4h.7l.8.2.7.4a4.3,4.3,0,0,1,.4.7,2.2,2.2,0,0,1,.1.8v.5c-.1.1-.1.3-.2.4l.3.3h.4l.5-.2a2.2,2.2,0,0,0,.1-.9v-1.1a2.1,2.1,0,0,1,.4-1.5,1.1,1.1,0,0,1,1-.5,1.1,1.1,0,0,1,.8.2,1.2,1.2,0,0,1,.6.6,1.9,1.9,0,0,1,.5.9A4.9,4.9,0,0,1,668.6,194.1Zm-5.1,0c0-.1-.1-.3-.1-.4l-.3-.4c-.1-.2-.3-.2-.5-.3h-.5a1.1,1.1,0,0,0-1,.4.9.9,0,0,0-.4.8,1,1,0,0,0,.4.9,1.3,1.3,0,0,0,1,.4h.5l.5-.3.3-.4A4.3,4.3,0,0,0,663.5,194.1Zm4.5-.1c0-.3-.1-.5-.1-.8l-.3-.6-.4-.3-.4-.2a.6.6,0,0,0-.6.3,2.2,2.2,0,0,0-.1.9v1.8l.4.4.5.2a.9.9,0,0,0,.8-.5A2.1,2.1,0,0,0,668,194Z"/><path class="cls-3" d="M666,190.1h-5.9v-.9h1.1a2.2,2.2,0,0,1-.9-.7,1.6,1.6,0,0,1-.3-.9,1.5,1.5,0,0,1,.1-.7l.9.2a.4.4,0,0,0-.1.3v.3a1.6,1.6,0,0,0,.3.8,2.9,2.9,0,0,0,1,.7H666Z"/><path class="cls-3" d="M666.1,183.6a3.6,3.6,0,0,1-.2,1.1,1.5,1.5,0,0,1-.6.9,2.1,2.1,0,0,1-1,.6,2.3,2.3,0,0,1-1.2.2,2.5,2.5,0,0,1-1.3-.2,2.1,2.1,0,0,1-1-.6,1.6,1.6,0,0,1-.6-.8,3,3,0,0,1-.2-1,2.2,2.2,0,0,1,.7-1.7l.9-.4a2,2,0,0,1,1.1-.2h.6v4a3.4,3.4,0,0,0,1.5-.6,2.2,2.2,0,0,0,.5-1.4,1.5,1.5,0,0,0-.1-.7l-.3-.7.6-.4a3.6,3.6,0,0,1,.4.9A3,3,0,0,1,666.1,183.6Zm-3.5,1.9v-3.1a2.6,2.6,0,0,0-1.4.3,1.4,1.4,0,0,0-.4,1.1,1.3,1.3,0,0,0,.1.6l.3.5.6.4Z"/><path class="cls-3" d="M666,180.1h-5.9v-.9h.9l-.7-.9a1.7,1.7,0,0,1-.3-1,1.6,1.6,0,0,1,.6-1.4,2.5,2.5,0,0,1,1.7-.4H666v1h-3.6l-1.2.2a1.3,1.3,0,0,0-.4.9,1.3,1.3,0,0,0,.3.8,3.3,3.3,0,0,0,.6.8H666Z"/><path class="cls-3" d="M666,174.1h-.6l-4.5-3.1v2.8h-.8v-4h.6l4.5,3.1v-3.2h.8Z"/><path class="cls-3" d="M666.1,166.1a3.6,3.6,0,0,1-.2,1.1,1.5,1.5,0,0,1-.6.9,2.1,2.1,0,0,1-1,.6,2.3,2.3,0,0,1-1.2.2,2.5,2.5,0,0,1-1.3-.2,2.1,2.1,0,0,1-1-.6,1.6,1.6,0,0,1-.6-.8,3,3,0,0,1-.2-1,2.2,2.2,0,0,1,.7-1.7l.9-.4,1.1-.2h.6v4a3.4,3.4,0,0,0,1.5-.6,2.2,2.2,0,0,0,.5-1.4,1.5,1.5,0,0,0-.1-.7l-.3-.7.6-.4a3.6,3.6,0,0,1,.4.9A3,3,0,0,1,666.1,166.1Zm-3.5,1.9v-3.1a2.6,2.6,0,0,0-1.4.3,1.4,1.4,0,0,0-.4,1.1,1.3,1.3,0,0,0,.1.6l.3.5.6.4Z"/><path class="cls-3" d="M666,160.1h-7.9v-1.2l4.2-1.5.8-.3.8-.3h0l-.8-.2-.8-.3-4.2-1.5v-1.2H666v.9h-6.7l1.8.6,4.1,1.5v.6l-4.1,1.5-1.8.6H666Z"/><path class="cls-3" d="M666.1,150.1a1.6,1.6,0,0,1-.4,1.2,1.7,1.7,0,0,1-1.3.5,1.5,1.5,0,0,1-1.4-.9,5.2,5.2,0,0,1-.7-2.7h-.6l-.4.2c-.2,0-.3.2-.4.3a1.3,1.3,0,0,0-.1.6,3,3,0,0,0,.2,1l.4.8-.7.3-.5-1a4.3,4.3,0,0,1-.2-1.2,1.8,1.8,0,0,1,.6-1.6,3.5,3.5,0,0,1,1.8-.5H666v.8h-.7a3.5,3.5,0,0,1,.6.9A3,3,0,0,1,666.1,150.1Zm-.8-.3a2.4,2.4,0,0,0-.2-.8l-.6-.8h-1.6a6.9,6.9,0,0,1,.2,1.3,2,2,0,0,0,.4.8l.4.4h.5a.8.8,0,0,0,.7-.3A1.4,1.4,0,0,0,665.3,149.8Z"/><path class="cls-3" d="M668.6,143.4a3.1,3.1,0,0,1-.1,1,1.1,1.1,0,0,1-.3.8l-.5.5h-.6a.8.8,0,0,1-.7-.2,1.2,1.2,0,0,1-.6-.6h-.1l-.4.3-.5.2-.7-.2c-.2-.1-.3-.3-.4-.4h-.1c-.1.2-.3.3-.6.5l-.9.2a1.3,1.3,0,0,1-.9-.2l-.7-.4-.4-.7a2.8,2.8,0,0,1-.1-.9V143a.8.8,0,0,0,.1-.4v-2h.8v1.2a1,1,0,0,1,.5-.4h.7a1.1,1.1,0,0,1,.8.2l.7.4a4.3,4.3,0,0,1,.4.7,1.9,1.9,0,0,1,.1.8v.5c-.1.1-.1.3-.2.4l.3.3h.4l.5-.2a2.2,2.2,0,0,0,.1-.9v-1.1a2.1,2.1,0,0,1,.4-1.5c.2-.4.5-.5,1-.5a1.1,1.1,0,0,1,.8.2,1.2,1.2,0,0,1,.6.6,1.9,1.9,0,0,1,.5.9A4.9,4.9,0,0,1,668.6,143.4Zm-5.1,0a4.3,4.3,0,0,1-.1-.5l-.3-.3a.5.5,0,0,0-.5-.3h-.5a1.3,1.3,0,0,0-1,.3,1.2,1.2,0,0,0-.4.9,1,1,0,0,0,.4.9,1.3,1.3,0,0,0,1,.4h.5l.5-.3.3-.4C663.4,143.7,663.5,143.6,663.5,143.4Zm4.5-.1c0-.3-.1-.6-.1-.8l-.3-.6c-.1-.1-.2-.3-.4-.3l-.4-.2a.6.6,0,0,0-.6.3,2.2,2.2,0,0,0-.1.9v1c0,.1-.1.2-.1.4v.4l.4.4.5.2a.9.9,0,0,0,.8-.5A2.1,2.1,0,0,0,668,143.3Z"/><path class="cls-3" d="M666.1,137.1a3.6,3.6,0,0,1-.2,1.1,1.5,1.5,0,0,1-.6.9,2.1,2.1,0,0,1-1,.6,2.3,2.3,0,0,1-1.2.2,2.5,2.5,0,0,1-1.3-.2,2.1,2.1,0,0,1-1-.6,1.6,1.6,0,0,1-.6-.8,3,3,0,0,1-.2-1,2.2,2.2,0,0,1,.7-1.7l.9-.4a2,2,0,0,1,1.1-.2h.6v4a3.4,3.4,0,0,0,1.5-.6,2.2,2.2,0,0,0,.5-1.4,1.5,1.5,0,0,0-.1-.7l-.3-.7.6-.4a3.6,3.6,0,0,1,.4.9A3,3,0,0,1,666.1,137.1Zm-3.5,1.9v-3.1a2.6,2.6,0,0,0-1.4.3,1.4,1.4,0,0,0-.4,1.1,1.3,1.3,0,0,0,.1.6l.3.5.6.4Z"/><path class="cls-3" d="M666,133.6h-5.9v-.9h1.1a2.2,2.2,0,0,1-.9-.7,1.6,1.6,0,0,1-.3-.9,1.5,1.5,0,0,1,.1-.7l.9.2a.4.4,0,0,0-.1.3v.3a1.6,1.6,0,0,0,.3.8,2.9,2.9,0,0,0,1,.7H666Z"/><path class="cls-3" d="M666,129.4h-5.9v-.8h.9l-.7-.9a1.7,1.7,0,0,1-.3-1,1.5,1.5,0,0,1,.3-1,1.7,1.7,0,0,1,.8-.6l-.8-.9a1.7,1.7,0,0,1-.3-1,1.5,1.5,0,0,1,.6-1.3,2.5,2.5,0,0,1,1.7-.5H666v1h-3.6a1.7,1.7,0,0,0-1.2.3,1,1,0,0,0-.4.8,2.5,2.5,0,0,0,.9,1.5H666v1h-3.6c-.6,0-1,0-1.2.2a1.2,1.2,0,0,0-.4.8,2,2,0,0,0,.9,1.5H666Z"/><path class="cls-3" d="M666.1,117.2a3.6,3.6,0,0,1-.2,1,2.4,2.4,0,0,1-.6.9l-1,.6-1.2.2-1.3-.2-1-.6a2.4,2.4,0,0,1-.6-.9,3.6,3.6,0,0,1-.2-1,3,3,0,0,1,.2-1,1.5,1.5,0,0,1,.6-.9,2.1,2.1,0,0,1,1-.6l1.3-.2,1.2.2a2.1,2.1,0,0,1,1,.6,1.5,1.5,0,0,1,.6.9A3,3,0,0,1,666.1,117.2Zm-.8,0a1.4,1.4,0,0,0-.2-.7,1,1,0,0,0-.4-.5l-.7-.4h-1.9l-.7.4a1,1,0,0,0-.4.5,1.4,1.4,0,0,0-.2.7,1.9,1.9,0,0,0,.2.7l.4.5.7.3,1,.2.9-.2.7-.3.4-.5A1.9,1.9,0,0,0,665.3,117.2Z"/><path class="cls-3" d="M666.1,111.3a1.9,1.9,0,0,1-.1.8l-.4.5-.6.3h-4.1v.8h-.7v-.9h-1.6V112h1.6v-1.6h.8V112h3.3l.8-.2a.8.8,0,0,0,.3-.7v-.4l-.2-.3.8-.2c0,.2.1.4.1.6A.7.7,0,0,1,666.1,111.3Z"/><path class="cls-3" d="M666.1,107a3,3,0,0,1-.2,1,2.4,2.4,0,0,1-.6.9l-1,.6-1.2.2-1.3-.2-1-.6a2.4,2.4,0,0,1-.6-.9,2.6,2.6,0,0,1,0-2,1.8,1.8,0,0,1,.6-.9l1-.6,1.3-.2,1.2.2,1,.6a1.8,1.8,0,0,1,.6.9A3,3,0,0,1,666.1,107Zm-.8,0a1.4,1.4,0,0,0-.2-.7,1,1,0,0,0-.4-.5l-.7-.4h-1.9l-.7.4a1,1,0,0,0-.4.5,1.4,1.4,0,0,0-.2.7,1.9,1.9,0,0,0,.2.7,1,1,0,0,0,.4.5,1.1,1.1,0,0,0,.7.3l1,.2.9-.2a1.1,1.1,0,0,0,.7-.3,1,1,0,0,0,.4-.5A1.9,1.9,0,0,0,665.3,107Z"/><path class="cls-3" d="M666,102.8h-5.9v-.9h1.1a2.2,2.2,0,0,1-.9-.7,1.6,1.6,0,0,1-.3-.9,1.5,1.5,0,0,1,.1-.7l.9.2a.4.4,0,0,0-.1.3v.3a1.6,1.6,0,0,0,.3.8,2.9,2.9,0,0,0,1,.7H666Z"/><line class="cls-5" x1="595.6" y1="31.6" x2="644" y2="142.5"/><polygon class="cls-4" points="645.4 145.7 641.6 142 643.9 142.2 645.3 140.3 645.4 145.7"/></svg>