<svg xmlns="http://www.w3.org/2000/svg" viewBox="0 0 200.8 468.8"><defs><style>.cls-1,.cls-10,.cls-11,.cls-2,.cls-3,.cls-4,.cls-5{fill:none;}.cls-1,.cls-11,.cls-2,.cls-6,.cls-7{stroke:#04090d;}.cls-1,.cls-10,.cls-11,.cls-2,.cls-3,.cls-4,.cls-5,.cls-6,.cls-7,.cls-8,.cls-9{stroke-miterlimit:10;}.cls-10,.cls-11,.cls-2,.cls-3,.cls-4,.cls-5{stroke-width:0.5px;}.cls-2{stroke-dasharray:12.13 12.13;}.cls-10,.cls-3,.cls-4,.cls-5{stroke:#e3051c;}.cls-4{stroke-dasharray:11.51 11.51;}.cls-5{stroke-dasharray:11.55 11.55;}.cls-6{fill:#f2f2f2;}.cls-7{fill:#ccc;}.cls-8{fill:#39474f;}.cls-8,.cls-9{stroke:#999;}.cls-9{fill:#7b8d96;}.cls-10{stroke-dasharray:12.29 12.29;}.cls-12{fill:#04090d;}.cls-13{fill:#e3051c;}.cls-14{fill:#1d1d1b;}</style></defs><g id="Ziel2"><g id="Kurbelwelle"><path class="cls-1" d="M101.5,178.9q23.3,77.5,46.4,155.1"/><path class="cls-2" d="M169.9,386.1a69.5,69.5,0,0,1-69.5,69.5c-92.2-3.7-92.2-135.4,0-139a69.5,69.5,0,0,1,69.5,69.5Z"/><circle class="cls-1" cx="150.2" cy="337.4" r="4.1"/><line class="cls-3" x1="31.3" y1="386.1" x2="37.3" y2="386.1"/><line class="cls-4" x1="48.8" y1="386.1" x2="158.2" y2="386.1"/><line class="cls-3" x1="163.9" y1="386.1" x2="169.9" y2="386.1"/><line class="cls-3" x1="100.3" y1="455.6" x2="100.3" y2="449.6"/><line class="cls-5" x1="100.3" y1="438.1" x2="100.3" y2="328.3"/><line class="cls-3" x1="100.3" y1="322.6" x2="100.3" y2="316.6"/><line class="cls-1" x1="103.2" y1="383.2" x2="146.7" y2="339.6"/><circle class="cls-1" cx="100.3" cy="386.1" r="4.1"/></g><g id="Zylinder"><ellipse class="cls-6" cx="100.4" cy="39" rx="69.5" ry="17.1"/><path class="cls-7" d="M169.9,38.6c0,9.7-31.1,17.5-69.5,17.5S30.9,48.3,30.9,38.6V266.1h0v.2c0,9.7,31.1,17.6,69.5,17.6s69.5-7.9,69.5-17.6v-.2h0Z"/></g><g id="Kolben"><path class="cls-8" d="M169.1,119.1c0-.2.1-.4.1-.6,0-9.5-30.8-17.1-68.7-17.1S31.8,109,31.8,118.5h0V232.4h0c0,8.9,30.7,16.2,68.7,16.2s68.6-7.3,68.6-16.2V119.1Zm-67.9,63.2a7.4,7.4,0,1,1,6.6-8.1A7.5,7.5,0,0,1,101.2,182.3Z"/><ellipse class="cls-9" cx="100.4" cy="118.7" rx="68.7" ry="17.3"/><circle class="cls-1" cx="100.5" cy="175" r="4.1"/></g><g id="Totpunkte"><path class="cls-10" d="M169.5,206.1c-1.6,22.8-135.8,22.8-137.4,0,1.7-22.8,135.8-22.8,137.4,0Z"/><path class="cls-10" d="M169.5,62.6c-1.6,22.8-135.8,22.7-137.4,0,1.7-22.9,135.8-22.8,137.4,0Z"/><line class="cls-11" x1="4.7" y1="38.6" x2="4.7" y2="59"/><polygon class="cls-12" points="4.7 62.6 2.6 57.6 4.7 58.8 6.7 57.6 4.7 62.6"/><line class="cls-11" x1="4.7" y1="62.6" x2="4.7" y2="83"/><polygon class="cls-12" points="4.7 86.6 2.6 81.6 4.7 82.8 6.7 81.6 4.7 86.6"/><line class="cls-11" x1="4.7" y1="86.6" x2="4.7" y2="107.1"/><polygon class="cls-12" points="4.7 110.6 2.6 105.6 4.7 106.8 6.7 105.6 4.7 110.6"/><line class="cls-11" x1="4.7" y1="110.6" x2="4.7" y2="131.1"/><polygon class="cls-12" points="4.7 134.6 2.6 129.6 4.7 130.8 6.7 129.6 4.7 134.6"/><line class="cls-11" x1="4.7" y1="134.6" x2="4.7" y2="155.1"/><polygon class="cls-12" points="4.7 158.6 2.6 153.7 4.7 154.8 6.7 153.7 4.7 158.6"/><line class="cls-11" x1="4.7" y1="158.6" x2="4.7" y2="179.1"/><polygon class="cls-12" points="4.7 182.7 2.6 177.7 4.7 178.9 6.7 177.7 4.7 182.7"/><line class="cls-11" x1="4.7" y1="182.3" x2="4.7" y2="202.8"/><polygon class="cls-12" points="4.7 206.3 2.6 201.4 4.7 202.5 6.7 201.4 4.7 206.3"/><line class="cls-11" x1="197.8" y1="65.5" x2="197.8" y2="202.5"/><polygon class="cls-12" points="197.8 62 195.8 66.9 197.8 65.8 199.8 66.9 197.8 62"/><polygon class="cls-12" points="197.8 206.1 195.8 201.1 197.8 202.3 199.8 201.1 197.8 206.1"/><line class="cls-1" x1="3" y1="38.6" x2="6.3" y2="38.6"/></g><g id="Text"><path class="cls-13" d="M193.9,129.5c0,.2-.1.4-.1.7a1,1,0,0,1-.4.5l-.4-.3a.5.5,0,0,0,.3-.4.9.9,0,0,0,.1-.5c0-.3,0-.4-.1-.5s-.2-.2-.4-.2h-.4c0,.1-.1.2-.1.3v.3l-.2.3-.2.3c0,.1-.1.2-.2.3h-.8l-.3-.2c-.1-.1-.1-.3-.2-.4v-.5a1.3,1.3,0,0,1,.1-.6.5.5,0,0,1,.2-.4l.4.2a.8.8,0,0,0-.2.4c-.1.1-.1.2-.1.4a.7.7,0,0,0,.1.5h.7l.2-.3v-.2c0-.2.1-.3.1-.4l.2-.3.3-.3h.8l.3.3.2.3A1.3,1.3,0,0,1,193.9,129.5Z"/><path class="cls-13" d="M15.1,41.2c-.3,0-.5-.2-.7-.6a3.9,3.9,0,0,1-.2-1.7,4.2,4.2,0,0,1,.2-1.7c.2-.3.4-.5.7-.5a.6.6,0,0,1,.6.5,4,4,0,0,1,.3,1.7,3.7,3.7,0,0,1-.3,1.7Q15.6,41.2,15.1,41.2Zm0-.4h.2c.1-.1.1-.2.2-.4a4.3,4.3,0,0,0,.1-.5V38.1c0-.2-.1-.4-.1-.6l-.2-.3h-.5c0,.1-.1.2-.1.3a1.3,1.3,0,0,0-.1.6,1.9,1.9,0,0,0-.1.8,3.7,3.7,0,0,0,.2,1.4C14.8,40.6,14.9,40.8,15.1,40.8Z"/><path class="cls-13" d="M14.5,62.4v-.5h1V58.6h-.8v-.3l.5-.2a.5.5,0,0,0,.4-.2h.5v4H17v.5Z"/><path class="cls-13" d="M14.2,86.8v-.3l.9-.9.7-.8.4-.6a1.3,1.3,0,0,0,.1-.6,1.4,1.4,0,0,0-.2-.6c-.1-.2-.3-.2-.6-.2H15l-.5.4-.3-.3.6-.5.7-.2a1.1,1.1,0,0,1,1,.4,1.3,1.3,0,0,1,.4.9,1.4,1.4,0,0,1-.2.6l-.3.7-.6.7-.7.7h2v.5Z"/><path class="cls-13" d="M15.6,111.1h-.9l-.3-.2-.3-.2.3-.4.5.3a.8.8,0,0,0,.7.2l.6-.2a.9.9,0,0,0,.3-.6v-.4c-.1-.1-.1-.2-.2-.2l-.5-.2h-.6v-.4h.5a.5.5,0,0,0,.4-.2.2.2,0,0,0,.2-.2.4.4,0,0,0,.1-.3,1.1,1.1,0,0,0-.2-.6H15l-.4.3-.3-.4.6-.4h1.2l.4.2.3.3a.9.9,0,0,1,.1.5,1.4,1.4,0,0,1-.2.7l-.6.4h.4l.3.3.2.3v.4a.7.7,0,0,1-.1.5c0,.2-.2.3-.3.4l-.4.3Z"/><path class="cls-13" d="M16.1,135v-1.2h-2v-.4l1.9-2.8h.6v2.7h.6v.5h-.6V135Zm-1.4-1.7h1.4v-2.1h0l-.2.3-.2.3Z"/><path class="cls-13" d="M15.6,157.1h-.9l-.3-.2-.3-.2.3-.4.5.3.6.2h.4l.3-.2.2-.3a.6.6,0,0,0,.1-.4,1,1,0,0,0-1-1h-.3a.5.5,0,0,0-.4.2l-.3-.2v-2.1h2.2v.5H15.1v1.3l.3-.2h.9l.5.2.3.4c0,.2.1.4.1.7a1.4,1.4,0,0,1-.2.6c0,.2-.2.3-.3.5l-.5.3Z"/><path class="cls-13" d="M15.8,182.7h-.6l-.5-.4-.3-.7a2.2,2.2,0,0,1-.1-.9,3.7,3.7,0,0,1,.1-1.1,2,2,0,0,1,.4-.8l.5-.4.7-.2.6.2.4.3-.3.4-.3-.3h-.8l-.4.3-.3.6c0,.3-.1.6-.1.9l.5-.4.6-.2a1.8,1.8,0,0,1,.9.4,1.5,1.5,0,0,1,.3,1,1.3,1.3,0,0,1-.1.6c-.1.2-.1.3-.3.4s-.2.3-.4.3Zm0-.4h.3l.3-.2c0-.1.1-.2.1-.3s.1-.2.1-.4a1.4,1.4,0,0,0-.2-.7l-.6-.2h-.5l-.5.5.3.9A.8.8,0,0,0,15.8,182.3Z"/><path class="cls-13" d="M15.3,206.1a4.9,4.9,0,0,1,.1-1.2,2.9,2.9,0,0,1,.2-.9,3,3,0,0,1,.4-1l.6-.8H14.4v-.5h2.8v.3a2.7,2.7,0,0,0-.6,1,4.5,4.5,0,0,0-.6,1.9,4.9,4.9,0,0,0-.1,1.2Z"/><path class="cls-13" d="M182.5,64.1l-.8-.2a1.2,1.2,0,0,1-.7-.5,1.6,1.6,0,0,1-.4-.7,5.1,5.1,0,0,1,0-2,1.6,1.6,0,0,1,.4-.7l.7-.4a1.7,1.7,0,0,1,1.6,0l.7.4a1.6,1.6,0,0,1,.4.7,3.6,3.6,0,0,1,.2,1,3,3,0,0,1-.2,1,1.6,1.6,0,0,1-.4.7,1.2,1.2,0,0,1-.7.5Zm0-.9a.7.7,0,0,0,.7-.4,1.8,1.8,0,0,0,.3-1.1,1.5,1.5,0,0,0-.3-1,.7.7,0,0,0-.7-.4.8.8,0,0,0-.7.4,1.5,1.5,0,0,0-.3,1,1.8,1.8,0,0,0,.3,1.1A.8.8,0,0,0,182.5,63.2Z"/><path class="cls-13" d="M186.1,64V60.3h-1.2v-.8h3.5v.8h-1.3V64Z"/><path class="cls-13" d="M98.8,313.7l-.8-.2-.6-.4a2,2,0,0,1-.4-.8,3.1,3.1,0,0,1-.1-1,3.4,3.4,0,0,1,.1-1,2.5,2.5,0,0,1,.4-.7l.6-.5h.8a1.1,1.1,0,0,1,.8.2l.6.4a2,2,0,0,1,.4.8,2.5,2.5,0,0,1,.1.9,3.1,3.1,0,0,1-.1,1,2,2,0,0,1-.4.8l-.6.4Zm0-.5h.6l.4-.4a1.4,1.4,0,0,0,.2-.6,1.9,1.9,0,0,0,.1-.8,1.5,1.5,0,0,0-.1-.7.8.8,0,0,0-.2-.6c-.1-.2-.3-.3-.4-.4H98.3a1,1,0,0,0-.5.4.8.8,0,0,0-.2.6,1.5,1.5,0,0,0-.1.7,1.9,1.9,0,0,0,.1.8,1.4,1.4,0,0,0,.2.6l.5.4Z"/><path class="cls-13" d="M102.5,313.6v-4h-1.4v-.5h3.4v.5h-1.4v4Z"/><path class="cls-13" d="M182.5,207.6a2,2,0,0,1-1.4-.5,2.6,2.6,0,0,1-.5-1.7V203h1.1v2.5c0,.5,0,.8.2.9a.6.6,0,0,0,.6.3.5.5,0,0,0,.5-.3q.3-.2.3-.9V203h.9v2.4a2.7,2.7,0,0,1-.4,1.7A1.9,1.9,0,0,1,182.5,207.6Z"/><path class="cls-13" d="M186.2,207.5v-3.6h-1.3V203h3.5v.9h-1.2v3.6Z"/><path class="cls-13" d="M97.3,464.3v-2.8h.6v2.8c0,1,.4,1.3.9,1.3s1-.3,1-1.3v-2.8h.6v2.8c0,1.3-.7,1.8-1.6,1.8S97.3,465.6,97.3,464.3Z"/><path class="cls-13" d="M102.7,462h-1.5v-.5h3.6v.5h-1.5v4h-.6Z"/><path class="cls-13" d="M11.4,218.3h-.8c-.2-.1-.5-.2-.6-.4a1.8,1.8,0,0,1-.5-.7,2.6,2.6,0,0,1,0-2,2.2,2.2,0,0,1,.5-.8l.7-.4.8-.2.9.2a.9.9,0,0,1,.6.4l-.6.6-.4-.2h-.8l-.4.3a.5.5,0,0,0-.2.4,1.3,1.3,0,0,0-.1.6l.2-.2h1.5l.5.2.3.4a1.3,1.3,0,0,1,.1.6c0,.3,0,.5-.1.6a1,1,0,0,1-.4.5l-.6.3Zm-.1-.8h.5a.8.8,0,0,0,.2-.6.8.8,0,0,0-.2-.5h-.9l-.4.3c0,.2.1.3.1.5s.1.2.2.2l.3.2Z"/><path class="cls-13" d="M14.7,216.1l-.6-.2a.8.8,0,0,1-.2-.5.5.5,0,0,1,.2-.4.7.7,0,0,1,.6-.2c.2,0,.4,0,.5.2a.5.5,0,0,1,.2.4.8.8,0,0,1-.2.5Zm0,2.2-.6-.2a.6.6,0,0,1,0-.9l.6-.2.5.2a.6.6,0,0,1,0,.9Z"/><path class="cls-13" d="M16.5,218.2v-.8h1.2v-2.5h-1v-.7h.7l.6-.3h.9v3.6h1v.8Z"/><path class="cls-14" d="M38.2,7.7V1.6h1.5l1,2.7c0,.2.1.4.1.6s.2.3.2.5h.1c0-.2.1-.3.1-.5s.1-.4.2-.6l1-2.7h1.4V7.7H42.6V5a1.3,1.3,0,0,1,.1-.6V3.9a.9.9,0,0,1,.1-.5h-.1l-.5,1.4-.8,2.3h-.8l-.8-2.3-.5-1.4h0v.5c0,.2.1.3.1.5V7.7Z"/><path class="cls-14" d="M47.1,7.8l-.8-.2a1.8,1.8,0,0,1-.7-.5,1.2,1.2,0,0,1-.5-.7,1.6,1.6,0,0,1-.2-1,1.6,1.6,0,0,1,.2-1,1.4,1.4,0,0,1,.5-.8,1.8,1.8,0,0,1,.7-.5h1.6l.8.5a2,2,0,0,1,.4.8,1.6,1.6,0,0,1,.2,1,1.6,1.6,0,0,1-.2,1,1.6,1.6,0,0,1-.4.7l-.8.5Zm0-1.1a.5.5,0,0,0,.6-.4c.2-.2.2-.5.2-.9a1.6,1.6,0,0,0-.2-1,.8.8,0,0,0-1.2,0,1.6,1.6,0,0,0-.2,1c0,.4,0,.7.2.9A.5.5,0,0,0,47.1,6.7Z"/><path class="cls-14" d="M51.8,7.8l-.7-.2a.9.9,0,0,1-.5-.3c-.2-.2-.2-.4-.3-.6a1.5,1.5,0,0,1-.1-.7V4.1h-.6v-1h.7V1.9h1.2V3.1h1.1v1H51.6V6a.7.7,0,0,0,.1.5c.1.2.3.2.5.2h.4l.2,1h-1Z"/><path class="cls-14" d="M55.4,7.8l-.9-.2-.7-.5a1.8,1.8,0,0,1-.5-.7,3,3,0,0,1-.2-1,3,3,0,0,1,.2-1,2.2,2.2,0,0,1,.5-.8l.7-.5h1.7a1.8,1.8,0,0,1,.7.5,2.2,2.2,0,0,1,.5.8,3,3,0,0,1,.2,1,3,3,0,0,1-.2,1,1.8,1.8,0,0,1-.5.7,1.8,1.8,0,0,1-.7.5Zm0-1.1a.7.7,0,0,0,.6-.4,2,2,0,0,0,.2-.9,3,3,0,0,0-.2-1,.9.9,0,0,0-.6-.3.9.9,0,0,0-.7.3,3,3,0,0,0-.2,1,2,2,0,0,0,.2.9A.8.8,0,0,0,55.4,6.7Z"/><path class="cls-14" d="M58.5,7.7V3.1h1.1v.8h.1a1.1,1.1,0,0,1,.6-.7.8.8,0,0,1,.7-.2h.5l-.2,1.1H60.3a4.3,4.3,0,0,0-.4.7V7.7Z"/><path class="cls-14" d="M63.8,5.8v-1h2.3v1Z"/><path class="cls-14" d="M69.1,7.7V1.6h1.3V4h2.1V1.6h1.4V7.7H72.5V5.2H70.4V7.7Z"/><path class="cls-14" d="M76.6,7.8a1.3,1.3,0,0,1-1.1-.5,2,2,0,0,1-.4-1.4V3.1h1.4V5.8c0,.3,0,.5.1.6s.3.2.5.2h.4l.4-.4v-3h1.3V7.7H78.1V7h0l-.6.6Z"/><path class="cls-14" d="M82.8,7.8l-.6-.2-.6-.4h0v.5H80.4V1.2h1.4V3.5l.6-.4h1.4l.6.5.3.7a3,3,0,0,1,.2,1,3,3,0,0,1-.2,1,2.9,2.9,0,0,1-.4.8,1.8,1.8,0,0,1-.7.5Zm-.3-1.1a.7.7,0,0,0,.6-.4,1.3,1.3,0,0,0,.3-1c0-.8-.3-1.2-.8-1.2a.9.9,0,0,0-.8.4V6.4l.3.2Z"/><path class="cls-14" d="M85.7,7.7V3.1h1.1v.8H87a1.3,1.3,0,0,1,.5-.7,1.2,1.2,0,0,1,.8-.2h.5l-.2,1.1H87.5a1.6,1.6,0,0,0-.4.7V7.7Z"/><path class="cls-14" d="M90.3,7.8h-.6l-.4-.3L89,6.9a.7.7,0,0,1-.1-.5,1.1,1.1,0,0,1,.6-1.1,4.3,4.3,0,0,1,2-.6c0-.2-.1-.3-.2-.5H90.2a.9.9,0,0,0-.6.3l-.5-.9.9-.5h1a1.6,1.6,0,0,1,1.4.5A2.1,2.1,0,0,1,92.8,5V7.7H91.7V7.2h0l-.6.4Zm.4-1.1h.4c.2,0,.3-.1.4-.3V5.5l-1,.3c-.2.2-.3.3-.3.5s.1.2.2.3Z"/><path class="cls-14" d="M95.4,7.8a1.3,1.3,0,0,1-1.1-.5,2.6,2.6,0,0,1-.4-1.4V3.1h1.4V5.8a3.5,3.5,0,0,0,.1.6c.1.2.3.2.5.2h.4l.4-.4v-3H98V7.7H96.9V7h0l-.6.6Z"/><path class="cls-14" d="M99.2,7.7V3.1h1.1v.6h.1l.6-.5a1.7,1.7,0,0,1,1.6,0,1,1,0,0,1,.4.5l.7-.5a1.1,1.1,0,0,1,.8-.2,1.2,1.2,0,0,1,1.1.5,2.3,2.3,0,0,1,.3,1.3V7.7h-1.4V5c0-.3,0-.6-.1-.7l-.4-.2c-.3,0-.5.2-.8.5V7.7h-1.4V5c0-.3,0-.6-.1-.7l-.4-.2c-.3,0-.5.2-.8.5V7.7Z"/><path class="cls-14" d="M108.8,5.8v-1h2.3v1Z"/><path class="cls-14" d="M115.1,7.7l-1.9-6.1h1.5l.7,2.9.3.9a4.4,4.4,0,0,0,.2,1h0l.3-1a2.9,2.9,0,0,1,.2-.9l.7-2.9h1.4l-1.8,6.1Z"/><path class="cls-14" d="M120.9,7.8l-.9-.2a1.8,1.8,0,0,1-.7-.5,1.8,1.8,0,0,1-.5-.7,3,3,0,0,1-.2-1,3,3,0,0,1,.2-1,2.2,2.2,0,0,1,.5-.8l.7-.5h1.6c.3.2.5.3.6.5a1.6,1.6,0,0,1,.4.7,2.8,2.8,0,0,1,.1.9v.6h-2.8a1.6,1.6,0,0,0,.4.7,1.1,1.1,0,0,0,.8.2,1.9,1.9,0,0,0,1-.3l.4.9-.7.3Zm-1-2.9h1.7a1.4,1.4,0,0,0-.2-.7l-.6-.2-.6.2Z"/><path class="cls-14" d="M123.7,7.7V3.1h1.1v.8h0a2.2,2.2,0,0,1,.6-.7,1,1,0,0,1,.7-.2h.3c.1,0,.2,0,.2.1l-.2,1.1h-1a1.8,1.8,0,0,0-.5.7V7.7Z"/><path class="cls-14" d="M128.9,7.8l-.8-.2-.6-.5a1.6,1.6,0,0,1-.4-.7,3.4,3.4,0,0,1-.1-1,1.6,1.6,0,0,1,.2-1,2,2,0,0,1,.4-.8l.6-.5h1.3a1,1,0,0,1,.5.4V1.2h1.3V7.7h-1.1V7.2h0l-.6.4Zm.3-1.1h.4l.4-.3V4.4l-.4-.3h-.4l-.6.3a2.2,2.2,0,0,0-.2,1,3,3,0,0,0,.2,1A.7.7,0,0,0,129.2,6.7Z"/><path class="cls-14" d="M133.2,2.4l-.6-.2a.8.8,0,0,1-.2-.5.8.8,0,0,1,.2-.5l.6-.2.6.2a.8.8,0,0,1,.2.5.8.8,0,0,1-.2.5Zm-.7,5.3V3.1h1.4V7.7Z"/><path class="cls-14" d="M137.1,7.8l-.9-.2a1.8,1.8,0,0,1-.7-.5,1.8,1.8,0,0,1-.5-.7,3,3,0,0,1-.2-1,3,3,0,0,1,.2-1,2.2,2.2,0,0,1,.5-.8l.8-.5h1.6a.9.9,0,0,1,.6.4l-.6.8-.6-.2a1,1,0,0,0-.8.3,1.7,1.7,0,0,0-.3,1,1.2,1.2,0,0,0,.3.9.8.8,0,0,0,.7.4h.5l.3-.3.6.9-.8.5Z"/><path class="cls-14" d="M139.4,7.7V1.2h1.3V3.6a.9.9,0,0,1,.6-.4,1.1,1.1,0,0,1,.8-.2c.5,0,.9.1,1.1.5a2.3,2.3,0,0,1,.3,1.3V7.7h-1.3V5a1.2,1.2,0,0,0-.2-.7.5.5,0,0,0-.4-.2h-.5l-.4.4V7.7Z"/><path class="cls-14" d="M146.4,7.8l-.7-.2a.9.9,0,0,1-.5-.3l-.3-.6c0-.2-.1-.4-.1-.7V4.1h-.6v-1h.7l.2-1.2h1.1V3.1h1.1v1h-1.1V6a.8.8,0,0,0,.2.5c.1.2.2.2.4.2h.4l.2,1h-1Z"/><path class="cls-14" d="M149.6,7.8a1.3,1.3,0,0,1-1.1-.5,2.6,2.6,0,0,1-.4-1.4V3.1h1.4V5.8c0,.3,0,.5.1.6s.3.2.5.2h.4c.1-.1.3-.2.4-.4v-3h1.3V7.7h-1.1V7h0a3.4,3.4,0,0,1-.6.6Z"/><path class="cls-14" d="M153.4,7.7V3.1h1.1v.6h.1l.6-.5a1.2,1.2,0,0,1,.8-.2c.5,0,.9.1,1.1.5a1.7,1.7,0,0,1,.4,1.3V7.7h-1.4V5c0-.3,0-.6-.1-.7l-.5-.2h-.4l-.4.4V7.7Z"/><path class="cls-14" d="M160.4,9.6h-.8l-.6-.2-.4-.3a1.1,1.1,0,0,1-.2-.6c0-.3.3-.6.7-.9h0l-.3-.3a.7.7,0,0,1-.1-.5.9.9,0,0,1,.1-.5l.4-.3h0a1,1,0,0,1-.4-.5.8.8,0,0,1-.2-.7,1.5,1.5,0,0,1,.1-.7l.4-.5.6-.3h3.1v1h-.7c.1,0,.1.1.1.2s.1.2.1.4a1.9,1.9,0,0,1-.2.7.8.8,0,0,1-.4.4.5.5,0,0,1-.5.3h-1.3v.2c-.1,0-.1.1-.1.2l.2.2h1.3a2.5,2.5,0,0,1,1.3.3,1,1,0,0,1,.4.9.7.7,0,0,1-.2.6,1.2,1.2,0,0,1-.5.5,2,2,0,0,1-.8.4Zm.2-.8.7-.2c.2-.1.3-.2.3-.4s0-.2-.2-.3h-1.6a.5.5,0,0,0-.3.4c0,.2.1.3.3.4Zm-.1-3.4.4-.2a.8.8,0,0,0,.2-.6.8.8,0,0,0-.2-.5l-.4-.2c-.2,0-.4,0-.5.2a.8.8,0,0,0-.2.5.8.8,0,0,0,.2.6Z"/><path class="cls-13" d="M123.1,359.6v-3.4h.5v.6h0a1,1,0,0,1,.4-.5l.5-.2h.4v.5h-.3l-.5.2a1.5,1.5,0,0,0-.4.6v2.2Z"/><path class="cls-13" d="M122.7,325.4l-.5-.2a1.1,1.1,0,0,1-.1-.6v-4.2h.6v4.4h.2v.4h-.3Z"/><path class="cls-13" d="M124.5,327.6h-.3l-.3-.2h0v.2h-.3v-2.9h.4v1.2l.3-.2h.7l.2.2c.1,0,.2.1.2.3v.8c-.1.2-.1.3-.2.4l-.3.2Zm-.1-.2h.4a.4.4,0,0,0,.1-.3.4.4,0,0,0,.1-.3v-.5c-.1-.1-.1-.2-.2-.2h-.2c-.2,0-.4,0-.5.2v1.1h.4Z"/><path class="cls-11" d="M99.8,370.2a17.7,17.7,0,0,1,6.4,1.5l1.7.9"/><polygon class="cls-12" points="110.7 374.8 105.5 373.4 107.7 372.5 108 370.2 110.7 374.8"/><path class="cls-11" d="M99.9,322.7c10.8.2,21.4,4.1,26.3,6.4a71.9,71.9,0,0,1,15.6,10.2"/><polygon class="cls-12" points="144.5 341.7 139.4 339.9 141.6 339.2 142.1 336.9 144.5 341.7"/><path class="cls-13" d="M105.5,370.3h-.6c-.1-.1-.3-.2-.4-.4a.8.8,0,0,1-.2-.5,1.5,1.5,0,0,1-.1-.7,1.9,1.9,0,0,1,.1-.8l.3-.6.5-.3h.5c.3,0,.5,0,.6.2a1,1,0,0,1,.5.6h0v-.8h.6c0,.3-.1.5-.1.7s-.1.5-.2.8a1.3,1.3,0,0,1-.1.6v.6c0,.1,0,.2.1.2s.1.1.2.1h.2v.4a.1.1,0,0,0-.1.1h-.3l-.5-.2a.8.8,0,0,1-.2-.5h0A1,1,0,0,1,105.5,370.3Zm.1-.5h.3l.3-.2.2-.3a.8.8,0,0,0,.1-.4v-.7l-.2-.4-.2-.3h-.3c0-.1-.1-.1-.2-.1h-.3l-.4.3-.2.4v.6c0,.4,0,.7.2.9A.6.6,0,0,0,105.6,369.8Z"/><path class="cls-13" d="M98.7,119.3l-1.4-4.5h1.1l.5,2.1a2.5,2.5,0,0,1,.2.7c.1.3.1.5.2.8h0a2.4,2.4,0,0,0,.2-.8,6.4,6.4,0,0,0,.2-.7l.5-2.1h1.1l-1.4,4.5Z"/><path class="cls-13" d="M101.5,121.6v-2.8h.6v1.1l.3-.2h.4a.5.5,0,0,1,.4.2.8.8,0,0,1,.2.6v1.2h-.6v-1.1c0-.2,0-.3-.1-.3s-.1-.1-.2-.1h-.2c0,.1-.1.1-.1.2v1.3Z"/><path class="cls-13" d="M98.9,68.7l-1.4-4.5h1.1l.5,2.1c.1.2.1.5.2.7s.1.5.2.7h0c.1-.2.1-.5.2-.7a1.9,1.9,0,0,1,.2-.7l.5-2.1h1l-1.3,4.5Z"/><path class="cls-13" d="M102.5,71h-.4l-.3-.2-.2-.4c0-.1-.1-.2-.1-.4s.1-.3.1-.5l.3-.3c0-.1.2-.1.3-.2h.7l.3.2-.3.3h-.3l-.3.2a.5.5,0,0,0,0,.8l.3.2h.4l.2.4-.3.2Z"/></g></g></svg>